<ttFont>
          <CharString index="0">
            rmoveto
            -77 callsubr
            46 103 rlineto
            187 hlineto
            17 -101 rlineto
            -9 vlineto
            -64 -10 -5 -58 rlineto
            272 hlineto
            4 58 -66 14 -116 583 rlineto
            -93 hlineto
            -266 -583 rlineto
            306 171 rmoveto
            -147 hlineto
            100 221 7 24 rlineto
            4 -24 hlineto
            return
          </CharString>
          <CharString index="1">
            rmoveto
            164 88 164 178 131 -64 51 -115 -144 -106 -145 -202 -121 65 -56 112 hvcurveto
            32 72 rmoveto
            -59 -17 44 88 130 35 95 11 13 hvcurveto
            -88 callgsubr
            -50 callgsubr
            return
          </CharString>
          <CharString index="2">
            rmoveto
            -82 callsubr
            41 298 -36 callgsubr
            -43 -298 rlineto
            -178 -26 -41 -46 -96 hhcurveto
            -89 -16 53 58 18 5 49 7 46 hvcurveto
            43 298 71 14 8 58 rlineto
            -275 hlineto
            -16 callgsubr
            return
          </CharString>
          <CharString index="3">
            rmoveto
            -78 callgsubr
            -39 callgsubr
            vhcurveto
            -76 callgsubr
            53 46 17 15 27 vhcurveto
            62 -70 vlineto
            70 421 -66 callsubr
            return
          </CharString>
          <CharString index="4">
            rmoveto
            26 -39 124 59 113 -61 39 48 -87 79 rlineto
            17 -19 -19 21 -15 hhcurveto
            -12 -23 -20 -30 -37 hvcurveto
            return
          </CharString>
          <CharString index="5">
            rmoveto
            70 6 rlineto
            17 6 2 18 7 vhcurveto
            31 12 43 21 39 vvcurveto
            44 -45 24 -75 -62 -22 -16 -24 -8 2 -12 11 -15 vhcurveto
            5 19 17 3 24 hhcurveto
            19 12 -5 -14 -11 -10 -6 -20 -8 hvcurveto
            -40 -16 -5 -8 -15 vvcurveto
            -6 3 -8 4 -8 vhcurveto
            return
          </CharString>
          <CharString index="6">
            6 callgsubr
            -36 -280 rlineto
            -19 -23 -29 -7 -38 hhcurveto
            -89 -16 53 58 18 5 49 7 46 hvcurveto
            12 82 71 14 8 58 rlineto
            -275 -9 callgsubr
            -11 -86 rlineto
            -5 -42 -4 -37 -32 vvcurveto
            -92 40 -82 173 39 34 4 10 29 vhcurveto
            -131 -21 -32 -34 -92 hhcurveto
            -46 -35 7 7 -19 hvcurveto
            -14 125 rlineto
            -71 hlineto
            -24 -180 rlineto
            -13 37 85 -14 80 hhcurveto
            205 63 93 180 23 hvcurveto
            41 317 0 callgsubr
            endchar
          </CharString>
          <CharString index="7">
            rmoveto
            47 19 7 45 31 hvcurveto
            81 116 rlineto
            93 113 157 224 122 vvcurveto
            42 -62 20 -53 -14 -13 -1 -3 -12 vhcurveto
            -26 -51 68 -40 -11 -105 -14 -58 -112 -172 rlinecurve
            -4 49 hlineto
            -25 376 -189 -16 rlineto
            -62 vlineto
            72 -19 28 -293 rlineto
            -131 vlineto
            -56 -69 rlineto
            -118 -62 hlineto
            -16 30 40 -16 43 hhcurveto
            return
          </CharString>
          <CharString index="8">
            rmoveto
            41 -28 16 -5 4 vhcurveto
            -73 -48 rlineto
            -15 vlineto
            8 -7 6 -7 -15 vvcurveto
            -39 -43 -41 -49 -31 vhcurveto
            23 137 -79 callgsubr
            -39 callgsubr
            vhcurveto
            -76 callgsubr
            53 46 17 15 27 vhcurveto
            62 -70 vlineto
            39 237 rlineto
            152 80 40 61 48 vvcurveto
            return
          </CharString>
          <CharString index="9">
            rmoveto
            151 105 78 129 21 -14 callsubr
            23 -42 -45 12 -39 hhcurveto
            -109 -108 -160 -163 -104 39 -54 76 52 54 39 74 50 hvcurveto
            3 -2 -11 -26 -11 -38 -7 -36 rlinecurve
            -99 -18 3 -38 -83 hhcurveto
            -36 -46 13 17 -25 hvcurveto
            88 -56 vlineto
            -15 -38 -68 -28 -65 56 -35 105 hvcurveto
            66 300 rmoveto
            -20 -8 24 59 82 17 89 24 48 hvcurveto
            2 1 7 1 13 hhcurveto
            35 39 -22 -41 40 hvcurveto
            -28 -150 rlineto
            -58 -43 -45 -34 -32 hhcurveto
            endchar
          </CharString>
          <CharString index="10">
            -125 -11 -60 -342 rlineto
            -25 -25 -50 -43 -32 hhcurveto
            -20 -7 11 18 12 7 43 3 17 hvcurveto
            return
          </CharString>
          <CharString index="11">
            62 -70 vlineto
            70 421 -97 callsubr
            return
          </CharString>
          <CharString index="12">
            rmoveto
            41 -28 16 -5 4 vhcurveto
            -73 -48 rlineto
            -15 vlineto
            8 -7 6 -7 -15 vvcurveto
            -31 -22 -8 -47 vhcurveto
            -131 -76 callsubr
            183 61 81 208 29 vhcurveto
            40 294 rlineto
            119 37 25 60 49 vvcurveto
            return
          </CharString>
          <CharString index="13">
            rmoveto
            52 25 41 40 43 -28 26 -38 -51 -25 -44 -40 -37 26 -29 39 hvcurveto
            204 hmoveto
            52 25 41 40 43 -28 26 -38 -51 -25 -44 -40 -37 26 -29 39 hvcurveto
            return
          </CharString>
          <CharString index="14">
            rmoveto
            -32 25 rlineto
            -39 -39 -38 -24 -65 hhcurveto
            -36 -28 13 47 -24 hvcurveto
            -39 -14 -29 -22 -21 vvcurveto
            -56 73 -44 64 119 56 103 32 18 vhcurveto
            return
          </CharString>
          <CharString index="15">
            rmoveto
            -49 callgsubr
            -27 callsubr
            -14 -20 -6 -18 -19 vvcurveto
            -33 26 -18 51 82 48 -28 callsubr
            -21 callsubr
            69 429 rlineto
            -76 hlineto
            -36 -38 rlineto
            16 -31 -45 18 -48 hhcurveto
            -138 -82 -25 callgsubr
            -113 44 -48 73 hvcurveto
            41 99 rmoveto
            -18 -9 40 43 105 18 94 27 60 hvcurveto
            2 1 9 1 11 hhcurveto
            32 38 -23 -40 39 hvcurveto
            -14 callgsubr
            endchar
          </CharString>
          <CharString index="16">
            rmoveto
            50 25 40 39 40 -27 26 -36 -50 -24 -43 -38 -35 25 -29 37 hvcurveto
            223 hmoveto
            50 25 40 39 40 -27 26 -36 -50 -24 -43 -38 -35 25 -29 37 hvcurveto
            return
          </CharString>
          <CharString index="17">
            rmoveto
            116 86 68 92 6 callsubr
            hvcurveto
            -74 52 -23 23 22 vvcurveto
            22 19 10 42 27 33 -5 -7 18 vhcurveto
            9 -89 rlineto
            47 hlineto
            26 16 23 40 28 vvcurveto
            61 -47 31 -91 -116 -88 -69 -91 -57 28 -35 102 -69 vhcurveto
            64 -44 18 -20 -27 vvcurveto
            -29 -18 -9 -57 -38 -36 6 8 -9 vhcurveto
            -9 98 rlineto
            -46 hlineto
            -15 -37 -72 -28 -61 48 -26 113 hvcurveto
            return
          </CharString>
          <CharString index="18">
            rmoveto
            -38 callgsubr
            275 -83 callsubr
            return
          </CharString>
          <CharString index="19">
            rmoveto
            -21 callgsubr
            60 386 rlineto
            7 12 51 30 42 hhcurveto
            21 9 -14 -19 -19 -3 -21 -3 -16 hvcurveto
            -42 -10 callsubr
            -24 -22 -1 callsubr
            76 52 -28 callsubr
            -21 callsubr
            42 249 rlineto
            3 19 8 50 24 vvcurveto
            46 -22 37 -70 -51 -55 -32 -44 -58 -29 callsubr
            return
          </CharString>
          <CharString index="20">
            rmoveto
            41 -28 16 -5 4 vhcurveto
            -73 -48 rlineto
            -15 vlineto
            8 -7 6 -7 -15 vvcurveto
            -41 -48 -43 -52 -32 vhcurveto
            78 -34 -74 61 -132 hhcurveto
            -180 -152 -140 -273 -174 116 -84 137 224 118 165 248 28 -3 28 -8 27 hvcurveto
            142 77 38 59 47 vvcurveto
            -491 -613 -57 callsubr
          </CharString>
          <CharString index="21">
            rmoveto
            111 hlineto
            179 384 53 -384 rlineto
            112 hlineto
            273 595 55 11 6 50 rlineto
            -217 hlineto
            -6 -50 70 -16 -7 -17 -172 -392 -7 -27 rlineto
            -4 27 hlineto
            -39 395 rlineto
            16 vlineto
            71 14 6 50 rlineto
            -280 hlineto
            -6 -50 63 -12 9 -64 -156 -348 -7 -29 rlineto
            -4 29 hlineto
            -37 390 -2 20 71 14 6 50 rlineto
            -279 hlineto
            -6 -50 63 -12 rlineto
            endchar
          </CharString>
          <CharString index="22">
            71 504 -86 callgsubr
            return
          </CharString>
          <CharString index="23">
            -1 callgsubr
            39 14 6 14 18 vvcurveto
            37 -22 19 -16 9 vhcurveto
            -188 -118 rlineto
            return
          </CharString>
          <CharString index="24">
            -25 callsubr
            -85 callsubr
            return
          </CharString>
          <CharString index="25">
            -82 callgsubr
            183 61 81 208 29 vhcurveto
            return
          </CharString>
          <CharString index="26">
            rmoveto
            -57 -296 -61 callsubr
            10 callgsubr
            320 rlineto
            97 vlineto
            -198 -19 rlineto
            -62 vlineto
            endchar
          </CharString>
          <CharString index="27">
            545 rmoveto
            51 27 -34 172 rlineto
            2 -6 -6 1 -7 hhcurveto
            -36 -44 -26 -40 -18 8 -17 24 -34 hvcurveto
            227 -67 rmoveto
            51 27 -34 172 rlineto
            1 -6 -6 0 -6 hhcurveto
            -43 -38 -25 -39 -18 8 -17 24 -34 hvcurveto
            return
          </CharString>
          <CharString index="28">
            -22 36 rlineto
            0 -52 -34 -50 -60 -36 17 104 108 17 84 18 37 vhcurveto
            9 4 32 1 14 hhcurveto
            37 28 -11 0 hvcurveto
            9 -101 rlineto
            46 hlineto
            0 47 45 61 vvcurveto
            67 -77 19 -66 -172 -68 -204 -158 return
          </CharString>
          <CharString index="29">
            438 hlineto
            23 -20 callsubr
            -61 hlineto
            -39 -111 rlineto
            -223 hlineto
            -4 8 381 499 -46 72 rlineto
            -417 hlineto
            -26 -180 rlineto
            61 hlineto
            43 111 rlineto
            212 hlineto
            8 -14 return
          </CharString>
          <CharString index="30">
            -16 callgsubr
            219 hlineto
            7 58 -77 11 rlineto
            6 vlineto
            return
          </CharString>
          <CharString index="31">
            -48 callsubr
            -43 -298 rlineto
            -178 -26 -41 -46 -96 hhcurveto
            -89 -16 53 58 18 5 49 7 46 hvcurveto
            43 298 71 14 8 58 rlineto
            -275 -9 callgsubr
            -82 callgsubr
            return
          </CharString>
          <CharString index="32">
            37 vvcurveto
            28 -17 27 -45 6 vhcurveto
            -31 callsubr
            return
          </CharString>
          <CharString index="33">
            -68 callsubr
            35 -18 51 -27 vhcurveto
            return
          </CharString>
          <CharString index="34">
            vlineto
            -199 -19 rlineto
            -61 vlineto
            return
          </CharString>
          <CharString index="35">
            rmoveto
            4 -2 rlineto
            -9 -18 -10 -21 -20 vvcurveto
            -40 19 -10 56 71 54 33 0 vhcurveto
            61 -70 vlineto
            82 525 rlineto
            94 vlineto
            -197 10 callsubr
            -23 -124 rlineto
            12 -27 -36 12 -38 hhcurveto
            -152 -81 -25 callgsubr
            -97 46 -64 73 72 49 54 62 34 hvcurveto
            return
          </CharString>
          <CharString index="36">
            -12 callgsubr
            159 -93 81 -183 hvcurveto
            -270 -91 callgsubr
            135 -3 rmoveto
            71 510 rlineto
            23 hlineto
            131 46 -52 -150 -198 -76 -110 -137 hvcurveto
            return
          </CharString>
          <CharString index="37">
            32 40 -149 152 rlineto
            -45 -6 -17 -27 -28 vvcurveto
            -37 return
          </CharString>
          <CharString index="38">
            562 rmoveto
            0 43 78 79 54 25 -36 -45 7 vhcurveto
            10 49 16 8 10 hvcurveto
            6 4 5 5 17 vvcurveto
            51 -50 69 -85 -157 -37 -150 0 vhcurveto
            return
          </CharString>
          <CharString index="39">
            rmoveto
            93 -49 -70 callsubr
            return
          </CharString>
          <CharString index="40">
            rlineto
            -3 -14 -4 -20 -26 vvcurveto
            -27 return
          </CharString>
          <CharString index="41">
            -97 callsubr
            40 237 rlineto
            83 -73 callsubr
            return
          </CharString>
          <CharString index="42">
            566 -102 callgsubr
            return
          </CharString>
          <CharString index="43">
            rmoveto
            -57 -335 -2 callsubr
            -46 28 -19 76 88 68 28 0 vhcurveto
            64 -129 vlineto
            53 353 rlineto
            123 hlineto
            10 71 rlineto
            -122 hlineto
            22 127 -121 -15 -22 -112 rlineto
            -88 hlineto
            -10 -71 rlineto
            return
          </CharString>
          <CharString index="44">
            572 8 callsubr
            101 49 89 vvcurveto
            29 -15 24 -40 -26 -15 -16 -17 -10 vhcurveto
            0 11 -20 -28 vvcurveto
            -47 -30 -34 0 vhcurveto
            return
          </CharString>
          <CharString index="45">
            rmoveto
            80 37 53 47 61 -39 23 -57 -76 -43 -54 -47 -55 27 -28 71 hvcurveto
            6 49 rmoveto
            -19 -9 11 22 42 9 11 25 15 13 -7 -27 -43 -10 -9 -24 hvcurveto
            return
          </CharString>
          <CharString index="46">
            -61 callgsubr
            32 0 vhcurveto
            return
          </CharString>
          <CharString index="47">
            -81 70 -19 24 30 vvcurveto
            31 10 33 60 54 41 -17 -11 17 vhcurveto
            10 -108 rlineto
            68 hlineto
            18 -20 callsubr
            10 -31 -65 11 -79 hhcurveto
            -144 -74 -80 -101 -81 40 -36 109 -95 hvcurveto
            90 -78 3 -18 -47 vvcurveto
            -34 -27 -34 -52 -84 -37 36 0 -38 callsubr
            return
          </CharString>
          <CharString index="48">
            rmoveto
            -35 -190 rlineto
            -33 -26 -50 -57 -45 hhcurveto
            -18 -9 28 55 146 36 90 14 23 hvcurveto
            2 1 12 1 2 hhcurveto
            44 41 -29 -36 33 hvcurveto
            return
          </CharString>
          <CharString index="49">
            rlineto
            -25 vlineto
            47 -23 rlineto
            18 -9 5 -5 -9 vvcurveto
            -8 -6 -6 -12 -39 -18 9 7 -19 vhcurveto
            return
          </CharString>
          <CharString index="50">
            rmoveto
            -69 -55 38 146 256 49 100 123 69 56 -38 -146 -256 -50 -100 -123 hvcurveto
            endchar
          </CharString>
          <CharString index="51">
            -120 rmoveto
            -26 -47 rlineto
            -18 28 35 -9 54 hhcurveto
            53 47 26 56 34 -24 17 -28 15 hvcurveto
            -34 18 rlineto
            return
          </CharString>
          <CharString index="52">
            rmoveto
            51 31 41 48 37 -27 26 -36 -55 -27 -45 -43 -40 26 -24 37 hvcurveto
            return
          </CharString>
          <CharString index="53">
            rmoveto
            -77 callsubr
            126 198 rlineto
            157 hlineto
            -28 -201 -71 -14 -3 callgsubr
            27 197 3 callsubr
            34 234 58 7 rlineto
            108 -115 66 hlineto
            -28 callgsubr
            -436 hlineto
            -369 -576 rlineto
            376 266 rmoveto
            -125 hlineto
            153 241 rlineto
            6 hlineto
            endchar
          </CharString>
          <CharString index="54">
            545 -35 callgsubr
            220 -27 rmoveto
            69 67 36 34 17 26 1 24 rlinecurve
            return
          </CharString>
          <CharString index="55">
            -18 79 -194 rmoveto
            41 25 27 22 9 hvcurveto
            -40 50 -18 38 45 vvcurveto
            -9 6 2 3 rlineto
            -4 10 10 -4 17 hhcurveto
            -26 callgsubr
            54 320 rlineto
            -14 hlineto
            -124 -19 rlineto
            -78 vlineto
            -45 -250 rlineto
            -19 -95 -16 -88 -104 vvcurveto
            -46 17 -23 44 vhcurveto
            endchar
          </CharString>
          <CharString index="56">
            681 rmoveto
            52 26 42 40 42 -28 27 -38 -52 -25 -45 -39 -37 26 -30 39 hvcurveto
            return
          </CharString>
          <CharString index="57">
            rmoveto
            43 95 rlineto
            -6 23 25 -3 26 hhcurveto
            224 118 165 248 91 -36 93 -91 45 hvcurveto
            37 81 -62 30 -41 -89 rlineto
            5 -21 -24 2 -25 hhcurveto
            -180 -152 -140 -273 -109 45 -74 68 -40 hvcurveto
            -41 -90 rlineto
            91 199 rmoveto
            -9 26 -5 35 45 vvcurveto
            256 49 100 123 18 17 -3 -6 15 vhcurveto
            -98 -531 rmoveto
            -23 -20 4 10 -18 hvcurveto
            212 465 rlineto
            14 -28 8 -40 -55 vvcurveto
            -256 -50 -100 -123 vhcurveto
            endchar
          </CharString>
          <CharString index="58">
            rmoveto
            -91 -502 -40 callgsubr
            -23 callgsubr
            return
          </CharString>
          <CharString index="59">
            hlineto
            -7 -33 callgsubr
            return
          </CharString>
          <CharString index="60">
            538 rmoveto
            77 73 rlineto
            50 47 12 17 24 vvcurveto
            34 -32 24 -30 -5 -6 0 -2 -5 vhcurveto
            -102 -187 rlineto
            return
          </CharString>
          <CharString index="61">
            rmoveto
            100 65 rlineto
            28 18 17 19 26 vvcurveto
            28 -36 28 -34 vhcurveto
            -113 -150 rlineto
            return
          </CharString>
          <CharString index="62">
            8 -2 callgsubr
            32 228 rlineto
            8 hlineto
            123 -254 rlineto
            -29 14 10 -17 30 hhcurveto
            146 hlineto
            9 58 -77 16 -149 286 199 217 60 13 9 58 rlineto
            -215 hlineto
            -7 -58 50 -11 rlineto
            -6 vlineto
            -194 -213 rlineto
            -8 hlineto
            31 216 -86 callgsubr
            return
          </CharString>
          <CharString index="63">
            -11 -90 callsubr
            return
          </CharString>
          <CharString index="64">
            198 -12 hmoveto
            331 84 hlineto
            -62 50 -30 70 100 vvcurveto
            192 57 99 110 84 45 -65 -122 -173 -34 -93 -84 -58 vhcurveto
            -84 297 vlineto
            20 188 rlineto
            -66 hlineto
            -35 -104 rlineto
            -106 hlineto
            95 72 62 125 121 vvcurveto
            159 -99 99 -159 -186 -143 -149 -194 -102 47 -91 73 -40 vhcurveto
            -112 hlineto
            -19 104 rlineto
            -66 hlineto
            endchar
          </CharString>
          <CharString index="65">
            11 callsubr
            59 388 rlineto
            9 17 51 26 36 hhcurveto
            27 7 -13 -24 -46 -34 -42 -98 -74 hvcurveto
            -43 vlineto
            60 -139 rlineto
            -34 14 25 -12 56 hhcurveto
            71 31 31 0 hvcurveto
            61 -91 vlineto
            -62 133 rlineto
            65 42 91 59 96 vvcurveto
            58 -30 37 -71 -58 -76 -55 -17 -23 vhcurveto
            26 172 rlineto
            94 vlineto
            -197 -19 rlineto
            -62 vlineto
            return
          </CharString>
          <CharString index="66">
            58 -12 callgsubr
            161 -95 79 -181 hvcurveto
            -270 -9 callgsubr
            -30 -210 rlineto
            -72 hlineto
            -10 -67 rlineto
            73 hlineto
            -32 -227 rlineto
            135 -3 rmoveto
            32 230 rlineto
            124 hlineto
            10 67 rlineto
            -125 hlineto
            30 213 rlineto
            23 hlineto
            107 70 -25 -177 -212 -86 -96 -127 hvcurveto
            endchar
          </CharString>
          <CharString index="67">
            54 320 rlineto
            97 vlineto
            -198 -19 rlineto
            -62 vlineto
            75 -16 -57 -296 -67 callsubr
            16 -31 49 return
          </CharString>
          <CharString index="68">
            705 rmoveto
            39 -42 119 92 rlineto
            23 18 8 14 12 vvcurveto
            26 -26 31 -34 6 vhcurveto
            return
          </CharString>
          <CharString index="69">
            vhcurveto
            -11 119 rlineto
            -71 hlineto
            -19 -178 return
          </CharString>
          <CharString index="70">
            rmoveto
            32 25 91 77 84 vvcurveto
            43 -23 28 -38 -48 -28 -40 -41 -32 return
          </CharString>
          <CharString index="71">
            -7 58 -92 callgsubr
            return
          </CharString>
          <CharString index="72">
            rmoveto
            -10 -82 rlineto
            330 hlineto
            10 82 rlineto
            return
          </CharString>
          <CharString index="73">
            -93 callgsubr
            -71 -14 rlineto
            return
          </CharString>
          <CharString index="74">
            600 rmoveto
            -18 callsubr
            32 -40 rlineto
            return
          </CharString>
          <CharString index="75">
            798 rmoveto
            -10 -82 rlineto
            350 hlineto
            10 82 rlineto
            return
          </CharString>
          <CharString index="76">
            -149 -152 return
          </CharString>
          <CharString index="77">
            -11 callgsubr
            -227 -48 callsubr
            return
          </CharString>
          <CharString index="78">
            vhcurveto
            68 -73 callsubr
            return
          </CharString>
          <CharString index="79">
            32 0 vhcurveto
            return
          </CharString>
          <CharString index="80">
            3 -2 rlineto
            return
          </CharString>
          <CharString index="81">
            408 rmoveto
            -76 -408 rlineto
            -75 callgsubr
            return
          </CharString>
          <CharString index="82">
            hlineto
            9 58 -70 14 return
          </CharString>
          <CharString index="83">
            -38 callsubr
            rlineto
            -14 return
          </CharString>
          <CharString index="84">
            -145 -105 -146 -201 -117 60 -60 117 hvcurveto
            32 72 rmoveto
            -55 -21 37 95 87 24 125 22 26 hvcurveto
            5 5 22 5 18 hhcurveto
            56 16 -29 -98 -102 -14 -89 -24 -52 hvcurveto
            -6 -3 -20 -4 -26 hhcurveto
            return
          </CharString>
          <CharString index="85">
            rlinecurve
            8 9 25 6 53 hhcurveto
            67 hlineto
            0 24 26 27 vvcurveto
            38 -21 16 -39 -134 -75 -104 -100 -36 vhcurveto
            return
          </CharString>
          <CharString index="86">
            62 -71 vlineto
            return
          </CharString>
          <CharString index="87">
            180 rlineto
            return
          </CharString>
          <CharString index="88">
            rmoveto
            116 114 rlineto
            19 18 37 41 7 vvcurveto
            10 -30 43 -13 17 vhcurveto
            -86 112 -62 -32 return
          </CharString>
          <CharString index="89">
            51 27 35 18 -75 callsubr
            return
          </CharString>
          <CharString index="90">
            21 18 11 22 26 hvcurveto
            42 40 -26 34 -69 -31 -121 24 rlineto
            4 -23 -30 5 -21 hhcurveto
            -21 -20 -10 -23 -24 hvcurveto
            -42 -40 26 -34 69 31 102 -18 rlineto
            -5 26 44 -10 23 hhcurveto
            return
          </CharString>
          <CharString index="91">
            rmoveto
            97 hlineto
            14 86 rlineto
            54 hlineto
            11 62 rlineto
            -55 hlineto
            29 198 -71 19 -218 -224 11 -55 rlineto
            140 hlineto
            -72 62 rmoveto
            -1 5 101 114 -18 -119 rlineto
            endchar
          </CharString>
          <CharString index="92">
            rmoveto
            56 hlineto
            43 116 rlineto
            8 21 15 41 21 vvcurveto
            17 -11 14 -35 -28 -32 -15 0 vhcurveto
            return
          </CharString>
          <CharString index="93">
            hvcurveto
            80 482 rlineto
            -71 hlineto
            -35 -39 rlineto
            return
          </CharString>
          <CharString index="94">
            551 9 callgsubr
            return
          </CharString>
          <CharString index="95">
            141 -46 42 -116 -114 rlineto
            -19 -18 -37 -41 -7 vvcurveto
            -10 30 -43 13 -17 vhcurveto
            return
          </CharString>
          <CharString index="96">
            -25 -54 hmoveto
            565 78 hlineto
            -162 570 rlineto
            -93 hlineto
            -177 -572 rmoveto
            17 vlineto
            173 377 7 22 rlineto
            5 -22 hlineto
            79 -368 6 -26 rlineto
            endchar
          </CharString>
          <CharString index="97">
            -222 rlineto
            -3 -14 -4 return
          </CharString>
          <CharString index="98">
            vlineto
            62 -5 -9 -77 rlineto
            73 hlineto
            30 148 rlineto
            -144 hlineto
            41 175 rlineto
            -139 -175 -155 hlineto
            -12 -148 rlineto
            75 hlineto
            17 77 61 4 return
          </CharString>
          <CharString index="99">
            -7 callsubr
            endchar
          </CharString>
          <CharString index="100">
            -37 callsubr
            18 -13 17 -11 vhcurveto
            3 -2 2 0 3 -1 rrcurveto
            -3 vlineto
            -63 -84 rlineto
            return
          </CharString>
          <CharString index="101">
            20 22 13 26 22 hvcurveto
            47 55 -27 32 -77 -37 -99 34 rlineto
            7 -21 -20 5 -19 hhcurveto
            -27 -18 -13 -27 -20 hvcurveto
            -47 -54 27 -32 return
          </CharString>
          <CharString index="102">
            42 249 rlineto
            3 19 8 50 24 vvcurveto
            46 -22 37 -70 -51 -55 -32 -44 -58 -29 callsubr
            75 -17 return
          </CharString>
          <CharString index="103">
            504 71 14 8 58 rlineto
            -275 -9 callgsubr
            return
          </CharString>
          <CharString index="104">
            hlineto
            -16 -32 rlineto
            -39 73 vlineto
            endchar
          </CharString>
          <CharString index="105">
            rlineto
            -2 -14 -3 -21 -10 vvcurveto
            return
          </CharString>
          <CharString index="106">
            vvcurveto
            -27 7 -31 66 return
          </CharString>
          <CharString index="107">
            hvcurveto
            -22 37 rlineto
            return
          </CharString>
          <CharString index="108">
            -202 325 695 rmoveto
            -365 -835 85 -37 363 835 rlineto
            endchar
          </CharString>
          <CharString index="109">
            rmoveto
            -34 callgsubr
            return
          </CharString>
          <CharString index="110">
            rcurveline
            121 -67 58 hlineto
            26 196 rlineto
            -60 hlineto
            -22 -64 rlineto
            -114 hlineto
            return
          </CharString>
          <CharString index="111">
            -76 -408 rlineto
            return
          </CharString>
          <CharString index="112">
            -239 42 311 rmoveto
            -14 -81 rlineto
            235 hlineto
            13 81 rlineto
            endchar
          </CharString>
          <CharString index="113">
            60 -29 40 -86 61 return
          </CharString>
          <CharString index="114">
            rmoveto
            33 26 90 80 102 vvcurveto
            36 -24 26 -40 -51 -29 -46 -43 return
          </CharString>
          <CharString index="115">
            rmoveto
            24 -29 rlineto
            0 return
          </CharString>
          <CharString index="116">
            rlineto
            114 hlineto
            return
          </CharString>
          <CharString index="117">
            -19 rlineto
            -58 vlineto
            83 -17 return
          </CharString>
          <CharString index="118">
            613 rmoveto
            -109 -613 rlineto
            130 hlineto
            return
          </CharString>
          <CharString index="119">
            hhcurveto
            21 12 -12 -19 -19 -4 -23 -3 -16 hvcurveto
            return
          </CharString>
          <CharString index="120">
            hlineto
            11 79 rlineto
            return
          </CharString>
        <CharString name=".notdef">
          -407 endchar
        </CharString>
        <CharString name="A">
          -8 -49 58 -107 callsubr
          endchar
        </CharString>
        <CharString name="AE">
          223 -72 58 -54 callsubr
        </CharString>
        <CharString name="AEacute">
          223 420 674 -84 callsubr
          -468 -664 -54 callsubr
        </CharString>
        <CharString name="Aacute">
          -8 236 673 -84 callsubr
          -261 -663 -107 callsubr
          endchar
        </CharString>
        <CharString name="Abreve">
          -8 513 814 -93 callsubr
          -562 -756 -107 callsubr
          endchar
        </CharString>
        <CharString name="Acircumflex">
          -8 174 715 -103 callsubr
          -313 -731 -107 callsubr
          endchar
        </CharString>
        <CharString name="Adieresis">
          -8 210 687 -91 callsubr
          -482 -629 -107 callsubr
          endchar
        </CharString>
        <CharString name="Agrave">
          -8 248 729 -85 callgsubr
          -297 -671 -107 callsubr
          endchar
        </CharString>
        <CharString name="Amacron">
          -8 159 -32 callsubr
          -558 -740 -107 callsubr
          endchar
        </CharString>
        <CharString name="Aogonek">
          -8 442 hmoveto
          103 hlineto
          4 58 -66 14 -116 583 rlineto
          -93 hlineto
          -266 -583 -57 -14 -77 callsubr
          46 103 rlineto
          187 hlineto
          17 -101 rlineto
          -9 vlineto
          -64 -10 -5 -58 rlineto
          103 hlineto
          -41 -24 -41 -38 -54 -37 callgsubr
          -45 callgsubr
          38 30 29 23 17 hvcurveto
          -275 243 rmoveto
          100 221 7 24 rlineto
          4 -24 hlineto
          36 -221 rlineto
          endchar
        </CharString>
        <CharString name="Aring">
          -8 316 663 -51 callgsubr
          -371 -652 -107 callsubr
          endchar
        </CharString>
        <CharString name="Aringacute">
          -8 321 865 -84 callsubr
          36 -250 -51 callgsubr
          -388 -652 -107 callsubr
          endchar
        </CharString>
        <CharString name="Atilde">
          -8 129 727 -90 callgsubr
          -228 -724 -107 callsubr
          endchar
        </CharString>
        <CharString name="B">
          3 -4 58 rmoveto
          -38 callgsubr
          260 hlineto
          131 127 65 141 88 -78 36 -66 10 hvcurveto
          80 21 89 60 93 vvcurveto
          101 -77 33 -125 vhcurveto
          -252 -91 callgsubr
          173 288 rmoveto
          33 216 rlineto
          0 11 3 17 59 30 -24 -51 -75 -35 -49 -115 -20 vhcurveto
          -39 -293 rmoveto
          32 236 rlineto
          84 -4 43 -33 -76 vvcurveto
          -65 -28 -63 -91 -12 -17 2 3 -11 vhcurveto
          endchar
        </CharString>
        <CharString name="C">
          3 436 206 -74 callgsubr
        </CharString>
        <CharString name="Cacute">
          3 278 674 -1 callgsubr
          32 11 13 13 22 vvcurveto
          28 -14 23 -24 14 vhcurveto
          -188 -118 rlineto
          182 -516 rmoveto
          -33 -124 rlineto
          -16 -19 -36 -10 -38 hhcurveto
          -100 -31 47 150 227 56 115 110 45 35 -10 -23 34 hvcurveto
          4 -98 rlineto
          69 hlineto
          28 176 rlineto
          13 -48 -67 7 -72 hhcurveto
          -206 -137 -166 -250 -161 92 -94 159 71 76 13 24 61 hvcurveto
          16 -20 callsubr
          endchar
        </CharString>
        <CharString name="Cacute.loclPLK">
          3 367 -39 callsubr
          -60 -656 -74 callgsubr
        </CharString>
        <CharString name="Ccaron">
          3 215 -27 callgsubr
          182 -633 -74 callgsubr
        </CharString>
        <CharString name="Ccedilla">
          3 212 -56 callsubr
          18 vlineto
          58 4 61 12 53 20 16 180 rcurveline
          -69 hlineto
          -33 -124 rlineto
          -17 -21 -38 -9 -34 hhcurveto
          -96 -35 41 156 239 62 103 104 45 35 -10 -23 34 hvcurveto
          4 -98 rlineto
          69 hlineto
          28 176 rlineto
          13 -50 -67 7 -70 hhcurveto
          -224 -119 -187 -229 -139 69 -107 162 -8 hvcurveto
          -25 -41 -58 callsubr
          endchar
        </CharString>
        <CharString name="Ccircumflex">
          3 255 715 -103 callsubr
          91 -583 -74 callgsubr
        </CharString>
        <CharString name="Cdotaccent">
          3 400 -51 callsubr
          36 -475 -74 callgsubr
        </CharString>
        <CharString name="D">
          -31 callgsubr
          endchar
        </CharString>
        <CharString name="Dcaron">
          95 239 839 rmoveto
          -39 -48 87 -79 rlineto
          -18 19 19 -20 15 hhcurveto
          12 23 20 30 37 hvcurveto
          90 74 -26 39 -124 -59 rlineto
          -356 -720 -71 callsubr
          endchar
        </CharString>
        <CharString name="Dcroat">
          95 -4 -41 callsubr
        </CharString>
        <CharString name="E">
          -24 -4 58 -106 callgsubr
          endchar
        </CharString>
        <CharString name="Eacute">
          -24 249 -66 callgsubr
          -229 -664 -106 callgsubr
          endchar
        </CharString>
        <CharString name="Ebreve">
          -24 501 814 -93 callsubr
          -505 -756 -106 callgsubr
          endchar
        </CharString>
        <CharString name="Ecaron">
          -24 184 -27 callgsubr
          -227 -781 -106 callgsubr
          endchar
        </CharString>
        <CharString name="Ecircumflex">
          -24 183 715 -103 callsubr
          -277 -731 -106 callgsubr
          endchar
        </CharString>
        <CharString name="Edieresis">
          -24 217 687 -91 callsubr
          -444 -629 -106 callgsubr
          endchar
        </CharString>
        <CharString name="Edotaccent">
          -24 327 -51 callsubr
          -331 -623 -106 callgsubr
          endchar
        </CharString>
        <CharString name="Egrave">
          -24 254 729 -85 callgsubr
          -258 -671 -106 callgsubr
          endchar
        </CharString>
        <CharString name="Emacron">
          -24 162 -32 callsubr
          -516 -740 -106 callgsubr
          endchar
        </CharString>
        <CharString name="Eng">
          90 443 648 6 callgsubr
          -52 -363 rlineto
          -16 -4 vlineto
          -2 16 -182 435 rlineto
          -193 -93 callgsubr
          -71 -14 13 callgsubr
          56 391 rlineto
          4 hlineto
          1 -15 178 -426 -9 -52 -8 -19 -7 -13 rlinecurve
          -4 -2 -20 -6 -28 hhcurveto
          -81 hlineto
          -1 -1 -14 -18 -27 vvcurveto
          -38 21 -16 51 123 89 98 117 15 vhcurveto
          73 533 0 callgsubr
          endchar
        </CharString>
        <CharString name="Eogonek">
          -24 505 464 rmoveto
          -28 callgsubr
          -457 -93 callgsubr
          -71 -14 -38 callgsubr
          373 hlineto
          -41 -24 -41 -38 -54 -37 callgsubr
          -45 callgsubr
          38 30 29 23 17 hvcurveto
          29 hlineto
          22 -20 callsubr
          -61 hlineto
          -40 -111 rlineto
          -94 hlineto
          -26 2 -27 3 -26 2 31 225 3 callsubr
          30 206 58 7 rlineto
          108 -115 hlineto
          endchar
        </CharString>
        <CharString name="Eth">
          87 -7 -41 callsubr
        </CharString>
        <CharString name="Euro">
          18 399 660 rmoveto
          -170 -97 -112 -133 -39 hvcurveto
          -52 hlineto
          -32 -77 rlineto
          354 hlineto
          33 77 rlineto
          -171 hlineto
          91 16 39 89 87 hhcurveto
          31 34 -11 -22 27 hvcurveto
          4 -98 rlineto
          69 hlineto
          28 176 rlineto
          14 -48 -73 6 -40 hhcurveto
          -6 -578 rmoveto
          -18 -20 -38 -8 -26 hhcurveto
          -83 -19 79 79 -5 hvcurveto
          107 hlineto
          34 77 rlineto
          -316 hlineto
          -34 -77 rlineto
          70 hlineto
          -133 16 70 -92 140 hhcurveto
          52 78 13 24 60 hvcurveto
          16 -20 callsubr
          -69 hlineto
          endchar
        </CharString>
        <CharString name="Euro.osf">
          -22 69 355 rmoveto
          -32 -77 rlineto
          316 hlineto
          33 77 rlineto
          -150 hlineto
          76 14 48 23 66 hhcurveto
          35 24 -5 -5 16 hvcurveto
          5 -85 rlineto
          62 hlineto
          18 155 rlineto
          8 -29 -40 11 -88 hhcurveto
          -118 -102 -58 -120 -44 hvcurveto
          -86 -124 rmoveto
          -34 -77 rlineto
          92 hlineto
          -129 92 -36 131 82 65 21 14 32 vhcurveto
          14 152 rlineto
          -61 hlineto
          -28 -97 rlineto
          -8 -16 -25 -9 -37 hhcurveto
          -49 -57 10 82 hvcurveto
          81 hlineto
          34 77 rlineto
          endchar
        </CharString>
        <CharString name="F">
          -51 -4 58 rmoveto
          -38 callgsubr
          305 hlineto
          6 54 -97 13 30 211 rlineto
          127 -67 56 hlineto
          29 200 rlineto
          -58 hlineto
          -19 -64 rlineto
          -126 hlineto
          32 225 58 7 rlineto
          112 -115 66 hlineto
          29 184 rlineto
          -461 -91 callgsubr
          endchar
        </CharString>
        <CharString name="G">
          42 401 23 -96 callgsubr
          endchar
        </CharString>
        <CharString name="G_tilde.loclGUA">
          42 198 727 -90 callgsubr
          153 -759 -96 callgsubr
          endchar
        </CharString>
        <CharString name="Gbreve">
          42 551 814 -93 callsubr
          -150 -791 -96 callgsubr
          endchar
        </CharString>
        <CharString name="Gcaron">
          42 387 674 -77 callgsubr
          14 -651 -96 callgsubr
          endchar
        </CharString>
        <CharString name="Gcircumflex">
          42 247 715 -103 callsubr
          64 -766 -96 callgsubr
          endchar
        </CharString>
        <CharString name="Gcommaaccent">
          42 401 23 -96 callgsubr
          -180 -209 rmoveto
          24 -29 rlineto
          -80 callgsubr
        </CharString>
        <CharString name="Gdotaccent">
          42 392 -51 callsubr
          9 -658 -96 callgsubr
          endchar
        </CharString>
        <CharString name="H">
          121 -5 58 -62 callgsubr
          endchar
        </CharString>
        <CharString name="Hbar">
          121 682 590 rmoveto
          8 58 rlineto
          -275 -9 callgsubr
          -12 -82 rlineto
          -206 hlineto
          12 82 71 14 8 58 rlineto
          -275 -9 callgsubr
          -12 -82 rlineto
          -68 hlineto
          -10 -67 rlineto
          69 hlineto
          -50 -355 -71 -14 -34 callgsubr
          27 193 rlineto
          206 hlineto
          -28 -193 -71 -14 -34 callgsubr
          51 355 rlineto
          69 hlineto
          10 67 rlineto
          -70 hlineto
          12 82 rlineto
          -169 -244 rmoveto
          -205 hlineto
          13 95 rlineto
          206 hlineto
          endchar
        </CharString>
        <CharString name="Hcircumflex">
          121 247 715 -103 callsubr
          -342 -731 -62 callgsubr
          endchar
        </CharString>
        <CharString name="I">
          -218 -4 58 -89 callsubr
          endchar
        </CharString>
        <CharString name="IJ">
          203 -4 58 -89 callsubr
          270 121 -73 callgsubr
        </CharString>
        <CharString name="Iacute">
          -218 149 -66 callgsubr
          -129 -664 -89 callsubr
          endchar
        </CharString>
        <CharString name="Iacute_J.loclNLD">
          203 190 674 -84 callsubr
          470 -48 -84 callsubr
          -616 -664 -89 callsubr
          270 121 -73 callgsubr
        </CharString>
        <CharString name="Ibreve">
          -218 395 814 -93 callsubr
          -399 -756 -89 callsubr
          endchar
        </CharString>
        <CharString name="Icircumflex">
          -218 81 715 -103 callsubr
          -175 -731 -89 callsubr
          endchar
        </CharString>
        <CharString name="Idieresis">
          -218 110 687 -91 callsubr
          -337 -629 -89 callsubr
          endchar
        </CharString>
        <CharString name="Idotaccent">
          -218 229 -51 callsubr
          -233 -623 -89 callsubr
          endchar
        </CharString>
        <CharString name="Igrave">
          -218 153 729 -85 callgsubr
          -157 -671 -89 callsubr
          endchar
        </CharString>
        <CharString name="Imacron">
          -218 62 798 -35 callsubr
          -396 -740 -89 callsubr
          endchar
        </CharString>
        <CharString name="Iogonek">
          -218 -4 58 rmoveto
          -38 callgsubr
          127 hlineto
          -41 -24 -41 -38 -54 -37 callgsubr
          -45 callgsubr
          38 30 29 23 17 hvcurveto
          82 -83 callsubr
          endchar
        </CharString>
        <CharString name="Itilde">
          -218 29 727 -90 callgsubr
          -83 -724 -89 callsubr
          endchar
        </CharString>
        <CharString name="J">
          -131 3 193 -73 callgsubr
        </CharString>
        <CharString name="Jcircumflex">
          -131 190 715 -103 callsubr
          -277 -596 -73 callgsubr
        </CharString>
        <CharString name="K">
          -45 callsubr
          endchar
        </CharString>
        <CharString name="Kcommaaccent">
          -45 callsubr
          143 -258 rmoveto
          24 -29 rlineto
          -80 callgsubr
        </CharString>
        <CharString name="L">
          -98 -4 58 -15 callgsubr
        </CharString>
        <CharString name="Lacute">
          -98 150 -66 callgsubr
          -130 -664 -15 callgsubr
        </CharString>
        <CharString name="Lcaron">
          -98 397 -63 callsubr
          -401 -514 -15 callgsubr
        </CharString>
        <CharString name="Lcommaaccent">
          -98 -4 58 -67 callgsubr
          67 -258 rmoveto
          24 -29 rlineto
          -80 callgsubr
        </CharString>
        <CharString name="Ldot">
          -98 -4 58 -67 callgsubr
          305 238 -55 callsubr
          endchar
        </CharString>
        <CharString name="Lslash">
          -99 -4 58 rmoveto
          -38 callgsubr
          441 hlineto
          21 -20 callsubr
          -29 callgsubr
          33 235 114 45 rlineto
          72 vlineto
          -104 -42 28 194 71 14 8 58 rlineto
          -275 -9 callgsubr
          -35 -251 -85 -34 rlineto
          -69 vlineto
          74 29 -25 -179 rlineto
          endchar
        </CharString>
        <CharString name="M">
          224 -2 58 rmoveto
          13 callgsubr
          51 361 rlineto
          27 4 vlineto
          73 -460 rlineto
          73 hlineto
          205 464 rlineto
          5 hlineto
          -8 -32 -53 -360 -71 -14 -38 callgsubr
          275 -25 callsubr
          71 504 0 callgsubr
          -229 hlineto
          -187 -418 -4 -22 rlineto
          -4 22 hlineto
          -63 418 rlineto
          -224 -91 callgsubr
          endchar
        </CharString>
        <CharString name="N">
          90 -36 callsubr
          endchar
        </CharString>
        <CharString name="Nacute">
          90 305 -66 callgsubr
          -288 -664 -92 callgsubr
          endchar
        </CharString>
        <CharString name="Nacute.loclPLK">
          90 353 -39 callsubr
          -489 -804 -92 callgsubr
          endchar
        </CharString>
        <CharString name="Ncaron">
          90 236 -27 callgsubr
          -282 -781 -92 callgsubr
          endchar
        </CharString>
        <CharString name="Ncommaaccent">
          90 -36 callsubr
          141 -258 rmoveto
          24 -29 rlineto
          -80 callgsubr
        </CharString>
        <CharString name="Ntilde">
          90 197 727 -90 callgsubr
          -254 -724 -92 callgsubr
          endchar
        </CharString>
        <CharString name="O">
          103 283 -11 -104 callgsubr
          endchar
        </CharString>
        <CharString name="OE">
          251 260 hmoveto
          480 hlineto
          22 -20 callsubr
          -61 hlineto
          -40 -111 rlineto
          -94 hlineto
          -26 2 -27 3 -26 2 31 225 rcurveline
          120 -67 59 hlineto
          26 196 rlineto
          -60 hlineto
          -22 -64 rlineto
          -114 hlineto
          30 206 58 7 rlineto
          108 -115 66 hlineto
          -28 callgsubr
          -461 hlineto
          -196 -141 -163 -238 -174 103 -73 137 hvcurveto
          33 66 rmoveto
          -114 -10 116 57 256 70 88 105 32 26 -3 -4 21 hvcurveto
          -71 -504 rlineto
          -3 -19 -20 -3 -20 hhcurveto
          endchar
        </CharString>
        <CharString name="Oacute">
          103 268 722 rmoveto
          24 -48 157 55 rlineto
          39 13 6 15 18 vvcurveto
          37 -22 19 -16 9 vhcurveto
          -173 -851 -104 callgsubr
          endchar
        </CharString>
        <CharString name="Oacute.loclPLK">
          103 338 -39 callsubr
          -184 -873 -104 callgsubr
          endchar
        </CharString>
        <CharString name="Obreve">
          103 543 814 -93 callsubr
          -260 -825 -104 callgsubr
          endchar
        </CharString>
        <CharString name="Ocircumflex">
          103 222 715 -103 callsubr
          -29 -800 -104 callgsubr
          endchar
        </CharString>
        <CharString name="Odieresis">
          103 255 687 -91 callsubr
          -195 -698 -104 callgsubr
          endchar
        </CharString>
        <CharString name="Ograve">
          103 296 729 -85 callgsubr
          -13 -740 -104 callgsubr
          endchar
        </CharString>
        <CharString name="Ohorn">
          103 794 668 -87 callsubr
        </CharString>
        <CharString name="Ohungarumlaut">
          103 234 662 -46 callsubr
          227 -34 -46 callsubr
          -102 -707 -104 callgsubr
          endchar
        </CharString>
        <CharString name="Omacron">
          103 200 -32 callsubr
          -267 -809 -104 callgsubr
          endchar
        </CharString>
        <CharString name="Oslash">
          103 166 -97 -50 callsubr
        </CharString>
        <CharString name="Oslashacute">
          103 254 674 -84 callsubr
          -64 -819 -50 callsubr
        </CharString>
        <CharString name="Otilde">
          103 174 727 -90 callgsubr
          59 -793 -104 callgsubr
          endchar
        </CharString>
        <CharString name="P">
          -33 -13 hmoveto
          298 hlineto
          7 58 -90 14 71 504 rlineto
          2 9 12 1 8 hhcurveto
          62 32 -24 -70 -93 -33 -68 -106 -14 hvcurveto
          -50 11 vlineto
          212 4 59 118 100 vvcurveto
          120 -76 46 -139 vhcurveto
          -248 -34 callsubr
          endchar
        </CharString>
        <CharString name="Q">
          103 152 -112 rmoveto
          36 -46 55 25 182 -41 rlineto
          -6 27 25 -7 17 hhcurveto
          26 18 12 16 12 hvcurveto
          52 68 -27 28 -58 -31 -181 42 -17 4 -18 4 -15 2 rlinecurve
          31 32 rlineto
          202 16 106 161 235 vvcurveto
          127 -69 131 -194 -180 -152 -140 -273 -162 100 -84 125 -11 vhcurveto
          48 65 -57 callsubr
        </CharString>
        <CharString name="R">
          -10 -13 -46 callgsubr
          endchar
        </CharString>
        <CharString name="Racute">
          -16 248 -66 callgsubr
          -240 -722 rmoveto
          -97 callgsubr
          endchar
        </CharString>
        <CharString name="Rcaron">
          -16 310 674 -77 callgsubr
          -326 -674 rmoveto
          -97 callgsubr
          endchar
        </CharString>
        <CharString name="Rcommaaccent">
          -16 -16 -46 callgsubr
          -38 -550 rmoveto
          -80 callgsubr
        </CharString>
        <CharString name="S">
          -107 184 -11 -84 callgsubr
          endchar
        </CharString>
        <CharString name="Sacute">
          -107 212 -66 callgsubr
          -4 -733 rmoveto
          132 96 80 128 86 -72 62 -71 62 hvcurveto
          -60 callsubr
          rlineto
          -14 21 71 -30 97 hhcurveto
          endchar
        </CharString>
        <CharString name="Sacute.loclPLK">
          -107 255 -39 callsubr
          -200 -873 -84 callgsubr
          endchar
        </CharString>
        <CharString name="Scaron">
          -107 276 674 -77 callgsubr
          -92 -685 -84 callgsubr
          endchar
        </CharString>
        <CharString name="Scedilla">
          -107 185 -194 rmoveto
          53 47 26 56 34 -24 17 -28 15 hvcurveto
          -34 18 rlineto
          18 vlineto
          124 6 89 78 123 vvcurveto
          87 -72 61 -71 62 vhcurveto
          -60 callsubr
          18 -12 54 -23 77 -7 rlinecurve
          -26 -42 -58 callsubr
          -26 -47 rlineto
          -18 28 35 -9 54 hhcurveto
          endchar
        </CharString>
        <CharString name="Scircumflex">
          -107 143 715 -103 callsubr
          -49 -800 -84 callgsubr
          endchar
        </CharString>
        <CharString name="Scommaaccent">
          -107 184 -11 rmoveto
          132 96 80 128 86 -72 62 -71 62 hvcurveto
          -60 callsubr
          rlineto
          -14 21 71 -30 97 hhcurveto
          -57 -204 rmoveto
          -80 callgsubr
        </CharString>
        <CharString name="T">
          -42 91 58 rmoveto
          -8 -58 rlineto
          275 hlineto
          -59 callgsubr
          rlineto
          endchar
        </CharString>
        <CharString name="Tbar">
          -42 533 464 rmoveto
          -28 callgsubr
          -515 hlineto
          -20 -184 rlineto
          66 hlineto
          37 115 rlineto
          105 hlineto
          -30 -213 rlineto
          -167 hlineto
          -10 -67 rlineto
          167 hlineto
          -32 -227 -71 -14 -34 callgsubr
          31 227 rlineto
          170 hlineto
          10 67 rlineto
          -170 hlineto
          29 213 rlineto
          101 -115 hlineto
          endchar
        </CharString>
        <CharString name="Tcaron">
          -42 308 674 -77 callgsubr
          -229 -674 rmoveto
          275 hlineto
          -59 callgsubr
          -71 -14 rlineto
          endchar
        </CharString>
        <CharString name="Thorn">
          -35 -15 hmoveto
          275 -25 callsubr
          10 72 rlineto
          30 hlineto
          221 56 105 126 96 -77 46 -139 hvcurveto
          -39 hlineto
          9 59 71 14 8 58 rlineto
          -275 -34 callsubr
          245 145 rmoveto
          -5 -8 1 1 -9 hvcurveto
          34 241 rlineto
          1 12 11 1 10 hhcurveto
          62 27 -24 -70 -93 -26 -58 -108 hvcurveto
          endchar
        </CharString>
        <CharString name="U">
          88 118 576 -105 callsubr
          endchar
        </CharString>
        <CharString name="Uacute">
          88 322 -66 callgsubr
          -18 -733 -64 callgsubr
        </CharString>
        <CharString name="Ubreve">
          88 557 814 -93 callsubr
          -439 -238 -105 callsubr
          endchar
        </CharString>
        <CharString name="Ucircumflex">
          88 245 715 -103 callsubr
          -217 -213 -105 callsubr
          endchar
        </CharString>
        <CharString name="Udieresis">
          88 281 687 -91 callsubr
          -386 -111 -105 callsubr
          endchar
        </CharString>
        <CharString name="Ugrave">
          88 326 729 -85 callgsubr
          -208 -153 -105 callsubr
          endchar
        </CharString>
        <CharString name="Uhorn">
          88 737 718 -95 callsubr
          endchar
        </CharString>
        <CharString name="Uhungarumlaut">
          88 264 662 -46 callsubr
          227 -34 -46 callsubr
          -135 -707 -64 callgsubr
        </CharString>
        <CharString name="Umacron">
          88 219 -32 callsubr
          -451 -222 -105 callsubr
          endchar
        </CharString>
        <CharString name="Uogonek">
          88 332 -187 rmoveto
          66 43 53 0 hvcurveto
          -45 callgsubr
          39 32 30 23 17 hvcurveto
          102 30 44 84 22 162 41 298 rcurveline
          71 14 7 58 rlineto
          -227 -76 callsubr
          11 9 4 1 3 vhcurveto
          1 -3 rlineto
          -35 -24 -34 -36 -47 vvcurveto
          -49 41 -22 56 vhcurveto
          endchar
        </CharString>
        <CharString name="Uring">
          88 389 663 -51 callgsubr
          -115 -721 -64 callgsubr
        </CharString>
        <CharString name="Utilde">
          88 191 727 -90 callgsubr
          -123 -206 -105 callsubr
          endchar
        </CharString>
        <CharString name="V">
          -22 181 -9 rmoveto
          90 hlineto
          265 585 57 14 8 58 rlineto
          -219 hlineto
          -7 -58 77 -11 rlineto
          -6 vlineto
          -166 -377 -7 -27 rlineto
          -4 27 hlineto
          -62 376 rlineto
          8 vlineto
          64 10 5 58 rlineto
          -272 hlineto
          -4 -58 66 -14 rlineto
          endchar
        </CharString>
        <CharString name="W">
          300 148 -8 -86 callsubr
        </CharString>
        <CharString name="Wacute">
          300 458 674 -84 callsubr
          -286 -730 -86 callsubr
        </CharString>
        <CharString name="Wcircumflex">
          300 346 715 -103 callsubr
          -288 -797 -86 callsubr
        </CharString>
        <CharString name="Wdieresis">
          300 380 687 -91 callsubr
          -455 -695 -86 callsubr
        </CharString>
        <CharString name="Wgrave">
          300 379 729 -85 callgsubr
          -231 -737 -86 callsubr
        </CharString>
        <CharString name="X">
          18 -48 50 rmoveto
          -7 -50 rlineto
          237 hlineto
          6 50 -46 14 rlineto
          18 vlineto
          119 156 70 -153 rlineto
          -19 vlineto
          -60 -16 -4 -50 rlineto
          265 hlineto
          4 50 -59 17 -122 276 184 236 61 15 6 54 rlineto
          -211 hlineto
          -8 -53 46 -11 rlineto
          -18 vlineto
          -112 -146 -62 142 rlineto
          22 vlineto
          61 14 6 50 rlineto
          -272 hlineto
          -6 -50 53 -10 123 -271 -193 -248 rlineto
          endchar
        </CharString>
        <CharString name="Y">
          -52 91 50 rmoveto
          -6 -50 rlineto
          -94 callgsubr
          rlineto
          endchar
        </CharString>
        <CharString name="Y.loclGUA">
          79 396 648 -101 callsubr
        </CharString>
        <CharString name="Yacute">
          -52 236 -66 callgsubr
          -127 -722 rmoveto
          -94 callgsubr
          -71 -14 rlineto
          endchar
        </CharString>
        <CharString name="Yacute.loclGUA">
          79 352 674 -84 callsubr
          68 -74 -101 callsubr
        </CharString>
        <CharString name="Ycircumflex">
          -52 177 715 -103 callsubr
          -176 -739 rmoveto
          -6 -50 rlineto
          -94 callgsubr
          rlineto
          endchar
        </CharString>
        <CharString name="Ycircumflex.loclGUA">
          79 240 715 -103 callsubr
          66 -141 -101 callsubr
        </CharString>
        <CharString name="Ydieresis">
          -52 197 687 -91 callsubr
          -329 -637 rmoveto
          -6 -50 rlineto
          -94 callgsubr
          rlineto
          endchar
        </CharString>
        <CharString name="Ydieresis.loclGUA">
          79 274 687 -91 callsubr
          -101 -39 -101 callsubr
        </CharString>
        <CharString name="Ygrave">
          -52 210 729 -85 callgsubr
          -119 -679 rmoveto
          -6 -50 rlineto
          -94 callgsubr
          rlineto
          endchar
        </CharString>
        <CharString name="Ygrave.loclGUA">
          79 273 729 -85 callgsubr
          123 -81 -101 callsubr
        </CharString>
        <CharString name="Z">
          -22 -8 69 rmoveto
          28 -69 rlineto
          -78 callsubr
          rlineto
          endchar
        </CharString>
        <CharString name="Zacute">
          -22 223 -66 callgsubr
          -179 -722 rmoveto
          -78 callsubr
          -378 -496 rlineto
          endchar
        </CharString>
        <CharString name="Zacute.loclPLK">
          -22 297 -39 callsubr
          -434 -793 rmoveto
          28 -69 rlineto
          -78 callsubr
          rlineto
          endchar
        </CharString>
        <CharString name="Zcaron">
          -22 292 674 -77 callgsubr
          -272 -674 rmoveto
          -78 callsubr
          -378 -496 rlineto
          endchar
        </CharString>
        <CharString name="Zdotaccent">
          -22 298 -51 callsubr
          -306 -612 rmoveto
          28 -69 rlineto
          -78 callsubr
          rlineto
          endchar
        </CharString>
        <CharString name="a">
          -30 293 104 -107 callgsubr
          endchar
        </CharString>
        <CharString name="aacute">
          -23 271 -13 callsubr
          30 16 56 29 -75 callsubr
          rlineto
          -97 -602 -92 callsubr
        </CharString>
        <CharString name="abreve">
          -26 290 559 -99 callgsubr
          -148 -570 -92 callsubr
        </CharString>
        <CharString name="acircumflex">
          -26 400 553 -103 callgsubr
          -157 -633 -92 callsubr
        </CharString>
        <CharString name="acute">
          -350 81 -13 callsubr
          -18 callsubr
          rlineto
          endchar
        </CharString>
        <CharString name="acutecomb">
          -121 -13 callsubr
          -18 callsubr
          rlineto
          endchar
        </CharString>
        <CharString name="acutecomb.case">
          -130 674 -84 callsubr
          endchar
        </CharString>
        <CharString name="adieresis">
          -26 211 576 -94 callsubr
          -273 -587 -92 callsubr
        </CharString>
        <CharString name="ae">
          120 509 71 -60 callgsubr
        </CharString>
        <CharString name="aeacute">
          120 480 -33 callsubr
          122 -480 -60 callgsubr
        </CharString>
        <CharString name="agrave">
          -26 285 600 -68 callsubr
          56 -29 30 -16 vhcurveto
          8 -496 -107 callgsubr
          endchar
        </CharString>
        <CharString name="amacron">
          -26 147 689 -35 callsubr
          -184 -585 -107 callgsubr
          endchar
        </CharString>
        <CharString name="ampersand">
          68 644 449 rmoveto
          -84 -39 -84 22 -13 3 -14 6 -15 3 rlinecurve
          13 21 6 26 30 vvcurveto
          82 -61 47 -106 -112 -86 -78 -103 -47 11 -25 49 -67 vhcurveto
          -81 -39 -54 -80 -79 vvcurveto
          -94 69 -49 131 66 60 17 33 48 vhcurveto
          45 -54 7 -103 rlineto
          66 hlineto
          14 98 rlineto
          4 43 2 12 3 -2 -1 -4 6 vvcurveto
          20 -9 19 -19 26 vhcurveto
          -22 26 35 57 18 64 1 67 rlinecurve
          6 vlineto
          -1 5 5 -1 7 hhcurveto
          32 23 11 25 21 hvcurveto
          49 56 rlineto
          -393 174 rmoveto
          51 23 -24 -51 -55 -7 -17 -65 -72 hvcurveto
          -38 46 rlineto
          -27 34 -15 34 30 vvcurveto
          48 28 27 50 vhcurveto
          145 -394 rmoveto
          -113 138 73 33 52 -16 rlineto
          2 -33 0 -10 -12 vvcurveto
          -36 -5 -34 -9 -30 vhcurveto
          -186 -138 rmoveto
          -66 -35 39 74 44 18 46 29 31 hvcurveto
          165 -201 rlineto
          -21 -32 -39 -12 -40 hhcurveto
          endchar
        </CharString>
        <CharString name="aogonek">
          -34 474 -99 rmoveto
          -11 -18 -19 -8 -15 hhcurveto
          -23 -14 8 26 52 61 38 15 8 hvcurveto
          13 6 9 6 0 vvcurveto
          -21 callsubr
          69 429 rlineto
          -76 hlineto
          -36 -38 rlineto
          16 -31 -45 18 -48 hhcurveto
          -138 -82 -25 callgsubr
          -113 44 -48 73 -49 callgsubr
          -27 callsubr
          -14 -20 -6 -18 -19 vvcurveto
          -33 26 -18 51 vhcurveto
          11 hlineto
          -37 -24 -35 -36 -50 -37 callgsubr
          -200 310 rmoveto
          -37 -28 -47 -51 -40 hhcurveto
          -18 -9 40 43 105 18 94 27 60 hvcurveto
          2 1 9 1 11 hhcurveto
          32 38 -23 -40 39 hvcurveto
          endchar
        </CharString>
        <CharString name="approxequal">
          -43 362 283 rmoveto
          -17 callsubr
          -148 vmoveto
          -17 callsubr
          endchar
        </CharString>
        <CharString name="aring">
          -34 300 557 -62 callsubr
          -164 -617 -92 callsubr
        </CharString>
        <CharString name="aringacute">
          -30 308 798 9 callgsubr
          -18 callsubr
          rlineto
          32 -281 -62 callsubr
          -21 -502 -107 callgsubr
          endchar
        </CharString>
        <CharString name="asciicircum">
          -22 283 649 rmoveto
          -238 -387 rlineto
          93 hlineto
          163 262 94 -262 rlineto
          93 hlineto
          -143 387 rlineto
          endchar
        </CharString>
        <CharString name="asciitilde">
          -116 15 252 -90 callgsubr
          endchar
        </CharString>
        <CharString name="asterisk">
          -168 163 346 rmoveto
          34 9 47 25 5 hvcurveto
          11 61 96 -92 rlineto
          37 24 14 17 18 vvcurveto
          34 -31 10 -25 13 vhcurveto
          -55 29 119 63 rlineto
          50 -16 -13 18 -23 hhcurveto
          -20 -17 -16 -13 -14 hvcurveto
          -54 -51 -20 133 rlineto
          -27 hlineto
          -46 -11 -20 -21 -17 10 -19 8 -18 hvcurveto
          27 -58 -132 21 rlineto
          -11 -26 -4 -17 -12 vvcurveto
          -33 28 -7 19 9 19 2 1 8 vhcurveto
          64 7 -58 -121 rlineto
          -21 27 18 -11 15 hhcurveto
          49 164 rmoveto
          -25 7 rlineto
          27 vlineto
          23 9 16 -22 rlineto
          endchar
        </CharString>
        <CharString name="at">
          210 381 -112 rmoveto
          70 145 45 22 hvcurveto
          -23 48 rlineto
          -24 -56 -53 -11 -65 hhcurveto
          -167 -96 84 146 235 101 119 199 120 86 -85 -117 -157 -27 -70 -61 -21 -14 15 22 9 1 14 2 7 hvcurveto
          45 270 rlineto
          -61 hlineto
          -8 -6 -9 -9 -10 -9 rrcurveto
          8 -21 -32 6 -27 hhcurveto
          -102 -90 -118 -132 -90 37 -50 66 39 43 21 36 33 hvcurveto
          -44 15 47 -27 62 hhcurveto
          123 83 125 186 166 -121 107 -189 -251 -175 -185 -265 -188 128 -104 234 hvcurveto
          -25 260 rmoveto
          -32 -10 16 48 80 9 48 19 19 hvcurveto
          7 7 8 3 9 hhcurveto
          28 31 -8 -12 17 hvcurveto
          -24 -181 rlineto
          -12 -16 -25 -8 -21 hhcurveto
          endchar
        </CharString>
        <CharString name="atilde">
          -26 383 576 rmoveto
          20 22 -87 callgsubr
          -241 -587 -92 callsubr
        </CharString>
        <CharString name="b">
          -57 122 610 rmoveto
          -97 -571 119 -37 rlineto
          0 40 -13 61 159 66 249 121 117 -54 37 -64 -60 -51 -45 -50 -40 vhcurveto
          -2 3 2 4 12 11 2 14 rlinecurve
          26 162 rlineto
          95 vlineto
          -194 -19 rlineto
          -61 vlineto
          114 -513 rmoveto
          39 253 rlineto
          26 29 39 30 30 hhcurveto
          26 20 -5 -99 -109 -19 -90 -23 -48 hvcurveto
          -2 -1 -6 -1 -15 hhcurveto
          -64 -27 21 24 -28 hvcurveto
          endchar
        </CharString>
        <CharString name="backslash">
          -202 300 -166 rmoveto
          83 37 -360 824 -81 -37 rlineto
          endchar
        </CharString>
        <CharString name="bar">
          -191 135 699 rmoveto
          -855 90 855 vlineto
          endchar
        </CharString>
        <CharString name="braceleft">
          -302 142 -155 rmoveto
          29 59 rlineto
          -38 22 -10 20 29 vvcurveto
          10 1 11 2 12 vhcurveto
          38 204 rlineto
          1 5 1 9 4 vvcurveto
          25 -10 16 -12 10 vhcurveto
          17 12 19 19 3 33 16 199 rcurveline
          4 48 12 27 59 29 -14 55 rcurveline
          -98 -16 -72 -60 -94 vvcurveto
          -205 vlineto
          -20 -9 -30 -12 -16 -6 rrcurveto
          -49 vlineto
          14 -6 20 -9 17 -9 -56 -209 rcurveline
          -3 -12 -3 -20 -11 vvcurveto
          -67 56 -53 73 -11 vhcurveto
          endchar
        </CharString>
        <CharString name="braceright">
          -302 -8 -155 rmoveto
          98 16 72 60 94 vvcurveto
          205 vlineto
          20 9 30 12 16 6 rrcurveto
          49 vlineto
          -14 6 -20 9 -17 9 56 209 rcurveline
          3 12 3 20 11 vvcurveto
          67 -56 53 -73 11 vhcurveto
          -29 -59 rlineto
          38 -22 10 -20 -29 vvcurveto
          -10 -1 -11 -2 -12 vhcurveto
          -38 -204 rlineto
          -1 -5 -1 -9 -4 vvcurveto
          -25 10 -16 12 -10 vhcurveto
          -17 -12 -19 -19 -3 -33 -16 -199 rcurveline
          -4 -48 -12 -27 -59 -29 rrcurveto
          endchar
        </CharString>
        <CharString name="bracketleft">
          -296 126 704 rmoveto
          -120 -855 rlineto
          206 hlineto
          9 64 -103 21 96 684 109 21 9 65 rlineto
          endchar
        </CharString>
        <CharString name="bracketright">
          -296 -59 -86 rmoveto
          -9 -65 rlineto
          206 hlineto
          120 855 rlineto
          -206 hlineto
          -9 -64 103 -21 -96 -684 rlineto
          endchar
        </CharString>
        <CharString name="breve">
          -222 198 559 -55 callgsubr
        </CharString>
        <CharString name="brokenbar">
          -191 135 699 rmoveto
          -365 90 365 vlineto
          -90 -490 rmoveto
          -365 90 365 vlineto
          endchar
        </CharString>
        <CharString name="bullet">
          -139 90 305 rmoveto
          -63 50 -50 63 63 51 50 63 63 -51 51 -63 -63 -50 -51 -63 vhcurveto
          endchar
        </CharString>
        <CharString name="c">
          -141 376 71 rmoveto
          -79 callsubr
          -111 41 -51 101 153 56 82 0 vhcurveto
          endchar
        </CharString>
        <CharString name="cacute">
          -141 202 -13 callsubr
          30 16 56 29 -75 callsubr
          rlineto
          -3 -602 rmoveto
          153 56 82 0 hvcurveto
          -79 callsubr
          -111 41 -51 101 vhcurveto
          endchar
        </CharString>
        <CharString name="cacute.loclPLK">
          -141 281 -47 callsubr
          136 -497 rmoveto
          -79 callsubr
          -111 41 -51 101 153 56 82 0 vhcurveto
          endchar
        </CharString>
        <CharString name="caron">
          -257 63 703 -81 callgsubr
          endchar
        </CharString>
        <CharString name="ccaron">
          -141 134 703 -81 callgsubr
          202 -667 rmoveto
          -79 callsubr
          -111 41 -51 101 153 56 82 0 vhcurveto
          endchar
        </CharString>
        <CharString name="ccedilla">
          -141 97 -56 callsubr
          19 vlineto
          126 11 48 69 0 vvcurveto
          -79 callsubr
          -103 35 -51 86 -7 vhcurveto
          -25 -41 -58 callsubr
          endchar
        </CharString>
        <CharString name="ccircumflex">
          -141 390 553 -103 callgsubr
          87 -551 rmoveto
          -79 callsubr
          -111 41 -51 101 153 56 82 0 vhcurveto
          endchar
        </CharString>
        <CharString name="cdotaccent">
          -141 284 -65 callsubr
          92 -495 rmoveto
          -79 callsubr
          -111 41 -51 101 153 56 82 0 vhcurveto
          endchar
        </CharString>
        <CharString name="cedilla">
          -335 -29 -56 callsubr
          28 -49 vlineto
          -32 -51 -58 callsubr
          endchar
        </CharString>
        <CharString name="cent">
          -132 154 51 -44 callgsubr
        </CharString>
        <CharString name="cent.osf">
          -132 146 -10 -44 callgsubr
        </CharString>
        <CharString name="circumflex">
          -258 303 553 -103 callgsubr
          endchar
        </CharString>
        <CharString name="colon">
          -376 106 300 -55 callsubr
          -42 -311 -55 callsubr
          endchar
        </CharString>
        <CharString name="comma">
          -386 3 -129 7 callsubr
          -34 20 -13 16 -5 vhcurveto
          -1 4 3 -1 2 hhcurveto
          3 2 1 1 1 hvcurveto
          1 -1 -64 -107 rlineto
          endchar
        </CharString>
        <CharString name="copyright">
          116 8 325 rmoveto
          -181 146 -146 182 181 146 146 181 182 -146 146 -181 -182 -146 -146 -182 vhcurveto
          326 -263 rmoveto
          -146 -107 117 145 145 107 117 146 145 111 -117 -145 -145 -111 -117 -145 hvcurveto
          78 225 rmoveto
          -12 -60 rlineto
          -6 -9 -16 -5 -20 hhcurveto
          -61 -30 19 88 83 21 28 69 19 16 -5 -4 10 hvcurveto
          11 -52 rlineto
          45 110 hlineto
          5 -22 -48 8 -52 hhcurveto
          -101 -70 -74 -100 -106 53 -61 107 70 42 14 8 23 hvcurveto
          110 vlineto
          endchar
        </CharString>
        <CharString name="currency">
          -22 82 188 rmoveto
          -79 -86 61 -60 86 80 rlineto
          -20 32 38 -11 42 hhcurveto
          43 40 12 22 34 hvcurveto
          90 -84 61 60 -85 90 rlineto
          19 32 14 40 42 vvcurveto
          41 -13 38 -19 32 vhcurveto
          84 89 -61 60 -89 -82 rlineto
          21 -33 -43 15 -42 hhcurveto
          -42 -39 -11 -20 -32 hvcurveto
          -84 78 -61 -60 78 -84 rlineto
          -22 -33 -12 -41 -43 vvcurveto
          -44 12 -40 22 -33 vhcurveto
          78 117 rmoveto
          56 47 49 55 56 48 -48 -56 -55 -48 -46 -56 -55 -47 46 54 vhcurveto
          endchar
        </CharString>
        <CharString name="d">
          -36 299 105 -72 callsubr
          38 263 -59 callsubr
          endchar
        </CharString>
        <CharString name="dagger">
          -146 104 -109 rmoveto
          83 hlineto
          85 418 rlineto
          119 -9 callsubr
          -33 -120 rlineto
          endchar
        </CharString>
        <CharString name="daggerdbl">
          -118 92 -111 rmoveto
          139 175 155 hlineto
          12 148 rlineto
          -75 hlineto
          -17 -77 -61 -4 40 150 rlineto
          147 -9 callsubr
          -40 -148 rlineto
          -149 vlineto
          -62 5 9 77 rlineto
          -73 hlineto
          -30 -148 rlineto
          144 hlineto
          endchar
        </CharString>
        <CharString name="dcaron">
          -31 523 -63 callsubr
          -224 -467 -72 callsubr
          38 263 -59 callsubr
          endchar
        </CharString>
        <CharString name="dcroat">
          -31 144 -11 rmoveto
          72 49 54 62 34 hvcurveto
          4 -2 rlineto
          -9 -18 -10 -21 -20 vvcurveto
          -40 19 -10 56 71 54 33 0 vhcurveto
          61 -70 vlineto
          72 454 rlineto
          40 77 -31 hlineto
          3 18 9 70 -177 -16 rlineto
          -34 vlineto
          58 -15 -4 -23 rlineto
          -188 -77 174 hlineto
          -13 -67 rlineto
          10 -27 -36 10 -38 hhcurveto
          -152 -79 -216 -129 -97 46 -64 73 hvcurveto
          37 99 rmoveto
          -18 -9 28 55 146 34 72 14 23 hvcurveto
          2 1 12 1 2 hhcurveto
          45 40 -24 -34 33 hvcurveto
          -33 -179 rlineto
          -33 -25 -51 -57 -45 hhcurveto
          endchar
        </CharString>
        <CharString name="degree">
          -252 141 491 rmoveto
          68 56 54 69 60 -45 47 -62 -67 -56 -56 -68 -61 43 -45 63 hvcurveto
          4 74 rmoveto
          -19 -15 17 18 23 18 20 26 18 15 -15 -18 -24 -16 -21 -27 hvcurveto
          endchar
        </CharString>
        <CharString name="dieresis">
          -206 121 576 -94 callsubr
          endchar
        </CharString>
        <CharString name="divide">
          -52 275 361 -102 callgsubr
          -228 -132 rmoveto
          400 13 callsubr
          -400 hlineto
          166 -295 -102 callgsubr
          endchar
        </CharString>
        <CharString name="dollar">
          -72 253 580 rmoveto
          42 46 -11 -17 24 hvcurveto
          10 -108 rlineto
          68 hlineto
          18 180 -28 9 -43 7 -48 3 rlinecurve
          7 108 -78 9 -19 -117 rlineto
          -112 -11 -71 -67 -98 vvcurveto
          -69 21 -29 128 -110 vhcurveto
          82 -67 13 -19 -52 vvcurveto
          -37 -34 -28 -45 -48 -51 15 21 -22 -38 callsubr
          32 -20 64 -17 59 -5 rlinecurve
          -7 -119 75 -8 21 130 rlineto
          104 19 67 76 104 vvcurveto
          63 -35 50 -108 93 vhcurveto
          -80 66 -21 24 29 vvcurveto
          42 23 20 47 vhcurveto
          endchar
        </CharString>
        <CharString name="dollar.osf">
          -72 167 -10 rmoveto
          -7 -118 75 -8 21 130 rlineto
          86 13 80 45 113 174 -241 -37 95 vvcurveto
          42 29 15 50 62 18 -14 0 vhcurveto
          11 -76 rlineto
          69 hlineto
          17 152 -13 4 -49 9 -53 3 rlinecurve
          8 114 -78 9 -20 -126 rlineto
          -102 -16 -70 -60 -89 -171 243 32 -97 vvcurveto
          -52 -29 -14 -58 -58 -39 25 0 vhcurveto
          82 -74 vlineto
          -22 -149 23 -12 59 -15 62 -3 rlinecurve
          endchar
        </CharString>
        <CharString name="dotaccent">
          -403 124 -65 callsubr
          endchar
        </CharString>
        <CharString name="dotbelowcomb">
          -131 -194 -102 callgsubr
          endchar
        </CharString>
        <CharString name="dotlessi">
          -252 111 408 -81 callsubr
        </CharString>
        <CharString name="e">
          -132 182 -10 rmoveto
          -105 callgsubr
          endchar
        </CharString>
        <CharString name="eacute">
          -132 214 -13 callsubr
          30 16 56 29 -75 callsubr
          rlineto
          -601 vmoveto
          -105 callgsubr
          endchar
        </CharString>
        <CharString name="ebreve">
          -132 252 559 -99 callgsubr
          -70 -569 rmoveto
          -105 callgsubr
          endchar
        </CharString>
        <CharString name="ecaron">
          -132 254 553 rmoveto
          15 24 23 36 37 hvcurveto
          91 88 -31 34 -123 -67 -101 71 -40 -35 79 -106 rlineto
          -23 17 13 -21 19 hhcurveto
          -76 -563 -63 callgsubr
        </CharString>
        <CharString name="ecircumflex">
          -132 380 553 -103 callgsubr
          -97 -632 rmoveto
          -105 callgsubr
          endchar
        </CharString>
        <CharString name="edieresis">
          -132 174 576 -94 callsubr
          -196 -586 rmoveto
          -105 callgsubr
          endchar
        </CharString>
        <CharString name="edotaccent">
          -132 275 -65 callsubr
          -97 -576 -63 callgsubr
        </CharString>
        <CharString name="egrave">
          -132 338 551 rmoveto
          -70 callsubr
          56 -29 30 -16 vhcurveto
          -63 -610 rmoveto
          -105 callgsubr
          endchar
        </CharString>
        <CharString name="eight">
          -52 -11 67 534 70 hstemhm
          21 124 -67 126 131 117 -87 112 hintmask 11011000
          217 -11 rmoveto
          139 96 78 114 87 -47 36 -64 53 hvcurveto
          hintmask 11010100
          68 33 68 63 75 vvcurveto
          77 5 callgsubr
          hintmask 11101000
          12 callgsubr
          vhcurveto
          83 402 rmoveto
          hintmask 11011000
          -48 32 -48 45 52 vvcurveto
          39 30 31 49 vhcurveto
          hintmask 11010100
          60 22 -36 -44 -50 -30 -40 -35 -29 hvcurveto
          -63 -335 rmoveto
          hintmask 11101000
          -64 -28 32 50 53 14 54 55 44 hvcurveto
          90 -77 31 -26 -45 vvcurveto
          -54 -32 -31 -66 vhcurveto
          endchar
        </CharString>
        <CharString name="eight.osf">
          -52 173 321 rmoveto
          12 callgsubr
          129 110 61 139 66 -46 49 -64 53 vhcurveto
          68 33 63 54 92 vvcurveto
          69 5 callgsubr
          130 70 rmoveto
          -3 2 -3 2 -3 3 rrcurveto
          -67 54 -25 24 44 vvcurveto
          39 30 31 49 60 22 -36 -44 -50 -25 -40 -35 -29 vhcurveto
          -91 -102 rmoveto
          61 -48 58 -45 -44 vvcurveto
          -62 -30 -34 -74 -56 -28 32 50 53 14 54 55 44 vhcurveto
          endchar
        </CharString>
        <CharString name="ellipsis">
          -27 53 -8 rmoveto
          -5 callgsubr
          183 hmoveto
          -5 callgsubr
          183 hmoveto
          -5 callgsubr
          endchar
        </CharString>
        <CharString name="emacron">
          -132 106 607 rmoveto
          330 hlineto
          10 82 rlineto
          -330 hlineto
          62 -699 -63 callgsubr
        </CharString>
        <CharString name="emdash">
          312 9 318 rmoveto
          -104 846 104 vlineto
          endchar
        </CharString>
        <CharString name="endash">
          -120 9 316 rmoveto
          -104 414 104 vlineto
          endchar
        </CharString>
        <CharString name="eng">
          -13 217 -172 rmoveto
          115 95 89 124 17 hvcurveto
          42 296 rlineto
          7 46 4 32 15 vvcurveto
          55 -32 28 -60 -44 -50 -24 -52 -70 -29 callsubr
          75 -17 -21 callgsubr
          60 386 rlineto
          7 12 51 30 42 hhcurveto
          19 11 -12 -21 -13 -1 -14 -2 -13 hvcurveto
          -48 -310 -8 -53 -8 -30 -11 -19 rlinecurve
          -5 -3 -24 -5 -23 hhcurveto
          -81 hlineto
          -7 -7 -8 -24 -15 vvcurveto
          -38 21 -16 51 vhcurveto
          endchar
        </CharString>
        <CharString name="eogonek">
          -132 226 -187 rmoveto
          66 43 53 0 hvcurveto
          -45 callgsubr
          53 62 38 13 8 hvcurveto
          51 23 29 31 0 vvcurveto
          -22 37 rlineto
          0 -54 -35 -50 -67 -33 22 76 vhcurveto
          35 vlineto
          140 28 117 36 138 vvcurveto
          56 -49 51 -100 -163 -73 -219 -152 -113 49 -39 104 6 6 0 1 6 vhcurveto
          -36 -24 -31 -35 -48 vvcurveto
          -49 41 -22 56 vhcurveto
          -66 446 rmoveto
          6 89 29 76 8 7 rrcurveto
          4 4 17 6 18 hhcurveto
          28 17 -16 -37 -61 -10 -31 -117 -37 hvcurveto
          endchar
        </CharString>
        <CharString name="equal">
          -52 66 370 rmoveto
          -11 -79 rlineto
          399 13 callsubr
          -419 -152 rmoveto
          -11 -79 rlineto
          399 13 callsubr
          endchar
        </CharString>
        <CharString name="estimated">
          176 374 -18 rmoveto
          121 99 66 79 65 hvcurveto
          -90 hlineto
          -48 -53 -51 -31 -89 hhcurveto
          -73 -61 25 37 -32 hvcurveto
          196 496 vlineto
          213 -1 -129 146 -207 hhcurveto
          -195 -146 -153 -190 -188 151 -152 195 hvcurveto
          -164 390 rmoveto
          173 vlineto
          34 36 53 20 72 hhcurveto
          68 62 -26 -26 27 hvcurveto
          -175 vlineto
          endchar
        </CharString>
        <CharString name="eth">
          -73 202 -11 rmoveto
          148 104 142 200 145 -46 105 -89 59 hvcurveto
          56 37 -36 53 -87 -56 rlineto
          16 -47 -52 8 -57 hhcurveto
          -16 -20 -1 -2 -17 hvcurveto
          -60 vlineto
          46 41 -6 -11 36 hvcurveto
          -81 -52 36 -55 111 73 22 -16 18 -23 17 -33 rlinecurve
          -6 -11 1 -10 hhcurveto
          -126 -111 -162 -185 -117 60 -60 117 hvcurveto
          32 72 rmoveto
          -55 -21 37 95 74 28 145 18 18 hvcurveto
          2 2 9 1 20 hhcurveto
          30 29 -9 -17 22 hvcurveto
          4 -39 1 -22 -32 vvcurveto
          -102 -14 -89 -24 -52 vhcurveto
          -6 -3 -20 -4 -26 hhcurveto
          endchar
        </CharString>
        <CharString name="exclam">
          -351 84 667 rmoveto
          -46 -507 rlineto
          84 hlineto
          90 432 7 30 1 7 rrcurveto
          1 8 2 8 7 vvcurveto
          19 -11 14 -52 -52 -24 -18 0 vhcurveto
          -27 -689 1 callgsubr
        </CharString>
        <CharString name="exclamdown">
          -351 125 389 4 callgsubr
          -85 -562 rmoveto
          52 24 18 0 hvcurveto
          46 507 rlineto
          -84 hlineto
          -90 -432 -7 -30 -1 -7 rrcurveto
          -1 -8 -2 -8 -7 vvcurveto
          -19 11 -14 52 vhcurveto
          endchar
        </CharString>
        <CharString name="f">
          -254 3 callgsubr
          84 608 rlineto
          112 hlineto
          16 37 rlineto
          34 -118 vlineto
          2 14 7 47 5 17 5 5 -22 callsubr
          -77 -3 callsubr
        </CharString>
        <CharString name="f_f">
          44 3 callgsubr
          84 608 rlineto
          180 hlineto
          -76 -449 134 13 60 436 rlineto
          112 hlineto
          16 37 rlineto
          34 -118 vlineto
          2 17 7 45 6 17 4 4 -22 callsubr
          -190 hlineto
          2 17 7 45 6 17 4 4 -22 callsubr
          -77 -3 callsubr
        </CharString>
        <CharString name="fi">
          1 3 callgsubr
          85 608 rlineto
          64 hlineto
          76 -21 -58 -306 -61 callsubr
          10 callgsubr
          323 rlineto
          99 -252 vlineto
          4 27 6 40 5 18 4 4 rlinecurve
          8 9 15 3 19 85 1 -27 47 hhcurveto
          44 25 23 41 51 -30 21 -78 -144 -82 -107 -102 -38 hvcurveto
          -78 -3 callsubr
        </CharString>
        <CharString name="five">
          -100 -11 67 487 105 -105 158 hstemhm
          268 139 hintmask 11010000
          153 -11 rmoveto
          116 150 75 169 129 -110 44 -148 20 hvcurveto
          17 117 rlineto
          264 hlineto
          hintmask 10110000
          24 158 rlineto
          -71 hlineto
          hintmask 11010000
          -24 -53 rlineto
          -252 hlineto
          -56 -293 rlineto
          171 -20 46 -46 -81 vvcurveto
          -92 -24 -60 -88 -66 -18 22 0 vhcurveto
          -9 98 rlineto
          -46 hlineto
          -1 -51 -44 -54 -66 71 -23 105 hvcurveto
          endchar
        </CharString>
        <CharString name="five.osf">
          -112 85 -166 rmoveto
          167 144 88 169 146 -111 37 -145 10 hvcurveto
          22 137 rlineto
          263 hlineto
          24 158 rlineto
          -71 hlineto
          -24 -53 rlineto
          -251 hlineto
          -61 -313 rlineto
          163 -5 50 -31 -90 vvcurveto
          -180 -147 -13 -143 vhcurveto
          -52 vlineto
          -5 26 50 -3 44 hhcurveto
          endchar
        </CharString>
        <CharString name="fl">
          1 3 callgsubr
          84 608 rlineto
          83 hlineto
          16 37 rlineto
          34 -89 vlineto
          3 18 7 46 11 21 4 4 rlinecurve
          4 4 15 13 61 hhcurveto
          59 hlineto
          -86 -502 -40 callgsubr
          78 526 rlineto
          94 vlineto
          0 -44 4 -35 -189 -83 -104 -100 -37 vhcurveto
          -76 -3 callsubr
        </CharString>
        <CharString name="florin">
          -162 133 386 rmoveto
          -25 -303 rlineto
          -89 -7 -2 -24 -51 hhcurveto
          -33 -23 10 14 -26 hvcurveto
          0 -42 -15 -40 vvcurveto
          -36 33 -22 64 112 86 69 132 13 vhcurveto
          20 304 rlineto
          118 72 -112 hlineto
          10 60 rlineto
          50 8 15 1 16 hhcurveto
          52 37 -10 -12 24 hvcurveto
          0 42 10 42 vvcurveto
          39 -37 22 -62 -117 -80 -80 -122 -23 vhcurveto
          -82 -17 -6 -55 rlineto
          endchar
        </CharString>
        <CharString name="four">
          -27 0 234 -84 84 435 -20 hstemhm
          hintmask 10100000
          241 hmoveto
          126 hlineto
          hintmask 01100000
          22 150 rlineto
          79 hlineto
          hintmask 10100000
          10 84 rlineto
          -77 hlineto
          56 414 -93 21 -378 -443 rlineto
          hintmask 01100000
          28 -76 rlineto
          249 hlineto
          hintmask 10100000
          -154 84 rmoveto
          -3 6 198 239 6 14 rlineto
          4 hlineto
          -4 -14 -36 -245 rlineto
          endchar
        </CharString>
        <CharString name="four.osf">
          -22 233 -164 rmoveto
          133 hlineto
          27 175 rlineto
          79 hlineto
          13 84 rlineto
          -79 hlineto
          71 418 -95 21 -390 -447 25 -76 rlineto
          243 hlineto
          18 84 rmoveto
          -163 hlineto
          -3 6 208 243 6 14 5 -1 -5 -13 rlineto
          endchar
        </CharString>
        <CharString name="fraction">
          -212 404 697 rmoveto
          -496 -710 65 -43 495 710 rlineto
          endchar
        </CharString>
        <CharString name="g">
          -51 126 -172 -98 callsubr
        </CharString>
        <CharString name="g_tilde.loclGUA">
          -51 384 576 rmoveto
          20 22 -87 callgsubr
          -258 -748 -98 callsubr
        </CharString>
        <CharString name="gbreve">
          -51 290 559 -99 callgsubr
          -164 -731 -52 callgsubr
        </CharString>
        <CharString name="gcaron">
          -51 160 703 -81 callgsubr
          -74 -910 -98 callsubr
        </CharString>
        <CharString name="gcircumflex">
          -51 407 553 -103 callgsubr
          -180 -794 -98 callsubr
        </CharString>
        <CharString name="gcommaaccent">
          -51 312 552 rmoveto
          26 21 16 17 10 hvcurveto
          0 -19 20 28 vvcurveto
          47 36 34 0 vhcurveto
          -24 29 rlineto
          0 -112 -43 -89 vvcurveto
          -29 17 -30 45 vhcurveto
          -186 -724 -52 callgsubr
        </CharString>
        <CharString name="gdotaccent">
          -51 301 -65 callsubr
          -175 -738 -98 callsubr
        </CharString>
        <CharString name="germandbls">
          13 93 435 rmoveto
          -96 -619 133 12 94 668 rlineto
          80 11 15 54 79 hhcurveto
          48 27 -33 -41 -87 -23 -30 -80 -42 hvcurveto
          -20 -133 rlineto
          139 -103 36 -15 -45 vvcurveto
          -37 -44 0 -26 -59 -19 14 0 vhcurveto
          -9 98 rlineto
          -46 hlineto
          -1 -51 -46 -54 -72 66 -15 82 108 97 51 114 80 -44 21 -133 101 hvcurveto
          90 39 73 46 118 vvcurveto
          70 -63 72 -125 -157 -77 -103 -163 -25 vhcurveto
          endchar
        </CharString>
        <CharString name="grave">
          -341 141 600 -74 callsubr
          endchar
        </CharString>
        <CharString name="gravecomb">
          -70 600 -74 callsubr
          endchar
        </CharString>
        <CharString name="gravecomb.case">
          -115 729 -85 callgsubr
          endchar
        </CharString>
        <CharString name="greater">
          -22 16 96 rmoveto
          34 -90 465 214 6 62 -397 221 -50 -88 299 -168 rlineto
          endchar
        </CharString>
        <CharString name="greaterequal">
          -22 15 171 rmoveto
          -18 -103 509 205 6 62 -440 205 -14 -98 306 -142 rlineto
          -367 -232 rmoveto
          -11 -79 rlineto
          488 hlineto
          10 79 rlineto
          endchar
        </CharString>
        <CharString name="guillemotleft">
          -134 141 60 rmoveto
          62 32 -69 147 96 -12 callsubr
          266 -112 rmoveto
          62 32 -69 147 96 -12 callsubr
          endchar
        </CharString>
        <CharString name="guillemotright">
          -134 44 56 -19 callsubr
          69 -147 -96 -141 rlineto
          226 -42 -19 callsubr
          69 -147 -96 -141 rlineto
          endchar
        </CharString>
        <CharString name="guilsinglleft">
          -332 143 60 rmoveto
          62 32 -63 147 90 -12 callsubr
          endchar
        </CharString>
        <CharString name="guilsinglright">
          -332 44 56 -19 callsubr
          63 -147 -90 -141 rlineto
          endchar
        </CharString>
        <CharString name="h">
          -9 141 613 -65 callgsubr
          endchar
        </CharString>
        <CharString name="hbar">
          -9 372 -6 rmoveto
          76 53 32 0 hvcurveto
          -21 callsubr
          42 230 rlineto
          3 19 7 45 27 vvcurveto
          46 -16 40 -74 -47 -59 -32 -44 -58 vhcurveto
          15 114 rlineto
          143 77 -133 hlineto
          3 22 12 75 -179 -16 rlineto
          -34 vlineto
          60 -15 -7 -32 rlineto
          -86 -77 72 hlineto
          -96 -533 rlineto
          130 hlineto
          58 367 rlineto
          8 14 50 29 41 hhcurveto
          21 8 -14 -19 -19 -2 -21 -3 -16 hvcurveto
          -43 -203 -48 callgsubr
          vhcurveto
          endchar
        </CharString>
        <CharString name="hcircumflex">
          -9 324 707 -103 callgsubr
          -82 -163 -65 callgsubr
          endchar
        </CharString>
        <CharString name="hookabovecomb">
          -122 536 -101 callgsubr
          endchar
        </CharString>
        <CharString name="hookabovecomb.case">
          -110 675 -102 callsubr
          endchar
        </CharString>
        <CharString name="hungarumlaut">
          -209 97 -53 callsubr
          32 -33 18 -32 -7 -6 -1 -1 -6 vhcurveto
          -82 -172 rlineto
          endchar
        </CharString>
        <CharString name="hyphen">
          5 callsubr
        </CharString>
        <CharString name="i">
          -246 186 -65 callsubr
          -66 -159 rmoveto
          2 callgsubr
          10 callgsubr
          319 rlineto
          97 vlineto
          -198 -19 rlineto
          -62 vlineto
          endchar
        </CharString>
        <CharString name="i.loclTRK">
          -252 200 -65 callsubr
          -89 -158 -81 callsubr
        </CharString>
        <CharString name="iacute">
          -252 87 -13 callsubr
          30 16 56 29 -75 callsubr
          rlineto
          56 -597 rmoveto
          86 53 32 0 hvcurveto
          62 -71 vlineto
          -40 callsubr
          vhcurveto
          endchar
        </CharString>
        <CharString name="iacute_j.loclNLD">
          28 266 -33 callsubr
          417 192 rmoveto
          -31 callsubr
          32 -40 93 49 rlineto
          51 27 35 18 37 vvcurveto
          28 -17 27 -45 6 vhcurveto
          -339 -655 rmoveto
          -71 hlineto
          -40 callsubr
          86 53 32 0 vhcurveto
          91 398 rmoveto
          -83 callgsubr
          -195 -19 rlineto
          endchar
        </CharString>
        <CharString name="ibreve">
          -252 177 559 -99 callgsubr
          -66 -151 -81 callsubr
        </CharString>
        <CharString name="icircumflex">
          -252 268 553 -103 callgsubr
          -55 -628 rmoveto
          86 53 32 0 hvcurveto
          62 -71 vlineto
          -40 callsubr
          vhcurveto
          endchar
        </CharString>
        <CharString name="idieresis">
          -252 82 576 -94 callsubr
          -174 -582 rmoveto
          86 53 32 0 hvcurveto
          62 -71 vlineto
          -40 callsubr
          vhcurveto
          endchar
        </CharString>
        <CharString name="igrave">
          -252 156 600 -68 callsubr
          56 -29 30 -16 vhcurveto
          -45 -192 -81 callsubr
        </CharString>
        <CharString name="ij">
          14 186 -65 callsubr
          294 159 -58 callgsubr
          -152 -301 rmoveto
          -83 callgsubr
          -195 -19 rlineto
          -68 -398 rmoveto
          -71 hlineto
          54 319 rlineto
          97 vlineto
          -198 -19 rlineto
          -62 vlineto
          75 -16 2 callgsubr
          endchar
        </CharString>
        <CharString name="imacron">
          -252 25 689 rmoveto
          -10 -82 rlineto
          300 hlineto
          10 82 rlineto
          -214 -281 -81 callsubr
        </CharString>
        <CharString name="infinity">
          248 397 167 rmoveto
          -83 55 49 -27 71 hhcurveto
          112 100 89 138 104 -71 66 -96 -71 -52 -26 -84 -76 hvcurveto
          84 -58 -46 26 -71 hhcurveto
          -110 -102 -89 -136 -106 69 -66 98 70 54 27 83 75 hvcurveto
          -52 87 rmoveto
          -50 -40 -47 -48 -49 hhcurveto
          -43 -33 29 53 73 41 46 57 55 31 -52 -51 28 hvcurveto
          124 hmoveto
          51 38 43 52 55 hhcurveto
          48 28 -31 -51 -75 -47 -44 -51 -46 -39 52 46 -29 hvcurveto
          endchar
        </CharString>
        <CharString name="integral">
          -216 139 512 rmoveto
          -75 -557 rlineto
          -12 -2 -4 -9 -22 hhcurveto
          -25 -11 6 19 -32 hvcurveto
          0 -49 -18 -54 vvcurveto
          -42 37 -9 44 122 55 68 132 18 vhcurveto
          75 557 rlineto
          13 2 4 8 22 hhcurveto
          19 18 -6 -19 32 hvcurveto
          0 49 17 54 vvcurveto
          42 -36 10 -45 -101 -78 -75 -125 -17 vhcurveto
          endchar
        </CharString>
        <CharString name="iogonek">
          -252 177 -65 callsubr
          69 -665 rmoveto
          -11 -18 -19 -8 -15 hhcurveto
          -23 -12 8 26 59 49 30 19 9 hvcurveto
          24 12 rlineto
          10 callgsubr
          320 rlineto
          97 vlineto
          -198 -19 rlineto
          -62 vlineto
          75 -16 -57 -299 -67 callsubr
          16 -31 49 7 7 0 1 7 vhcurveto
          -37 -24 -32 -35 -49 -37 callgsubr
          endchar
        </CharString>
        <CharString name="itilde">
          -252 283 576 rmoveto
          20 22 -87 callgsubr
          -172 -168 -81 callsubr
        </CharString>
        <CharString name="j">
          -272 194 725 -58 callgsubr
          -152 -301 rmoveto
          -83 callgsubr
          -195 -19 rlineto
          endchar
        </CharString>
        <CharString name="jcircumflex">
          -272 267 697 rmoveto
          23 -16 -15 21 -18 hhcurveto
          -16 -24 -23 -36 -36 hvcurveto
          -92 -91 31 -34 124 65 101 -69 38 36 rlineto
          -302 -165 rmoveto
          -83 callgsubr
          -195 -19 rlineto
          endchar
        </CharString>
        <CharString name="k">
          -55 136 -42 callsubr
          endchar
        </CharString>
        <CharString name="kcommaaccent">
          -71 125 -42 callsubr
          97 -812 rmoveto
          24 -29 rlineto
          -80 callgsubr
        </CharString>
        <CharString name="kgreenlandic">
          -41 340 221 rmoveto
          65 42 91 59 96 vvcurveto
          58 -30 37 -71 -56 -72 -55 -20 -26 vhcurveto
          67 -73 callsubr
          75 -17 4 callsubr
          130 hlineto
          63 386 rlineto
          16 25 44 21 31 hhcurveto
          21 14 -10 -25 -41 -37 -51 -96 -72 hvcurveto
          -43 vlineto
          60 -139 rlineto
          -34 14 25 -12 56 hhcurveto
          71 31 31 0 hvcurveto
          61 -91 vlineto
          endchar
        </CharString>
        <CharString name="l">
          -263 145 613 -49 callsubr
          endchar
        </CharString>
        <CharString name="lacute">
          -273 69 696 rmoveto
          173 49 rlineto
          39 11 8 15 34 vvcurveto
          22 -15 20 -18 11 vhcurveto
          -207 -115 rlineto
          64 -750 rmoveto
          76 53 32 0 hvcurveto
          62 -72 vlineto
          -23 callgsubr
          83 -17 -91 -502 -48 callgsubr
          vhcurveto
          endchar
        </CharString>
        <CharString name="lcaron">
          -273 280 -63 callsubr
          -142 41 -49 callsubr
          endchar
        </CharString>
        <CharString name="lcommaaccent">
          -273 127 613 -49 callsubr
          -19 -816 rmoveto
          24 -29 rlineto
          -80 callgsubr
        </CharString>
        <CharString name="ldot">
          -263 145 613 -49 callsubr
          236 -320 -55 callsubr
          endchar
        </CharString>
        <CharString name="less">
          -22 22 289 rmoveto
          -6 -62 397 -221 50 88 -299 168 357 151 -34 90 rlineto
          endchar
        </CharString>
        <CharString name="lessequal">
          -52 472 68 rmoveto
          14 98 -306 142 340 124 24 103 -506 -200 -6 -62 rlineto
          -32 -284 rmoveto
          461 13 callsubr
          -461 hlineto
          endchar
        </CharString>
        <CharString name="logicalnot">
          -22 35 364 rmoveto
          -90 349 -162 83 252 vlineto
          endchar
        </CharString>
        <CharString name="longs">
          -254 3 callgsubr
          94 679 7 51 6 26 6 6 rlinecurve
          9 10 31 5 46 hhcurveto
          67 hlineto
          14 15 10 22 16 vvcurveto
          37 -19 17 -41 -109 -89 -74 -130 -47 vhcurveto
          -77 -3 callsubr
        </CharString>
        <CharString name="lozenge">
          -94 13 324 rmoveto
          138 -324 rlineto
          62 hlineto
          238 324 -140 325 rlineto
          -62 hlineto
          90 -325 rmoveto
          -139 -207 -73 207 136 207 rlineto
          endchar
        </CharString>
        <CharString name="lslash">
          -281 75 269 rmoveto
          -28 -158 -40 callgsubr
          37 233 105 42 rlineto
          72 vlineto
          -93 -38 34 217 -6 callgsubr
          83 -17 -49 -269 -107 -43 rlineto
          -69 vlineto
          endchar
        </CharString>
        <CharString name="m">
          257 118 408 rmoveto
          -75 -408 rlineto
          130 hlineto
          60 383 rlineto
          10 18 54 30 30 12 callsubr
          -59 -334 rlineto
          127 hlineto
          53 337 1 10 4 19 2 19 rlinecurve
          12 20 48 26 29 12 callsubr
          -39 -222 -67 callsubr
          5 -31 76 76 44 -28 callsubr
          -21 callsubr
          38 249 rlineto
          3 19 8 51 27 vvcurveto
          46 -16 34 -73 -47 -59 -34 -44 -58 vhcurveto
          42 -2 -15 36 -76 hhcurveto
          -46 -55 -34 -43 -57 hvcurveto
          68 vlineto
          -198 -19 rlineto
          -62 vlineto
          endchar
        </CharString>
        <CharString name="macron">
          -212 66 689 -35 callsubr
          endchar
        </CharString>
        <CharString name="minus">
          -52 57 297 rmoveto
          -11 -79 rlineto
          400 13 callsubr
          endchar
        </CharString>
        <CharString name="multiply">
          -52 59 143 rmoveto
          51 -61 134 117 101 -117 62 52 -101 119 138 117 -51 61 -139 -118 -103 118 -62 -53 103 -118 rlineto
          endchar
        </CharString>
        <CharString name="n">
          5 117 408 -88 callsubr
          endchar
        </CharString>
        <CharString name="nacute">
          5 278 -13 callsubr
          30 16 56 29 -75 callsubr
          rlineto
          144 -597 -41 callgsubr
        </CharString>
        <CharString name="nacute.loclPLK">
          5 326 -47 callsubr
          -168 -160 -88 callsubr
          endchar
        </CharString>
        <CharString name="napostrophe">
          48 56 -63 callsubr
          61 -164 -88 callsubr
          endchar
        </CharString>
        <CharString name="ncaron">
          5 190 703 -81 callgsubr
          -110 -330 -88 callsubr
          endchar
        </CharString>
        <CharString name="ncommaaccent">
          5 120 408 -88 callsubr
          117 -611 rmoveto
          24 -29 rlineto
          -80 callgsubr
        </CharString>
        <CharString name="nine">
          -32 -11 56 173 86 291 65 hstem
          38 141 183 140 vstem
          132 -11 rmoveto
          224 146 178 237 177 -79 79 -148 -140 -97 -108 -144 -124 79 -66 89 77 37 33 12 12 hvcurveto
          4 4 3 4 2 4 rrcurveto
          3 hlineto
          -167 -35 -95 -63 -127 hhcurveto
          -15 -15 1 2 -16 hvcurveto
          -8 -53 rlineto
          -5 31 27 -1 41 hhcurveto
          136 315 rmoveto
          -57 -32 24 107 114 36 46 54 59 34 -34 -92 -40 -5 -60 -6 -37 hvcurveto
          0 -29 -28 -54 vhcurveto
          endchar
        </CharString>
        <CharString name="nine.osf">
          -22 126 -170 rmoveto
          225 146 192 297 141 -70 73 -137 -154 -103 -107 -161 -108 59 -66 98 57 63 24 32 28 hvcurveto
          -191 -36 -85 -68 -190 hhcurveto
          -52 vlineto
          -5 29 19 -1 51 hhcurveto
          127 347 rmoveto
          -52 -27 39 75 119 29 50 69 57 28 -39 -79 -73 -3 -41 -8 -23 hvcurveto
          -16 -23 -39 -12 -31 hhcurveto
          endchar
        </CharString>
        <CharString name="notequal">
          -52 140 139 rmoveto
          -77 -118 56 -36 99 154 rlineto
          216 13 callsubr
          -176 hlineto
          47 73 rlineto
          138 13 callsubr
          -98 hlineto
          70 109 -53 35 -94 -144 rlineto
          -224 hlineto
          -11 -79 rlineto
          184 hlineto
          -48 -73 rlineto
          -145 hlineto
          -11 -79 rlineto
          endchar
        </CharString>
        <CharString name="ntilde">
          8 399 585 rmoveto
          20 22 -87 callgsubr
          -10 -591 -41 callgsubr
        </CharString>
        <CharString name="numbersign">
          -22 92 115 rmoveto
          -28 -145 rlineto
          94 hlineto
          28 145 rlineto
          93 hlineto
          -28 -145 rlineto
          95 hlineto
          28 145 rlineto
          116 91 -99 hlineto
          17 89 rlineto
          103 92 -85 hlineto
          25 131 rlineto
          -94 hlineto
          -26 -131 rlineto
          -93 hlineto
          26 131 rlineto
          -95 hlineto
          -25 -131 rlineto
          -124 -92 106 hlineto
          -17 -89 rlineto
          -110 -91 hlineto
          297 91 rmoveto
          -93 hlineto
          18 89 rlineto
          93 hlineto
          endchar
        </CharString>
        <CharString name="o">
          -73 202 -11 -106 callsubr
          endchar
        </CharString>
        <CharString name="oacute">
          -73 212 -13 callsubr
          30 16 56 29 -75 callsubr
          rlineto
          22 -602 -106 callsubr
          endchar
        </CharString>
        <CharString name="oacute.loclPLK">
          -73 287 -47 callsubr
          -44 -579 -106 callsubr
          endchar
        </CharString>
        <CharString name="obreve">
          -73 267 559 -99 callgsubr
          -65 -570 -106 callsubr
          endchar
        </CharString>
        <CharString name="ocircumflex">
          -73 388 553 -103 callgsubr
          -85 -633 -106 callsubr
          endchar
        </CharString>
        <CharString name="odieresis">
          -73 182 576 -94 callsubr
          -184 -587 -106 callsubr
          endchar
        </CharString>
        <CharString name="oe">
          151 202 -11 rmoveto
          51 47 16 31 38 hvcurveto
          -31 23 41 -15 63 hhcurveto
          76 85 33 46 40 0 callsubr
          -20 -31 -44 -15 -29 hhcurveto
          -72 -28 27 71 hvcurveto
          35 vlineto
          188 38 69 54 110 vvcurveto
          64 -60 43 -89 -47 -44 -19 -37 -37 vhcurveto
          38 -29 -47 18 -69 hhcurveto
          -23 callsubr
          215 198 rmoveto
          8 78 19 80 14 14 rrcurveto
          5 5 19 5 15 hhcurveto
          30 15 -18 -35 -71 -25 -26 -100 -32 hvcurveto
          endchar
        </CharString>
        <CharString name="ogonek">
          -346 154 -134 rmoveto
          -45 callgsubr
          59 79 42 0 hvcurveto
          -60 hlineto
          -48 -22 -66 -43 -68 -37 callgsubr
          endchar
        </CharString>
        <CharString name="ograve">
          -73 361 551 rmoveto
          -70 callsubr
          56 -29 30 -16 vhcurveto
          -66 -611 -106 callsubr
          endchar
        </CharString>
        <CharString name="ohorn">
          -73 597 514 -95 callgsubr
          endchar
        </CharString>
        <CharString name="ohungarumlaut">
          -73 166 -53 callsubr
          31 -34 20 -31 -7 -6 -1 -2 -6 vhcurveto
          -82 -172 rlineto
          -98 -583 rmoveto
          148 104 142 200 124 -57 58 -122 -23 callsubr
          endchar
        </CharString>
        <CharString name="omacron">
          -73 106 607 rmoveto
          330 hlineto
          10 82 rlineto
          -330 hlineto
          86 -700 -106 callsubr
          endchar
        </CharString>
        <CharString name="one">
          -152 21 -21 650 -20 hstem
          120 74 rmoveto
          -128 -18 -7 -56 rlineto
          375 hlineto
          8 59 -117 15 81 576 rlineto
          -77 hlineto
          -211 -47 rlineto
          -58 142 vlineto
          endchar
        </CharString>
        <CharString name="one.osf">
          -152 27 56 rmoveto
          -7 -56 rlineto
          328 hlineto
          7 56 -93 14 67 459 rlineto
          -82 hlineto
          -185 -47 rlineto
          -61 113 vlineto
          -50 -351 rlineto
          endchar
        </CharString>
        <CharString name="onehalf">
          190 156 8 callgsubr
          -77 324 rmoveto
          -18 callgsubr
          -82 -13 rlineto
          417 -365 rmoveto
          -22 callgsubr
          -142 -127 rlineto
          endchar
        </CharString>
        <CharString name="onequarter">
          235 159 -56 rmoveto
          495 710 -73 43 -487 -710 rlineto
          -79 324 rmoveto
          -18 callgsubr
          -82 -13 rlineto
          520 -365 -16 callsubr
        </CharString>
        <CharString name="ordfeminine">
          -218 197 432 rmoveto
          -27 callsubr
          -9 -14 -6 -11 -13 vvcurveto
          -22 17 -12 34 56 30 25 0 vhcurveto
          49 -36 vlineto
          45 278 rlineto
          -60 hlineto
          -22 -23 rlineto
          9 -21 -30 11 -34 hhcurveto
          -100 -49 -140 -104 -76 33 -32 45 43 35 38 39 26 hvcurveto
          25 178 rmoveto
          -21 -122 rlineto
          -24 -18 -27 -29 -24 hhcurveto
          -12 -6 13 29 71 10 45 13 40 hvcurveto
          1 10 3 7 21 21 -4 -23 26 vhcurveto
          endchar
        </CharString>
        <CharString name="ordmasculine">
          -218 142 356 rmoveto
          110 67 109 120 87 -51 35 -77 -106 -70 -97 -136 -81 52 -37 75 hvcurveto
          22 62 rmoveto
          -30 -17 8 69 87 20 48 6 9 hvcurveto
          3 2 12 2 11 hhcurveto
          30 19 -6 -65 -81 -5 -40 -14 -28 hvcurveto
          -2 -1 -18 -4 -15 hhcurveto
          endchar
        </CharString>
        <CharString name="oslash">
          -73 126 -75 -56 callgsubr
        </CharString>
        <CharString name="oslashacute">
          -73 230 -13 callsubr
          -18 callsubr
          rlineto
          -72 -666 -56 callgsubr
        </CharString>
        <CharString name="otilde">
          -73 366 576 rmoveto
          19 23 -87 callgsubr
          -164 -587 -106 callsubr
          endchar
        </CharString>
        <CharString name="p">
          -30 109 408 rmoveto
          -107 -593 134 13 30 186 rlineto
          -8 29 36 -6 38 hhcurveto
          159 69 245 118 106 -48 44 -70 -58 -55 -48 -50 -42 hvcurveto
          -2 3 rlineto
          8 9 4 12 14 vvcurveto
          53 vlineto
          -200 -20 rlineto
          -61 vlineto
          150 -299 rmoveto
          39 238 rlineto
          26 30 42 33 31 hhcurveto
          26 17 -19 -65 -107 -11 -99 -31 -47 hvcurveto
          -4 -2 -12 0 -12 hhcurveto
          -48 -41 23 21 -28 hvcurveto
          endchar
        </CharString>
        <CharString name="paragraph">
          0 233 196 rmoveto
          63 452 rlineto
          -51 -227 -8 -251 -173 164 -20 51 hvcurveto
          -197 -360 rmoveto
          167 hlineto
          115 63 61 98 14 hvcurveto
          81 572 99 20 7 61 rlineto
          -212 hlineto
          -86 -611 -10 -67 -25 -34 -94 -14 rlinecurve
          -119 -18 rlineto
          endchar
        </CharString>
        <CharString name="parenleft">
          -302 156 -151 rmoveto
          27 47 rlineto
          -47 38 -10 36 104 vvcurveto
          275 57 227 136 72 vhcurveto
          -14 51 rlineto
          -222 -64 -72 -351 -186 vvcurveto
          -121 33 -105 112 -23 vhcurveto
          endchar
        </CharString>
        <CharString name="parenright">
          -302 -76 -100 rmoveto
          14 -51 rlineto
          222 64 72 351 186 vvcurveto
          121 -33 105 -112 23 vhcurveto
          -27 -47 rlineto
          47 -38 10 -36 -104 vvcurveto
          -275 -57 -227 -136 -72 vhcurveto
          endchar
        </CharString>
        <CharString name="partialdiff">
          -22 238 -11 rmoveto
          190 112 163 276 180 -82 96 -154 -65 -79 -33 -47 -47 hvcurveto
          31 -47 rlineto
          24 48 45 14 29 hhcurveto
          82 41 -50 -112 6 hvcurveto
          1 -10 0 -11 -11 vvcurveto
          11 -23 -44 9 -36 hhcurveto
          -158 -109 -113 -163 -112 77 -64 135 hvcurveto
          19 73 rmoveto
          -57 -30 42 82 122 35 47 92 33 41 -7 -9 24 hvcurveto
          -188 -10 -44 -89 -84 hhcurveto
          endchar
        </CharString>
        <CharString name="percent">
          154 182 -59 rmoveto
          417 610 -68 46 -418 -610 rlineto
          37 248 -42 callgsubr
          376 -308 -42 callgsubr
          endchar
        </CharString>
        <CharString name="period">
          -392 49 -8 -55 callsubr
          endchar
        </CharString>
        <CharString name="periodcentered">
          -357 95 199 -55 callsubr
          endchar
        </CharString>
        <CharString name="perthousand">
          522 179 -57 rmoveto
          417 610 -65 44 -418 -610 rlineto
          37 248 -42 callgsubr
          376 -308 rmoveto
          106 71 68 129 69 -43 57 -94 -109 -69 -80 -117 -72 39 -54 99 hvcurveto
          343 hmoveto
          106 71 68 129 69 -43 57 -94 -109 -69 -80 -117 -72 39 -54 99 hvcurveto
          -332 64 rmoveto
          -41 -12 15 52 111 21 17 48 39 15 -9 -49 -127 -19 -10 -51 hvcurveto
          343 hmoveto
          -41 -12 15 52 111 21 17 48 39 15 -9 -49 -127 -19 -10 -51 hvcurveto
          endchar
        </CharString>
        <CharString name="pi">
          38 403 -6 rmoveto
          54 58 38 0 hvcurveto
          56 -73 vlineto
          55 329 rlineto
          3 hlineto
          56 2 21 22 46 46 36 36 rcurveline
          -36 46 -85 -49 rlineto
          -341 hlineto
          -81 -3 -17 -52 -52 hvcurveto
          -36 -36 36 -46 89 49 -63 -336 -48 -23 rlineto
          -59 60 vlineto
          78 16 27 53 10 hvcurveto
          62 338 9 callsubr
          -51 -280 rlineto
          -5 -24 -6 -38 -16 vvcurveto
          -58 30 -8 56 vhcurveto
          endchar
        </CharString>
        <CharString name="plus">
          -55 196 218 -8 callgsubr
          endchar
        </CharString>
        <CharString name="plusminus">
          -52 210 296 -8 callgsubr
          -28 -207 rmoveto
          -11 -79 rlineto
          400 13 callsubr
          endchar
        </CharString>
        <CharString name="product">
          115 -2 callgsubr
          71 504 rlineto
          199 hlineto
          -71 -504 -71 -14 -38 callgsubr
          275 -25 callsubr
          71 504 71 14 8 58 rlineto
          -608 -91 callgsubr
          endchar
        </CharString>
        <CharString name="q">
          -54 271 13 rmoveto
          -34 -198 134 13 110 689 rlineto
          -74 hlineto
          -26 -41 rlineto
          16 -27 -49 21 -52 hhcurveto
          -152 -79 -25 callgsubr
          -97 38 -62 81 68 55 60 58 38 hvcurveto
          3 -2 -12 -15 -16 -41 -6 -38 rlinecurve
          63 354 rmoveto
          -37 -206 rlineto
          -30 -24 -43 -43 -43 hhcurveto
          -27 -9 35 48 114 20 94 23 48 hvcurveto
          4 2 7 2 19 hhcurveto
          40 39 -30 -36 33 hvcurveto
          endchar
        </CharString>
        <CharString name="question">
          -191 67 159 rmoveto
          64 hlineto
          31 117 43 15 rlineto
          93 32 54 57 106 vvcurveto
          119 -83 62 -114 -85 -41 -28 -38 -38 20 -16 0 vhcurveto
          0 39 11 43 81 38 -35 -76 -36 -13 -35 -69 -25 vhcurveto
          -101 -37 rlineto
          9 -336 1 callgsubr
        </CharString>
        <CharString name="questiondown">
          -191 263 387 4 callgsubr
          -61 -544 rmoveto
          85 41 28 38 38 -20 16 0 hvcurveto
          0 -39 -11 -43 -81 -38 35 76 36 13 35 69 25 vhcurveto
          101 37 rlineto
          155 -64 vlineto
          -31 -117 -43 -15 rlineto
          -93 -32 -54 -57 -106 vvcurveto
          -119 83 -62 114 vhcurveto
          endchar
        </CharString>
        <CharString name="quotedbl">
          -218 62 491 -15 callsubr
          129 -215 -15 callsubr
          endchar
        </CharString>
        <CharString name="quotedblbase">
          -202 18 -119 -37 callsubr
          17 -14 18 -10 vhcurveto
          8 -3 rlineto
          -10 callgsubr
        </CharString>
        <CharString name="quotedblleft">
          -222 -7 callgsubr
          174 hmoveto
          48 28 40 41 32 -18 13 -17 11 hvcurveto
          -3 2 -2 0 -3 1 rrcurveto
          3 vlineto
          63 84 -34 30 rlineto
          -32 -25 -91 -77 -84 vvcurveto
          -43 23 -28 38 vhcurveto
          endchar
        </CharString>
        <CharString name="quotedblright">
          -202 75 465 rmoveto
          32 25 91 77 84 vvcurveto
          43 -23 28 -38 -48 -28 -40 -41 -32 18 -13 17 -11 vhcurveto
          3 -2 2 0 3 -1 rrcurveto
          -10 callgsubr
        </CharString>
        <CharString name="quoteleft">
          -386 -7 callgsubr
          endchar
        </CharString>
        <CharString name="quoteright">
          -402 75 465 -8 callsubr
        </CharString>
        <CharString name="quotesinglbase">
          -386 30 -119 -8 callsubr
        </CharString>
        <CharString name="quotesingle">
          -345 83 491 -15 callsubr
          endchar
        </CharString>
        <CharString name="r">
          -197 117 -26 callsubr
          endchar
        </CharString>
        <CharString name="racute">
          -195 205 -13 callsubr
          30 16 56 29 -75 callsubr
          rlineto
          -130 -591 rmoveto
          -75 callgsubr
          75 -17 rlineto
          endchar
        </CharString>
        <CharString name="radical">
          -22 206 -7 rmoveto
          114 hlineto
          310 709 109 13 rlineto
          56 -165 vlineto
          -268 -620 -9 -43 rlineto
          43 vlineto
          -60 345 rlineto
          -188 -56 hlineto
          59 -13 rlineto
          endchar
        </CharString>
        <CharString name="rcaron">
          -195 113 703 -81 callgsubr
          -34 -330 rmoveto
          -76 -408 rlineto
          -75 callgsubr
          endchar
        </CharString>
        <CharString name="rcommaaccent">
          -195 119 -26 callsubr
          -8 -611 rmoveto
          24 -29 rlineto
          -80 callgsubr
        </CharString>
        <CharString name="registered">
          139 331 793 rmoveto
          -160 -130 -130 -160 -160 130 -130 160 160 130 130 160 160 -130 130 -160 hvcurveto
          178 -417 rmoveto
          20 vlineto
          -45 9 -56 77 rlineto
          36 12 25 35 36 vvcurveto
          52 -38 31 -63 vhcurveto
          -201 hlineto
          47 39 58 30 67 hhcurveto
          120 96 -98 -124 -47 -14 -44 -24 -36 hvcurveto
          -392 127 rmoveto
          55 18 49 30 38 vhcurveto
          -45 vlineto
          37 -6 rlineto
          -191 vlineto
          -47 -7 rlineto
          -22 vlineto
          -24 36 -14 44 49 vvcurveto
          179 11 rmoveto
          77 vlineto
          2 9 12 1 10 hhcurveto
          31 13 -12 -27 -28 -17 -13 -39 hvcurveto
          16 -233 rmoveto
          -66 -58 29 46 -38 hvcurveto
          174 40 hlineto
          -47 7 rlineto
          58 29 vlineto
          59 -90 rlineto
          -8 4 9 -5 11 hhcurveto
          87 hlineto
          -47 -39 -59 -30 -66 hhcurveto
          endchar
        </CharString>
        <CharString name="ring">
          -337 154 557 -62 callsubr
          endchar
        </CharString>
        <CharString name="s">
          -152 160 -44 callsubr
          endchar
        </CharString>
        <CharString name="sacute">
          -142 197 -13 callsubr
          59 31 27 26 25 vvcurveto
          33 -23 23 -39 5 vhcurveto
          -31 callsubr
          rlineto
          -6 -602 rmoveto
          116 86 68 92 6 callsubr
          hvcurveto
          -74 52 -23 23 22 vvcurveto
          22 19 10 42 28 33 -5 -7 17 vhcurveto
          9 -89 rlineto
          47 hlineto
          26 16 23 40 28 vvcurveto
          61 -47 31 -91 -116 -88 -69 -91 -57 28 -35 102 -69 vhcurveto
          64 -44 18 -20 -27 vvcurveto
          -29 -18 -9 -57 -38 -36 6 8 -9 vhcurveto
          -9 98 rlineto
          -46 hlineto
          -15 -37 -72 -28 -61 48 -26 113 hvcurveto
          endchar
        </CharString>
        <CharString name="sacute.loclPLK">
          -152 247 -47 callsubr
          -46 -579 -90 callsubr
          endchar
        </CharString>
        <CharString name="scaron">
          -142 250 553 rmoveto
          15 24 23 36 37 hvcurveto
          91 88 -31 34 -123 -67 -101 71 -40 -35 79 -106 rlineto
          -23 17 13 -21 19 hhcurveto
          -90 -564 -90 callsubr
          endchar
        </CharString>
        <CharString name="scedilla">
          -152 157 -194 rmoveto
          61 39 32 50 27 -15 19 -37 20 hvcurveto
          -34 18 rlineto
          17 vlineto
          111 4 80 67 89 vvcurveto
          6 callsubr
          vhcurveto
          -74 52 -23 23 22 vvcurveto
          22 19 10 42 27 33 -5 -7 18 vhcurveto
          9 -89 rlineto
          47 hlineto
          26 16 23 40 28 vvcurveto
          61 -47 31 -91 -116 -88 -69 -91 -57 28 -35 102 -69 vhcurveto
          64 -44 18 -20 -27 vvcurveto
          -29 -18 -9 -57 -38 -36 6 8 -9 vhcurveto
          -9 98 rlineto
          -46 hlineto
          -15 -37 -72 -28 -53 35 -26 82 -6 hvcurveto
          -26 -42 rlineto
          -25 vlineto
          47 -23 rlineto
          18 -9 5 -5 -9 vvcurveto
          -9 -7 -5 -11 -39 -18 9 7 -19 vhcurveto
          -26 -47 rlineto
          -19 29 35 -8 53 hhcurveto
          endchar
        </CharString>
        <CharString name="scircumflex">
          -152 356 553 -103 callgsubr
          -95 -633 -90 callsubr
          endchar
        </CharString>
        <CharString name="scommaaccent">
          -152 159 -44 callsubr
          -55 -204 rmoveto
          64 24 48 56 52 vvcurveto
          36 -24 23 -38 -22 -21 -12 -21 -12 vhcurveto
          11 -13 8 -19 -16 vvcurveto
          -27 -16 -33 -22 -21 vhcurveto
          endchar
        </CharString>
        <CharString name="section">
          -40 404 210 rmoveto
          73 94 -219 159 rlineto
          -54 45 -14 16 35 vvcurveto
          32 22 22 63 58 68 -19 0 vhcurveto
          9 -104 rlineto
          65 hlineto
          24 182 rlineto
          0 -78 25 -103 -170 -74 -88 -82 -73 35 -32 88 -64 vhcurveto
          8 -522 rmoveto
          142 76 81 103 58 -29 35 -51 36 hvcurveto
          -237 169 -73 -88 214 -153 rlineto
          32 -23 35 -29 -39 vvcurveto
          -44 -37 -22 -53 -116 -33 42 0 vhcurveto
          -11 103 rlineto
          -64 hlineto
          -20 -185 rlineto
          0 88 -44 137 vhcurveto
          endchar
        </CharString>
        <CharString name="semicolon">
          -376 106 300 -55 callsubr
          -84 -429 7 callsubr
          -29 19 -25 27 vhcurveto
          4 hlineto
          1 -2 -63 -104 rlineto
          endchar
        </CharString>
        <CharString name="seven">
          -106 21 -21 460 188 -105 105 hstemhm
          hintmask 10100000
          380 543 rmoveto
          -13 vlineto
          -327 -474 rlineto
          -56 87 vlineto
          332 543 rlineto
          hintmask 11000000
          105 -436 -188 67 vlineto
          hintmask 10100000
          19 83 rlineto
          endchar
        </CharString>
        <CharString name="seven.osf">
          -102 358 408 rmoveto
          -355 -541 44 -31 rlineto
          83 hlineto
          317 585 rlineto
          105 -419 -188 67 vlineto
          19 83 rlineto
          244 hlineto
          endchar
        </CharString>
        <CharString name="six">
          -19 -11 73 263 85 249 -20 hstem
          22 139 183 134 vstem
          237 -11 rmoveto
          165 76 136 109 125 -62 51 -103 -75 -52 -41 0 hvcurveto
          39 112 76 89 189 43 -4 46 rcurveline
          -298 -9 -166 -218 -212 vvcurveto
          -154 72 -77 143 vhcurveto
          10 73 rmoveto
          -66 -20 54 89 30 0 36 9 34 hvcurveto
          0 29 20 51 63 31 -32 -78 -99 -15 -54 -82 vhcurveto
          endchar
        </CharString>
        <CharString name="six.osf">
          -12 243 -11 rmoveto
          192 73 137 109 125 -68 50 -103 -75 -48 -32 0 hvcurveto
          41 106 69 78 186 40 rrcurveto
          51 vlineto
          -293 -173 -257 -186 -139 68 -82 131 hvcurveto
          28 73 rmoveto
          -60 -26 49 94 30 2 37 8 38 hvcurveto
          0 32 15 56 53 31 -29 -78 -82 -14 -74 -82 vhcurveto
          endchar
        </CharString>
        <CharString name="slash">
          1 callsubr
        </CharString>
        <CharString name="space">
          -407 endchar
        </CharString>
        <CharString name="sterling">
          -35 342 575 rmoveto
          25 24 -3 -5 16 hvcurveto
          11 -89 rlineto
          69 hlineto
          20 159 rlineto
          10 -33 -76 11 -55 hhcurveto
          -135 -72 -73 -149 -21 hvcurveto
          -8 -65 rlineto
          -55 hlineto
          -11 -87 rlineto
          55 hlineto
          -11 -89 -6 -58 -9 -32 -18 -23 rlinecurve
          -45 -55 11 -12 12 -12 11 -12 rlinecurve
          83 41 163 -33 rlineto
          -8 38 23 -4 13 hhcurveto
          26 20 12 26 23 hvcurveto
          51 58 -34 38 -76 -40 -177 36 7 23 5 27 5 39 rlinecurve
          9 78 rlineto
          142 hlineto
          11 87 rlineto
          -142 hlineto
          9 74 12 100 26 28 64 2 rlinecurve
          endchar
        </CharString>
        <CharString name="sterling.osf">
          -72 348 -11 rmoveto
          20 21 12 27 23 hvcurveto
          51 59 -34 38 -76 -40 -162 32 7 17 5 20 2 20 rlinecurve
          6 51 rlineto
          103 hlineto
          11 87 rlineto
          -102 hlineto
          6 46 rlineto
          74 10 25 19 51 hhcurveto
          42 17 -8 0 hvcurveto
          8 -89 rlineto
          69 hlineto
          20 159 rlineto
          5 -15 -68 16 -66 hhcurveto
          -109 -87 -36 -138 -20 hvcurveto
          -7 -48 rlineto
          -45 hlineto
          -11 -87 rlineto
          45 hlineto
          -7 -51 -3 -23 -6 -48 -19 -20 rlinecurve
          -17 -18 -16 -19 -17 -18 11 -12 12 -12 11 -12 77 41 rcurveline
          156 -32 rlineto
          -5 24 29 -7 25 hhcurveto
          endchar
        </CharString>
        <CharString name="summation">
          -87 -17 hmoveto
          445 hlineto
          15 188 rlineto
          -66 hlineto
          -35 -100 rlineto
          -232 hlineto
          9 13 187 252 -110 207 -6 12 rlineto
          198 hlineto
          12 -112 rlineto
          66 hlineto
          26 188 rlineto
          -435 hlineto
          -13 -59 141 -260 -202 -268 rlineto
          endchar
        </CharString>
        <CharString name="t">
          -209 126 436 -64 callsubr
          endchar
        </CharString>
        <CharString name="tbar">
          -209 371 436 rmoveto
          10 71 rlineto
          -122 hlineto
          22 127 -121 -15 -22 -112 rlineto
          -88 hlineto
          -10 -71 rlineto
          86 hlineto
          -19 -110 rlineto
          -80 hlineto
          -10 -67 rlineto
          79 hlineto
          -27 -158 -2 callsubr
          -46 28 -19 76 88 68 28 0 vhcurveto
          64 -129 vlineto
          26 176 rlineto
          119 hlineto
          10 67 rlineto
          -119 hlineto
          17 110 rlineto
          endchar
        </CharString>
        <CharString name="tcaron">
          -217 295 -63 callsubr
          -177 -136 -64 callsubr
          endchar
        </CharString>
        <CharString name="thorn">
          -42 -70 -166 rmoveto
          259 hlineto
          9 57 -66 15 17 109 rlineto
          -10 36 38 -5 34 hhcurveto
          117 111 177 186 97 -41 53 -77 -53 -54 -29 -56 -46 hvcurveto
          -4 hlineto
          2 7 3 6 2 7 26 165 rcurveline
          -17 callgsubr
          83 -17 -122 -707 -67 -15 rlineto
          350 191 rmoveto
          -39 -43 17 31 -40 hvcurveto
          36 227 rlineto
          42 45 40 24 26 hhcurveto
          30 13 -26 -58 -122 -15 -90 -27 -41 hvcurveto
          -3 -1 -7 -1 -18 hhcurveto
          endchar
        </CharString>
        <CharString name="three">
          -100 -11 75 238 70 198 90 hstemhm
          275 139 -127 127 hintmask 11110000
          145 -11 -20 callgsubr
          112 95 134 63 -40 50 -67 21 hvcurveto
          7 vlineto
          72 33 44 61 67 vvcurveto
          93 -60 47 -119 -72 -91 -47 -55 -34 vhcurveto
          36 -29 rlineto
          24 29 48 17 38 hhcurveto
          hintmask 11101000
          63 26 -21 -52 -77 -68 -47 -114 -1 hvcurveto
          -4 -39 hlineto
          19 -31 rlineto
          43 hlineto
          hintmask 11110000
          77 35 -30 -67 -95 -38 -46 -79 -38 -36 6 8 -9 hvcurveto
          -9 98 rlineto
          -46 hlineto
          -15 -37 -72 -28 -59 57 -28 120 hvcurveto
          endchar
        </CharString>
        <CharString name="three.osf">
          -100 -40 -108 rmoveto
          -51 vlineto
          0 31 -7 88 170 140 79 177 83 -52 42 -55 9 vhcurveto
          7 vlineto
          68 31 48 59 71 vvcurveto
          81 -45 59 -143 -131 -60 -97 0 vhcurveto
          36 -29 rlineto
          0 54 36 59 67 25 -18 -53 -59 -82 -57 -96 -15 vhcurveto
          -6 -35 19 -34 rlineto
          43 hlineto
          83 29 -32 -62 -129 -92 -56 -198 hvcurveto
          endchar
        </CharString>
        <CharString name="threequarters">
          249 176 8 callgsubr
          32 318 rmoveto
          73 89 36 86 49 -51 11 -26 3 hvcurveto
          -24 callgsubr
          -32 -40 rlineto
          0 26 -41 85 vhcurveto
          409 -305 -16 callsubr
        </CharString>
        <CharString name="tilde">
          -177 319 576 rmoveto
          20 22 -87 callgsubr
          endchar
        </CharString>
        <CharString name="tildecomb">
          -56 576 rmoveto
          20 22 -87 callgsubr
          endchar
        </CharString>
        <CharString name="tildecomb.case">
          -326 727 -90 callgsubr
          endchar
        </CharString>
        <CharString name="trademark">
          431 73 403 rmoveto
          -47 212 47 vlineto
          -54 7 rlineto
          237 63 vlineto
          15 -58 rlineto
          49 118 -359 -118 49 hlineto
          15 58 rlineto
          63 -237 hlineto
          260 -11 rmoveto
          -43 166 43 vlineto
          -42 8 rlineto
          231 6 vlineto
          79 -282 rlineto
          105 hlineto
          81 280 rlineto
          6 -228 hlineto
          -43 -7 rlineto
          -45 202 45 vlineto
          -54 7 rlineto
          240 vlineto
          54 7 rlineto
          52 -215 vlineto
          -58 -213 -8 -44 -8 44 -57 213 rlineto
          -209 -52 hlineto
          49 -5 rlineto
          -243 vlineto
          endchar
        </CharString>
        <CharString name="two">
          -52 0 93 475 92 hstem
          308 141 vstem
          -11 hmoveto
          429 hlineto
          30 187 -59 10 -44 -105 -230 2 -12 -6 -2 2 152 130 rlineto
          153 131 43 83 89 vvcurveto
          79 -66 58 -115 -116 -77 -76 -55 -31 vhcurveto
          35 -27 rlineto
          38 43 37 28 59 hhcurveto
          58 32 -35 -41 -50 -6 -50 -114 -114 hvcurveto
          -224 -224 rlineto
          endchar
        </CharString>
        <CharString name="two.osf">
          -41 29 hmoveto
          416 hlineto
          24 177 -58 11 -41 -95 rlineto
          -190 hlineto
          -19 -11 -3 5 116 84 rlineto
          123 89 61 42 92 vvcurveto
          84 -66 55 -112 -167 -52 -124 0 vhcurveto
          35 -26 rlineto
          0 46 58 91 64 15 -37 -27 -47 -8 -20 -96 -78 vhcurveto
          -204 -166 rlineto
          endchar
        </CharString>
        <CharString name="u">
          -5 111 412 -104 callsubr
          endchar
        </CharString>
        <CharString name="uacute">
          -5 269 -13 callsubr
          30 16 56 29 -75 callsubr
          rlineto
          -98 -602 -72 callgsubr
        </CharString>
        <CharString name="ubreve">
          -5 301 559 -99 callgsubr
          -190 -147 -104 callsubr
          endchar
        </CharString>
        <CharString name="ucircumflex">
          -5 423 553 -103 callgsubr
          -183 -633 -72 callgsubr
        </CharString>
        <CharString name="udieresis">
          -5 208 576 -94 callsubr
          -274 -592 -72 callgsubr
        </CharString>
        <CharString name="ugrave">
          -5 304 600 -68 callsubr
          56 -29 30 -16 vhcurveto
          -193 -188 -104 callsubr
          endchar
        </CharString>
        <CharString name="uhorn">
          -5 665 514 -99 callsubr
          endchar
        </CharString>
        <CharString name="uhungarumlaut">
          -5 207 -53 callsubr
          32 -33 18 -32 -7 -6 -1 -1 -6 vhcurveto
          -82 -172 rlineto
          -202 -583 rmoveto
          54 70 44 72 60 hvcurveto
          -27 callsubr
          -15 -19 -8 -20 -15 vvcurveto
          -39 22 -16 53 43 47 12 20 36 vhcurveto
          62 -70 vlineto
          70 421 -125 -11 -60 -342 rlineto
          -40 -40 -44 -28 -23 hhcurveto
          -18 -9 9 20 7 4 25 6 40 hvcurveto
          40 237 rlineto
          83 -73 callsubr
          75 -17 -43 -240 rlineto
          -6 -28 -5 -44 -22 vvcurveto
          -57 30 -32 52 vhcurveto
          endchar
        </CharString>
        <CharString name="umacron">
          -5 162 689 -35 callsubr
          -381 -277 -104 callsubr
          endchar
        </CharString>
        <CharString name="underscore">
          -92 10 1 rmoveto
          -94 440 94 vlineto
          endchar
        </CharString>
        <CharString name="uni00A0">
          -407 endchar
        </CharString>
        <CharString name="uni00AD">
          5 callsubr
        </CharString>
        <CharString name="uni00B2">
          -222 7 407 rmoveto
          18 -46 rlineto
          -22 callgsubr
          endchar
        </CharString>
        <CharString name="uni00B3">
          -252 30 436 rmoveto
          -32 -40 rlineto
          0 26 -41 85 73 89 36 86 49 -51 11 -26 3 vhcurveto
          -24 callgsubr
          endchar
        </CharString>
        <CharString name="uni00B5">
          -52 callsubr
        </CharString>
        <CharString name="uni00B9">
          -252 25 415 rmoveto
          -6 -54 rlineto
          -18 callgsubr
          rlineto
          endchar
        </CharString>
        <CharString name="uni0162">
          -42 132 -56 callsubr
          28 117 vlineto
          -59 callgsubr
          -71 -14 -16 callgsubr
          109 hlineto
          -32 -51 -58 callsubr
          endchar
        </CharString>
        <CharString name="uni0163">
          -217 74 -56 callsubr
          20 vlineto
          78 3 59 24 0 vvcurveto
          64 -129 vlineto
          53 353 rlineto
          123 hlineto
          10 71 rlineto
          -122 hlineto
          22 127 -121 -15 -22 -112 rlineto
          -88 hlineto
          -10 -71 rlineto
          86 hlineto
          -57 -335 -2 callsubr
          -38 19 -19 50 -6 vhcurveto
          -27 -44 -58 callsubr
          endchar
        </CharString>
        <CharString name="uni018F">
          74 268 -11 rmoveto
          215 112 172 227 178 -90 94 -187 -70 -81 -13 -24 -66 hvcurveto
          -16 -180 rlineto
          69 hlineto
          33 124 rlineto
          17 24 36 9 49 hhcurveto
          115 33 -49 -149 2 hvcurveto
          -11 0 -11 -1 -11 vhcurveto
          -405 hlineto
          -6 -35 -4 -39 -41 vvcurveto
          -174 109 -84 129 vhcurveto
          20 66 rmoveto
          -61 -48 38 146 20 0 18 1 18 hvcurveto
          262 hlineto
          -171 -13 -48 -69 -93 hhcurveto
          endchar
        </CharString>
        <CharString name="uni019D">
          90 443 648 6 callgsubr
          -52 -363 rlineto
          -16 -4 vlineto
          -2 16 -182 435 rlineto
          -193 -9 callgsubr
          -77 -536 -10 -65 -9 -23 -8 -14 rlinecurve
          -4 -2 -20 -6 -28 hhcurveto
          -81 hlineto
          -1 -1 -14 -18 -27 vvcurveto
          -38 21 -16 51 103 71 97 116 16 vhcurveto
          60 422 rlineto
          4 hlineto
          1 -15 187 -448 9 callsubr
          79 576 0 callgsubr
          endchar
        </CharString>
        <CharString name="uni01C4">
          625 944 674 -77 callgsubr
          -948 -616 -12 callgsubr
          159 -93 81 -183 hvcurveto
          -270 -91 callgsubr
          572 -3 rmoveto
          28 -69 rlineto
          -78 callsubr
          rlineto
          -815 -496 rmoveto
          71 510 rlineto
          23 hlineto
          131 46 -52 -150 -198 -76 -110 -137 hvcurveto
          endchar
        </CharString>
        <CharString name="uni01C5">
          495 748 703 -81 callgsubr
          -792 -680 -71 callsubr
          626 290 -98 callgsubr
          endchar
        </CharString>
        <CharString name="uni01C6">
          364 639 703 -81 callgsubr
          -380 -633 -72 callsubr
          456 254 -98 callgsubr
          -418 -3 -59 callsubr
          endchar
        </CharString>
        <CharString name="uni01C7">
          343 -4 58 -67 callgsubr
          410 121 -73 callgsubr
        </CharString>
        <CharString name="uni01C8">
          182 648 725 -58 callgsubr
          -199 -545 rmoveto
          -29 callgsubr
          71 -4 callsubr
          -71 -504 -71 -14 -38 callgsubr
          441 hlineto
          68 424 rmoveto
          -83 callgsubr
          -195 -19 rlineto
          endchar
        </CharString>
        <CharString name="uni01C9">
          17 483 725 -58 callgsubr
          -234 -638 rmoveto
          -72 hlineto
          -23 callgsubr
          83 -17 -91 -502 -54 callgsubr
          82 399 rmoveto
          -83 callgsubr
          -195 -19 rlineto
          endchar
        </CharString>
        <CharString name="uni01CA">
          511 -36 callsubr
          581 121 -73 callgsubr
        </CharString>
        <CharString name="uni01CB">
          370 836 725 -58 callgsubr
          -173 -135 rmoveto
          -30 callsubr
          -52 -363 rlineto
          -16 -4 vlineto
          -2 16 -182 435 rlineto
          -193 -93 callgsubr
          -71 -14 13 callgsubr
          56 391 rlineto
          4 hlineto
          1 -15 187 -448 9 callsubr
          79 576 rlineto
          92 -152 rmoveto
          -83 callgsubr
          -195 -19 rlineto
          endchar
        </CharString>
        <CharString name="uni01CC">
          285 751 725 -58 callgsubr
          -236 -637 rmoveto
          -71 hlineto
          -5 callsubr
          -21 callgsubr
          60 386 rlineto
          7 12 51 30 42 hhcurveto
          21 9 -14 -19 -19 -3 -21 -3 -16 hvcurveto
          -42 -10 callsubr
          -24 -22 -1 callsubr
          76 52 -28 callsubr
          84 398 rmoveto
          -83 callgsubr
          -195 -19 rlineto
          endchar
        </CharString>
        <CharString name="uni01CD">
          -8 332 674 -77 callgsubr
          -381 -616 -107 callsubr
          endchar
        </CharString>
        <CharString name="uni01CE">
          -30 170 703 -81 callgsubr
          83 -634 -107 callgsubr
          endchar
        </CharString>
        <CharString name="uni01CF">
          -218 218 674 -77 callgsubr
          -222 -616 -89 callsubr
          endchar
        </CharString>
        <CharString name="uni01D0">
          -252 59 703 -81 callgsubr
          12 -330 -81 callsubr
        </CharString>
        <CharString name="uni01D1">
          103 366 674 -77 callgsubr
          -83 -685 -104 callgsubr
          endchar
        </CharString>
        <CharString name="uni01D2">
          -73 149 703 -81 callgsubr
          13 -749 -106 callsubr
          endchar
        </CharString>
        <CharString name="uni01D3">
          88 380 674 -77 callgsubr
          -262 -98 -105 callsubr
          endchar
        </CharString>
        <CharString name="uni01D4">
          -5 183 703 -81 callgsubr
          -112 -326 -104 callsubr
          endchar
        </CharString>
        <CharString name="uni01D5">
          88 239 982 rmoveto
          -10 -82 rlineto
          350 hlineto
          10 82 rlineto
          -315 -295 -91 callsubr
          -379 -111 -105 callsubr
          endchar
        </CharString>
        <CharString name="uni01D6">
          -5 195 921 -35 callsubr
          -302 -345 -94 callsubr
          -316 -164 -104 callsubr
          endchar
        </CharString>
        <CharString name="uni01D7">
          88 370 858 -84 callsubr
          -72 -219 -91 callsubr
          -379 -111 -105 callsubr
          endchar
        </CharString>
        <CharString name="uni01D8">
          -5 321 783 9 callgsubr
          -18 callsubr
          rlineto
          -66 -247 -94 callsubr
          -316 -164 -104 callsubr
          endchar
        </CharString>
        <CharString name="uni01D9">
          88 398 858 -77 callgsubr
          -124 -171 -91 callsubr
          -379 -111 -105 callsubr
          endchar
        </CharString>
        <CharString name="uni01DA">
          -5 207 935 -81 callgsubr
          -24 -394 -94 callsubr
          -316 -164 -104 callsubr
          endchar
        </CharString>
        <CharString name="uni01DB">
          88 291 913 -85 callgsubr
          -17 -226 -91 callsubr
          -379 -111 -105 callsubr
          endchar
        </CharString>
        <CharString name="uni01DC">
          -5 295 832 -74 callsubr
          -72 -256 -94 callsubr
          -316 -164 -104 callsubr
          endchar
        </CharString>
        <CharString name="uni01EA">
          103 426 17 rmoveto
          131 56 68 141 188 vvcurveto
          127 -69 131 -194 -180 -152 -140 -273 -174 116 -84 137 13 12 1 1 12 vhcurveto
          -35 -25 -32 -35 -47 -37 callgsubr
          -45 callgsubr
          55 69 41 9 5 hvcurveto
          -247 222 rmoveto
          256 49 100 123 69 56 -38 -146 -256 -50 -100 -123 -69 -55 38 146 vhcurveto
          endchar
        </CharString>
        <CharString name="uni01EB">
          -73 300 12 rmoveto
          101 51 53 130 138 vvcurveto
          131 -64 51 -115 -144 -106 -145 -202 -120 64 -56 111 -1 vhcurveto
          -35 -24 -30 -35 -46 -37 callgsubr
          -45 callgsubr
          47 49 36 21 13 hvcurveto
          -142 181 rmoveto
          130 35 95 11 13 vhcurveto
          -88 callgsubr
          -50 callgsubr
          -59 -17 44 88 hvcurveto
          endchar
        </CharString>
        <CharString name="uni01F1">
          625 -4 58 -12 callgsubr
          159 -93 81 -183 hvcurveto
          -270 -91 callgsubr
          572 -3 rmoveto
          28 -69 rlineto
          -78 callsubr
          rlineto
          -815 -496 rmoveto
          71 510 rlineto
          23 hlineto
          131 46 -52 -150 -198 -76 -110 -137 hvcurveto
          endchar
        </CharString>
        <CharString name="uni01F2">
          495 -30 callgsubr
          626 290 -98 callgsubr
          endchar
        </CharString>
        <CharString name="uni01F3">
          364 299 105 -72 callsubr
          456 254 -98 callgsubr
          -418 -3 -59 callsubr
          endchar
        </CharString>
        <CharString name="uni01F4">
          42 359 674 -84 callsubr
          66 -699 -96 callgsubr
          endchar
        </CharString>
        <CharString name="uni01F5">
          -51 274 -13 callsubr
          -18 callsubr
          rlineto
          -116 -763 -98 callsubr
        </CharString>
        <CharString name="uni0200">
          -8 230 -71 callgsubr
          -386 -669 -107 callsubr
          endchar
        </CharString>
        <CharString name="uni0201">
          -30 204 -80 callsubr
          -38 -508 -107 callgsubr
          endchar
        </CharString>
        <CharString name="uni0202">
          -8 179 -68 callgsubr
          -228 -646 -107 callsubr
          endchar
        </CharString>
        <CharString name="uni0203">
          -30 194 -69 callsubr
          140 -475 -107 callgsubr
          endchar
        </CharString>
        <CharString name="uni0204">
          -24 222 -71 callgsubr
          -333 -669 -106 callgsubr
          endchar
        </CharString>
        <CharString name="uni0205">
          -132 168 -80 callsubr
          -113 -622 rmoveto
          -105 callgsubr
          endchar
        </CharString>
        <CharString name="uni0206">
          -24 171 -68 callgsubr
          -175 -646 -106 callgsubr
          endchar
        </CharString>
        <CharString name="uni0207">
          -132 158 -69 callsubr
          65 -589 rmoveto
          -105 callgsubr
          endchar
        </CharString>
        <CharString name="uni0208">
          -218 116 -71 callgsubr
          -227 -669 -89 callsubr
          endchar
        </CharString>
        <CharString name="uni0209">
          -252 93 -80 callsubr
          -109 -204 -81 callsubr
        </CharString>
        <CharString name="uni020A">
          -218 65 -68 callgsubr
          -69 -646 -89 callsubr
          endchar
        </CharString>
        <CharString name="uni020B">
          -252 83 -69 callsubr
          69 -171 -81 callsubr
        </CharString>
        <CharString name="uni020C">
          103 264 -71 callgsubr
          -88 -738 -104 callgsubr
          endchar
        </CharString>
        <CharString name="uni020D">
          -73 183 -80 callsubr
          -108 -623 -106 callsubr
          endchar
        </CharString>
        <CharString name="uni020E">
          103 213 -68 callgsubr
          70 -715 -104 callgsubr
          endchar
        </CharString>
        <CharString name="uni020F">
          -73 173 -69 callsubr
          70 -590 -106 callsubr
          endchar
        </CharString>
        <CharString name="uni0210">
          -10 229 -71 callgsubr
          -349 -727 rmoveto
          -97 callgsubr
          endchar
        </CharString>
        <CharString name="uni0211">
          -197 121 -80 callsubr
          -131 -204 rmoveto
          -76 -408 rlineto
          -75 callgsubr
          endchar
        </CharString>
        <CharString name="uni0212">
          -10 178 -68 callgsubr
          -191 -704 rmoveto
          -97 callgsubr
          endchar
        </CharString>
        <CharString name="uni0213">
          -197 111 -69 callsubr
          47 -171 rmoveto
          -76 -408 rlineto
          -75 callgsubr
          endchar
        </CharString>
        <CharString name="uni0214">
          88 278 -71 callgsubr
          -267 -151 -105 callsubr
          endchar
        </CharString>
        <CharString name="uni0215">
          -5 217 -80 callsubr
          -233 -200 -104 callsubr
          endchar
        </CharString>
        <CharString name="uni0216">
          88 227 -68 callgsubr
          -109 -128 -105 callsubr
          endchar
        </CharString>
        <CharString name="uni0217">
          -5 207 -69 callsubr
          -55 -167 -104 callsubr
          endchar
        </CharString>
        <CharString name="uni021A">
          -42 87 58 rmoveto
          -8 -58 rlineto
          275 hlineto
          -59 callgsubr
          rlineto
          -24 -258 rmoveto
          24 -29 rlineto
          -80 callgsubr
        </CharString>
        <CharString name="uni021B">
          -205 109 436 -64 callsubr
          50 -622 rmoveto
          24 -29 rlineto
          -80 callgsubr
        </CharString>
        <CharString name="uni0232">
          -52 158 -32 callsubr
          -417 -748 rmoveto
          -6 -50 rlineto
          -94 callgsubr
          rlineto
          endchar
        </CharString>
        <CharString name="uni0232.loclGUA">
          79 221 -32 callsubr
          -175 -150 -101 callsubr
        </CharString>
        <CharString name="uni0233">
          -131 108 689 -35 callsubr
          -407 -861 -100 callsubr
          endchar
        </CharString>
        <CharString name="uni0233.loclGUA">
          -29 171 689 -35 callsubr
          -356 -861 -100 callgsubr
        </CharString>
        <CharString name="uni0237">
          -272 42 486 rmoveto
          -62 vlineto
          -83 callgsubr
          endchar
        </CharString>
        <CharString name="uni0259">
          -132 238 504 rmoveto
          -76 -85 -33 -46 -40 hvcurveto
          22 -37 rlineto
          20 31 44 15 29 hhcurveto
          67 33 -22 -76 hvcurveto
          -35 vlineto
          -140 -28 -117 -36 -138 vvcurveto
          -56 49 -51 100 163 73 219 152 113 -49 39 -104 vhcurveto
          18 -269 rmoveto
          -6 -89 -29 -76 -8 -7 rrcurveto
          -4 -4 -17 -6 -18 hhcurveto
          -28 -17 16 37 61 10 31 117 37 hvcurveto
          endchar
        </CharString>
        <CharString name="uni0272">
          7 446 88 rmoveto
          -5 callsubr
          -59 -368 -10 -65 -9 -23 -8 -14 rlinecurve
          -4 -2 -20 -6 -28 hhcurveto
          -81 hlineto
          -1 -1 -14 -18 -27 vvcurveto
          -38 21 -16 51 123 88 97 116 16 vhcurveto
          50 345 rlineto
          7 12 51 30 42 hhcurveto
          21 9 -14 -19 -19 -3 -21 -3 -16 hvcurveto
          -42 -10 callsubr
          -24 -22 -1 callsubr
          76 52 -28 callsubr
          62 vlineto
          endchar
        </CharString>
        <CharString name="uni02BC">
          -441 56 -63 callsubr
          endchar
        </CharString>
        <CharString name="uni02C9">
          -212 66 689 -35 callsubr
          endchar
        </CharString>
        <CharString name="uni0302">
          9 553 -103 callgsubr
          endchar
        </CharString>
        <CharString name="uni0302.case">
          -237 715 -103 callsubr
          endchar
        </CharString>
        <CharString name="uni03020300">
          -65 746 -74 callsubr
          28 -193 -103 callgsubr
          endchar
        </CharString>
        <CharString name="uni03020300.case">
          -73 873 -85 callgsubr
          -164 -158 -103 callsubr
          endchar
        </CharString>
        <CharString name="uni03020301">
          -107 697 9 callgsubr
          -18 callsubr
          rlineto
          34 -184 -103 callgsubr
          endchar
        </CharString>
        <CharString name="uni03020301.case">
          -2 818 -84 callsubr
          -211 -151 -103 callsubr
          endchar
        </CharString>
        <CharString name="uni03020303">
          -34 -70 callgsubr
          endchar
        </CharString>
        <CharString name="uni03020303.case">
          -269 -69 callgsubr
          endchar
        </CharString>
        <CharString name="uni03020309">
          -100 682 -101 callgsubr
          -5 -129 -103 callgsubr
          endchar
        </CharString>
        <CharString name="uni03020309.case">
          9 807 -102 callsubr
          -246 -92 -103 callsubr
          endchar
        </CharString>
        <CharString name="uni0304">
          -274 689 -35 callsubr
          endchar
        </CharString>
        <CharString name="uni0304.case">
          -275 -32 callsubr
          endchar
        </CharString>
        <CharString name="uni0306">
          -132 559 -55 callgsubr
        </CharString>
        <CharString name="uni0306.case">
          79 814 -47 callgsubr
        </CharString>
        <CharString name="uni03060300">
          -144 765 -74 callsubr
          6 -206 -55 callgsubr
        </CharString>
        <CharString name="uni03060300.case">
          -187 880 -85 callgsubr
          266 -66 -47 callgsubr
        </CharString>
        <CharString name="uni03060301">
          -118 716 9 callgsubr
          -18 callsubr
          rlineto
          12 -197 -55 callgsubr
        </CharString>
        <CharString name="uni03060301.case">
          -108 825 -84 callsubr
          211 -59 -47 callgsubr
        </CharString>
        <CharString name="uni03060303">
          -36 766 rmoveto
          20 22 11 23 22 hvcurveto
          47 48 -27 28 -77 -32 -99 29 rlineto
          6 -21 -20 5 -19 hhcurveto
          -27 -18 -12 -23 -20 hvcurveto
          -47 -47 27 -28 77 32 82 -25 rlineto
          -7 23 25 -8 30 hhcurveto
          -130 -207 -55 callgsubr
        </CharString>
        <CharString name="uni03060303.case">
          -269 896 rmoveto
          29 -27 82 31 105 -29 rlineto
          -7 23 19 -4 25 hhcurveto
          20 23 12 22 24 hvcurveto
          50 45 -29 26 -82 -30 -105 28 rlineto
          6 -23 -19 5 -25 hhcurveto
          -20 -25 -12 -22 -22 hvcurveto
          298 -126 -47 callgsubr
        </CharString>
        <CharString name="uni03060309">
          -133 701 -101 callgsubr
          -5 -142 -55 callgsubr
        </CharString>
        <CharString name="uni03060309.case">
          -111 816 -102 callsubr
          190 -2 -47 callgsubr
        </CharString>
        <CharString name="uni0307">
          -25 -65 callsubr
          endchar
        </CharString>
        <CharString name="uni0307.case">
          -7 -51 callsubr
          endchar
        </CharString>
        <CharString name="uni0308">
          -225 576 -94 callsubr
          endchar
        </CharString>
        <CharString name="uni0308.case">
          -226 687 -91 callsubr
          endchar
        </CharString>
        <CharString name="uni030A">
          -61 557 -62 callsubr
          endchar
        </CharString>
        <CharString name="uni030A.case">
          -47 663 -51 callgsubr
          endchar
        </CharString>
        <CharString name="uni030B">
          -246 -53 callsubr
          32 -33 18 -32 -7 -6 -1 -1 -6 vhcurveto
          -82 -172 rlineto
          endchar
        </CharString>
        <CharString name="uni030B.case">
          -259 662 -46 callsubr
          227 -34 -46 callsubr
          endchar
        </CharString>
        <CharString name="uni030C">
          -232 703 -81 callgsubr
          endchar
        </CharString>
        <CharString name="uni030C.case">
          -86 674 -77 callgsubr
          endchar
        </CharString>
        <CharString name="uni030F">
          -191 -80 callsubr
          endchar
        </CharString>
        <CharString name="uni030F.case">
          -174 -71 callgsubr
          endchar
        </CharString>
        <CharString name="uni0311">
          -226 -69 callsubr
          endchar
        </CharString>
        <CharString name="uni0311.case">
          -251 -68 callgsubr
          endchar
        </CharString>
        <CharString name="uni031B">
          -211 306 rmoveto
          182 89 47 67 52 vvcurveto
          41 -28 16 -5 4 vhcurveto
          -73 -48 rlineto
          -15 vlineto
          8 -7 6 -7 -15 vvcurveto
          -51 -74 -54 -63 -32 vhcurveto
          endchar
        </CharString>
        <CharString name="uni0326">
          -183 -186 rmoveto
          24 -29 rlineto
          -80 callgsubr
        </CharString>
        <CharString name="uni0327">
          -246 -56 callsubr
          28 -49 vlineto
          -32 -51 -58 callsubr
          endchar
        </CharString>
        <CharString name="uni0328">
          -52 -134 rmoveto
          -45 callgsubr
          59 79 42 0 hvcurveto
          -60 hlineto
          -48 -22 -66 -43 -68 -37 callgsubr
          endchar
        </CharString>
        <CharString name="uni0335">
          -343 299 rmoveto
          332 hlineto
          10 67 rlineto
          -332 hlineto
          endchar
        </CharString>
        <CharString name="uni0336">
          -4 494 rmoveto
          -612 hlineto
          -10 -67 rlineto
          612 hlineto
          endchar
        </CharString>
        <CharString name="uni0394">
          -11 callsubr
        </CharString>
        <CharString name="uni03A9">
          -43 callsubr
        </CharString>
        <CharString name="uni03BC">
          -52 callsubr
        </CharString>
        <CharString name="uni1E0C">
          -31 callgsubr
          6 -263 -102 callgsubr
          endchar
        </CharString>
        <CharString name="uni1E0D">
          -36 299 105 -72 callsubr
          38 263 -59 callsubr
          -137 -562 -102 callgsubr
          endchar
        </CharString>
        <CharString name="uni1E24">
          121 -5 58 -62 callgsubr
          205 -266 -102 callgsubr
          endchar
        </CharString>
        <CharString name="uni1E25">
          -9 141 613 -65 callgsubr
          156 -820 -102 callgsubr
          endchar
        </CharString>
        <CharString name="uni1E44">
          90 386 -51 callsubr
          -393 -623 -92 callgsubr
          endchar
        </CharString>
        <CharString name="uni1E45">
          5 329 -65 callsubr
          -212 -158 -88 callsubr
          endchar
        </CharString>
        <CharString name="uni1E5A">
          -10 -13 -46 callgsubr
          4 -529 -102 callgsubr
          endchar
        </CharString>
        <CharString name="uni1E5B">
          -197 117 -26 callsubr
          43 -619 -102 callgsubr
          endchar
        </CharString>
        <CharString name="uni1E62">
          -107 184 -11 -84 callgsubr
          1 -183 -102 callgsubr
          endchar
        </CharString>
        <CharString name="uni1E63">
          -152 160 -44 callsubr
          -18 -183 -102 callgsubr
          endchar
        </CharString>
        <CharString name="uni1E6C">
          -42 91 58 rmoveto
          -8 -58 rlineto
          275 hlineto
          -59 callgsubr
          rlineto
          35 -266 -102 callgsubr
          endchar
        </CharString>
        <CharString name="uni1E6D">
          -209 126 436 -64 callsubr
          93 -630 -102 callgsubr
          endchar
        </CharString>
        <CharString name="uni1E92">
          -22 -8 69 rmoveto
          28 -69 rlineto
          -78 callsubr
          rlineto
          -163 -759 -102 callgsubr
          endchar
        </CharString>
        <CharString name="uni1E93">
          -152 239 359 -98 callgsubr
          -97 -565 -102 callgsubr
          endchar
        </CharString>
        <CharString name="uni1E9E">
          138 414 -11 rmoveto
          149 93 89 109 70 -36 59 -101 24 hvcurveto
          -4 8 172 226 -46 72 rlineto
          9 -48 -87 11 -60 hhcurveto
          -202 -134 -123 -200 -28 hvcurveto
          -38 -271 -71 -14 -16 callgsubr
          203 hlineto
          8 58 2 14 40 297 rlineto
          146 20 43 77 132 hhcurveto
          37 35 -6 -8 30 hvcurveto
          8 -14 -170 -224 28 -69 rlineto
          145 -5 14 -69 -39 vvcurveto
          -63 -29 -39 -65 -36 -45 17 19 -15 -24 callsubr
          18 68 -30 79 hhcurveto
          endchar
        </CharString>
        <CharString name="uni1EA0">
          -8 -49 58 -107 callsubr
          -64 -658 -102 callgsubr
          endchar
        </CharString>
        <CharString name="uni1EA1">
          -30 293 104 -107 callgsubr
          -128 -564 -102 callgsubr
          endchar
        </CharString>
        <CharString name="uni1EA2">
          -8 301 675 -102 callsubr
          -350 -617 -107 callsubr
          endchar
        </CharString>
        <CharString name="uni1EA3">
          -30 269 536 -101 callgsubr
          24 -432 -107 callgsubr
          endchar
        </CharString>
        <CharString name="uni1EA4">
          -8 410 818 -84 callsubr
          -211 -151 -103 callsubr
          -314 -731 -107 callsubr
          endchar
        </CharString>
        <CharString name="uni1EA5">
          -30 375 697 9 callgsubr
          -18 callsubr
          rlineto
          34 -184 -103 callgsubr
          17 -518 -107 callgsubr
          endchar
        </CharString>
        <CharString name="uni1EA6">
          -8 345 873 -85 callgsubr
          -164 -158 -103 callsubr
          -320 -731 -107 callsubr
          endchar
        </CharString>
        <CharString name="uni1EA7">
          -30 379 746 -74 callsubr
          28 -193 -103 callgsubr
          -13 -518 -107 callgsubr
          endchar
        </CharString>
        <CharString name="uni1EA8">
          -8 412 807 -102 callsubr
          -246 -92 -103 callsubr
          -305 -731 -107 callsubr
          endchar
        </CharString>
        <CharString name="uni1EA9">
          -30 393 682 -101 callgsubr
          -5 -129 -103 callgsubr
          6 -518 -107 callgsubr
          endchar
        </CharString>
        <CharString name="uni1EAA">
          -8 153 -69 callgsubr
          -324 -731 -107 callsubr
          endchar
        </CharString>
        <CharString name="uni1EAB">
          -30 404 -70 callgsubr
          -9 -518 -107 callgsubr
          endchar
        </CharString>
        <CharString name="uni1EAC">
          -8 192 715 -103 callsubr
          -331 -731 -107 callsubr
          -64 -658 -102 callgsubr
          endchar
        </CharString>
        <CharString name="uni1EAD">
          -30 417 553 -103 callgsubr
          -23 -518 -107 callgsubr
          -128 -564 -102 callgsubr
          endchar
        </CharString>
        <CharString name="uni1EAE">
          -8 325 825 -84 callsubr
          211 -59 -93 callsubr
          -561 -756 -107 callsubr
          endchar
        </CharString>
        <CharString name="uni1EAF">
          -30 317 716 9 callgsubr
          -18 callsubr
          rlineto
          12 -197 -99 callgsubr
          -4 -455 -107 callgsubr
          endchar
        </CharString>
        <CharString name="uni1EB0">
          -8 253 880 -85 callgsubr
          266 -66 -93 callsubr
          -568 -756 -107 callsubr
          endchar
        </CharString>
        <CharString name="uni1EB1">
          -30 294 765 -74 callsubr
          6 -206 -99 callgsubr
          -7 -455 -107 callgsubr
          endchar
        </CharString>
        <CharString name="uni1EB2">
          -8 329 816 -102 callsubr
          190 -2 -93 callsubr
          -568 -756 -107 callsubr
          endchar
        </CharString>
        <CharString name="uni1EB3">
          -30 304 701 -101 callgsubr
          -5 -142 -99 callgsubr
          -6 -455 -107 callgsubr
          endchar
        </CharString>
        <CharString name="uni1EB4">
          -8 153 896 rmoveto
          29 -27 82 31 105 -29 rlineto
          -7 23 19 -4 25 hhcurveto
          20 23 12 22 24 hvcurveto
          50 45 -29 26 -82 -30 -105 28 rlineto
          6 -23 -19 5 -25 hhcurveto
          -20 -25 -12 -22 -22 hvcurveto
          298 -126 -93 callsubr
          -550 -756 -107 callsubr
          endchar
        </CharString>
        <CharString name="uni1EB5">
          -30 405 766 rmoveto
          20 22 11 23 22 hvcurveto
          47 48 -27 28 -77 -32 -99 29 rlineto
          6 -21 -20 5 -19 hhcurveto
          -27 -18 -12 -23 -20 hvcurveto
          -47 -47 27 -28 77 32 82 -25 rlineto
          -7 23 25 -8 30 hhcurveto
          -130 -207 -99 callgsubr
          18 -455 -107 callgsubr
          endchar
        </CharString>
        <CharString name="uni1EB6">
          -8 509 814 -93 callsubr
          -558 -756 -107 callsubr
          -64 -658 -102 callgsubr
          endchar
        </CharString>
        <CharString name="uni1EB7">
          -30 288 559 -99 callgsubr
          5 -455 -107 callgsubr
          -128 -564 -102 callgsubr
          endchar
        </CharString>
        <CharString name="uni1EB8">
          -24 -4 58 -106 callgsubr
          139 -266 -102 callgsubr
          endchar
        </CharString>
        <CharString name="uni1EB9">
          -132 182 -10 rmoveto
          -105 callgsubr
          3 -453 -102 callgsubr
          endchar
        </CharString>
        <CharString name="uni1EBA">
          -24 293 675 -102 callsubr
          -297 -617 -106 callgsubr
          endchar
        </CharString>
        <CharString name="uni1EBB">
          -132 233 536 -101 callgsubr
          -51 -546 rmoveto
          -105 callgsubr
          endchar
        </CharString>
        <CharString name="uni1EBC">
          -24 135 727 -90 callgsubr
          -189 -724 -106 callgsubr
          endchar
        </CharString>
        <CharString name="uni1EBD">
          -132 358 576 rmoveto
          20 22 -87 callgsubr
          -176 -586 rmoveto
          -105 callgsubr
          endchar
        </CharString>
        <CharString name="uni1EBE">
          -24 402 818 -84 callsubr
          -211 -151 -103 callsubr
          -261 -731 -106 callgsubr
          endchar
        </CharString>
        <CharString name="uni1EBF">
          -132 339 697 9 callgsubr
          -18 callsubr
          rlineto
          34 -184 -103 callgsubr
          -58 -632 rmoveto
          -105 callgsubr
          endchar
        </CharString>
        <CharString name="uni1EC0">
          -24 337 873 -85 callgsubr
          -164 -158 -103 callsubr
          -267 -731 -106 callgsubr
          endchar
        </CharString>
        <CharString name="uni1EC1">
          -132 343 746 -74 callsubr
          28 -193 -103 callgsubr
          -88 -632 rmoveto
          -105 callgsubr
          endchar
        </CharString>
        <CharString name="uni1EC2">
          -24 404 807 -102 callsubr
          -246 -92 -103 callsubr
          -252 -731 -106 callgsubr
          endchar
        </CharString>
        <CharString name="uni1EC3">
          -132 357 682 -101 callgsubr
          -5 -129 -103 callgsubr
          -69 -632 rmoveto
          -105 callgsubr
          endchar
        </CharString>
        <CharString name="uni1EC4">
          -24 145 -69 callgsubr
          -271 -731 -106 callgsubr
          endchar
        </CharString>
        <CharString name="uni1EC5">
          -132 368 -70 callgsubr
          -84 -632 rmoveto
          -105 callgsubr
          endchar
        </CharString>
        <CharString name="uni1EC6">
          -24 184 715 -103 callsubr
          -278 -731 -106 callgsubr
          139 -266 -102 callgsubr
          endchar
        </CharString>
        <CharString name="uni1EC7">
          -132 381 553 -103 callgsubr
          -98 -632 rmoveto
          -105 callgsubr
          3 -453 -102 callgsubr
          endchar
        </CharString>
        <CharString name="uni1EC8">
          -218 187 675 -102 callsubr
          -191 -617 -89 callsubr
          endchar
        </CharString>
        <CharString name="uni1EC9">
          -252 158 536 -101 callgsubr
          -47 -128 -81 callsubr
        </CharString>
        <CharString name="uni1ECA">
          -218 -4 58 -89 callsubr
          35 -266 -102 callgsubr
          endchar
        </CharString>
        <CharString name="uni1ECB">
          -246 186 -65 callsubr
          -66 -159 rmoveto
          2 callgsubr
          10 callgsubr
          319 rlineto
          97 vlineto
          -198 -19 rlineto
          -62 vlineto
          47 -617 -102 callgsubr
          endchar
        </CharString>
        <CharString name="uni1ECC">
          103 283 -11 -104 callgsubr
          -33 -249 -102 callgsubr
          endchar
        </CharString>
        <CharString name="uni1ECD">
          -73 202 -11 -106 callsubr
          -52 -255 -102 callgsubr
          endchar
        </CharString>
        <CharString name="uni1ECE">
          103 335 675 -102 callsubr
          -52 -686 -104 callgsubr
          endchar
        </CharString>
        <CharString name="uni1ECF">
          -73 248 536 -101 callgsubr
          -46 -547 -106 callsubr
          endchar
        </CharString>
        <CharString name="uni1ED0">
          103 444 818 -84 callsubr
          -211 -151 -103 callsubr
          -16 -800 -104 callgsubr
          endchar
        </CharString>
        <CharString name="uni1ED1">
          -73 354 697 9 callgsubr
          -18 callsubr
          rlineto
          34 -184 -103 callgsubr
          -53 -633 -106 callsubr
          endchar
        </CharString>
        <CharString name="uni1ED2">
          103 379 873 -85 callgsubr
          -164 -158 -103 callsubr
          -22 -800 -104 callgsubr
          endchar
        </CharString>
        <CharString name="uni1ED3">
          -73 358 746 -74 callsubr
          28 -193 -103 callgsubr
          -83 -633 -106 callsubr
          endchar
        </CharString>
        <CharString name="uni1ED4">
          103 446 807 -102 callsubr
          -246 -92 -103 callsubr
          -7 -800 -104 callgsubr
          endchar
        </CharString>
        <CharString name="uni1ED5">
          -73 372 682 -101 callgsubr
          -5 -129 -103 callgsubr
          -64 -633 -106 callsubr
          endchar
        </CharString>
        <CharString name="uni1ED6">
          103 187 -69 callgsubr
          -26 -800 -104 callgsubr
          endchar
        </CharString>
        <CharString name="uni1ED7">
          -73 383 -70 callgsubr
          -79 -633 -106 callsubr
          endchar
        </CharString>
        <CharString name="uni1ED8">
          103 226 715 -103 callsubr
          -33 -800 -104 callgsubr
          -33 -249 -102 callgsubr
          endchar
        </CharString>
        <CharString name="uni1ED9">
          -73 396 553 -103 callgsubr
          -93 -633 -106 callsubr
          -52 -255 -102 callgsubr
          endchar
        </CharString>
        <CharString name="uni1EDA">
          103 495 729 rmoveto
          39 14 6 14 18 vvcurveto
          37 -22 19 -16 9 vhcurveto
          -188 -118 24 -48 rlineto
          456 -6 -87 callsubr
        </CharString>
        <CharString name="uni1EDB">
          -73 356 -33 callsubr
          334 -37 -95 callgsubr
          endchar
        </CharString>
        <CharString name="uni1EDC">
          103 259 729 -85 callgsubr
          535 -61 -87 callsubr
        </CharString>
        <CharString name="uni1EDD">
          -73 237 600 -74 callsubr
          360 -86 -95 callgsubr
          endchar
        </CharString>
        <CharString name="uni1EDE">
          103 372 780 rmoveto
          19 12 -5 -14 -11 -10 -6 -20 -8 hvcurveto
          -40 -16 -5 -8 -15 vvcurveto
          -6 3 -8 4 -8 vhcurveto
          70 6 rlineto
          17 6 2 18 7 vhcurveto
          31 12 43 21 39 vvcurveto
          44 -45 24 -75 -62 -22 -16 -24 -8 2 -12 11 -15 vhcurveto
          5 19 17 3 24 hhcurveto
          422 -112 -87 callsubr
        </CharString>
        <CharString name="uni1EDF">
          -73 282 670 rmoveto
          23 12 -6 -16 -19 -15 -9 -14 -8 hvcurveto
          -35 -21 -12 -11 -16 vvcurveto
          -8 3 -9 4 -11 vhcurveto
          70 8 rlineto
          25 7 -2 20 11 vhcurveto
          39 20 34 26 42 vvcurveto
          48 -44 23 -76 -62 -22 -16 -24 -8 2 -12 12 -15 vhcurveto
          5 18 19 3 17 hhcurveto
          315 -156 -95 callgsubr
          endchar
        </CharString>
        <CharString name="uni1EE0">
          103 288 732 rmoveto
          105 -36 rlineto
          -8 23 19 -6 25 hhcurveto
          20 23 16 27 24 hvcurveto
          50 56 -29 33 -82 -38 -105 35 rlineto
          8 -23 -19 6 -25 hhcurveto
          -20 -25 -15 -28 -22 hvcurveto
          -50 -55 29 -33 rlineto
          588 -26 -87 callsubr
        </CharString>
        <CharString name="uni1EE1">
          -73 213 -19 callgsubr
          461 -71 -95 callgsubr
          endchar
        </CharString>
        <CharString name="uni1EE2">
          103 794 668 rmoveto
          41 -28 16 -5 4 vhcurveto
          -73 -48 rlineto
          -15 vlineto
          8 -7 6 -7 -15 vvcurveto
          -41 -48 -43 -52 -32 vhcurveto
          78 -34 -74 61 -132 hhcurveto
          -180 -152 -140 -273 -174 116 -84 137 224 118 165 248 28 -3 28 -8 27 hvcurveto
          142 77 38 59 47 vvcurveto
          -491 -613 rmoveto
          -69 -55 38 146 256 49 100 123 69 56 -38 -146 -256 -50 -100 -123 hvcurveto
          -21 -90 -58 callgsubr
          endchar
        </CharString>
        <CharString name="uni1EE3">
          -73 597 514 -95 callgsubr
          -89 -106 -58 callgsubr
          endchar
        </CharString>
        <CharString name="uni1EE4">
          88 118 576 -105 callsubr
          214 -784 -102 callgsubr
          endchar
        </CharString>
        <CharString name="uni1EE5">
          -5 111 412 -104 callsubr
          180 -623 -102 callgsubr
          endchar
        </CharString>
        <CharString name="uni1EE6">
          88 349 675 -102 callsubr
          -231 -99 -105 callsubr
          endchar
        </CharString>
        <CharString name="uni1EE7">
          -5 282 536 -101 callgsubr
          -171 -124 -104 callsubr
          endchar
        </CharString>
        <CharString name="uni1EE8">
          88 352 674 -84 callsubr
          409 -4 -95 callsubr
          endchar
        </CharString>
        <CharString name="uni1EE9">
          -5 390 -33 callsubr
          368 -37 -99 callsubr
          endchar
        </CharString>
        <CharString name="uni1EEA">
          88 273 729 -85 callgsubr
          464 -11 -95 callsubr
          endchar
        </CharString>
        <CharString name="uni1EEB">
          -5 271 600 -74 callsubr
          394 -86 -99 callsubr
          endchar
        </CharString>
        <CharString name="uni1EEC">
          88 349 675 -102 callsubr
          388 43 -95 callsubr
          endchar
        </CharString>
        <CharString name="uni1EED">
          -5 316 670 rmoveto
          23 12 -6 -16 -19 -15 -9 -14 -8 hvcurveto
          -35 -21 -12 -11 -16 vvcurveto
          -8 3 -9 4 -11 vhcurveto
          70 8 rlineto
          25 7 -2 20 11 vhcurveto
          39 20 34 26 42 vvcurveto
          48 -44 23 -76 -62 -22 -16 -24 -8 2 -12 12 -15 vhcurveto
          5 18 19 3 17 hhcurveto
          349 -156 -99 callsubr
          endchar
        </CharString>
        <CharString name="uni1EEE">
          88 191 727 -90 callgsubr
          496 -64 -95 callsubr
          endchar
        </CharString>
        <CharString name="uni1EEF">
          -5 247 -19 callgsubr
          495 -71 -99 callsubr
          endchar
        </CharString>
        <CharString name="uni1EF0">
          88 737 718 -95 callsubr
          -475 -912 -102 callgsubr
          endchar
        </CharString>
        <CharString name="uni1EF1">
          -5 665 514 -99 callsubr
          -437 -549 -58 callgsubr
          endchar
        </CharString>
        <CharString name="uni1EF4">
          -52 91 50 rmoveto
          -6 -50 rlineto
          -94 callgsubr
          rlineto
          35 -258 -102 callgsubr
          endchar
        </CharString>
        <CharString name="uni1EF5">
          -131 31 -172 -100 callsubr
          248 -22 -102 callgsubr
          endchar
        </CharString>
        <CharString name="uni1EF6">
          -52 286 675 -102 callsubr
          -195 -625 rmoveto
          -6 -50 rlineto
          -94 callgsubr
          rlineto
          endchar
        </CharString>
        <CharString name="uni1EF7">
          -131 219 536 -101 callgsubr
          -188 -708 -100 callsubr
          endchar
        </CharString>
        <CharString name="uni1EF8">
          -52 128 727 -90 callgsubr
          -87 -732 rmoveto
          -6 -50 rlineto
          -94 callgsubr
          rlineto
          endchar
        </CharString>
        <CharString name="uni1EF8.loclGUA">
          79 191 727 -90 callgsubr
          155 -134 -101 callsubr
        </CharString>
        <CharString name="uni1EF9">
          -131 344 576 rmoveto
          20 22 -87 callgsubr
          -313 -748 -100 callsubr
          endchar
        </CharString>
        <CharString name="uni1EF9.loclGUA">
          -29 407 576 rmoveto
          20 22 -87 callgsubr
          -262 -748 -100 callgsubr
        </CharString>
        <CharString name="uni20B2">
          42 306 288 rmoveto
          107 -17 -25 -182 rlineto
          0 -33 -24 -46 -106 -24 60 116 239 56 105 115 53 36 -15 -16 27 vhcurveto
          6 -101 rlineto
          69 hlineto
          28 177 -26 7 -51 9 -69 3 rlinecurve
          14 111 -78 13 -27 -125 rlineto
          -202 -23 -100 -179 -206 vvcurveto
          -149 77 -73 111 -16 vhcurveto
          -15 -126 74 -12 30 138 37 6 26 12 24 13 rlinecurve
          7 hlineto
          16 -23 rlineto
          89 hlineto
          43 334 rlineto
          -238 hlineto
          endchar
        </CharString>
        <CharString name="uni20B2.osf">
          42 289 232 rmoveto
          107 -17 -8 -136 rlineto
          -14 -20 -33 -10 -26 hhcurveto
          -106 -24 47 93 190 50 83 104 53 36 -15 -16 27 hvcurveto
          6 -101 rlineto
          69 hlineto
          28 177 -26 7 -52 9 -71 3 rlinecurve
          14 108 -78 13 -26 -122 rlineto
          -189 -21 -94 -147 -169 vvcurveto
          -125 74 -62 112 -15 vhcurveto
          -13 -116 74 -12 28 126 51 4 11 15 27 14 rlinecurve
          7 hlineto
          16 -23 rlineto
          89 hlineto
          26 288 rlineto
          -238 hlineto
          endchar
        </CharString>
        <CharString name="uni2113">
          -102 234 -12 rmoveto
          91 94 70 -1 hhcurveto
          -13 42 rlineto
          -1 -1 -56 -23 -58 hhcurveto
          -62 -22 18 37 4 0 5 1 5 hvcurveto
          5 40 rlineto
          130 79 132 108 114 vvcurveto
          86 -35 38 -115 -124 -65 -100 -139 -19 vhcurveto
          -25 -181 -25 -16 -28 -16 -28 -17 rlinecurve
          24 -53 14 7 15 7 17 9 rlinecurve
          -1 -11 -1 -9 -8 vvcurveto
          -67 42 -28 114 vhcurveto
          -8 298 rmoveto
          17 124 rlineto
          92 12 16 36 45 hhcurveto
          34 9 -12 -40 -65 -45 -64 -88 -71 hvcurveto
          endchar
        </CharString>
        <CharString name="uni2126">
          -43 callsubr
        </CharString>
        <CharString name="uni2206">
          -11 callsubr
        </CharString>
        <CharString name="uni2215">
          1 callsubr
        </CharString>
        <CharString name="uni2219">
          -357 95 199 -55 callsubr
          endchar
        </CharString>
        <CharString name="uniA78B">
          -406 67 644 -4 callgsubr
        </CharString>
        <CharString name="uniA78C">
          -406 81 706 -4 callgsubr
        </CharString>
        <CharString name="uogonek">
          -5 497 -99 rmoveto
          -11 -18 -19 -8 -15 hhcurveto
          -23 -12 8 26 52 55 38 39 20 hvcurveto
          62 -70 vlineto
          70 421 -79 callgsubr
          -39 callgsubr
          vhcurveto
          -76 callgsubr
          vhcurveto
          10 hlineto
          -38 -24 -35 -36 -50 -37 callgsubr
          endchar
        </CharString>
        <CharString name="uring">
          -5 314 557 -62 callsubr
          -181 -617 -72 callgsubr
        </CharString>
        <CharString name="utilde">
          -5 407 576 rmoveto
          20 22 -87 callgsubr
          -296 -164 -104 callsubr
          endchar
        </CharString>
        <CharString name="v">
          -130 89 -14 rmoveto
          118 10 rlineto
          127 141 123 226 92 vvcurveto
          42 -61 20 -53 -14 -14 -1 -3 -12 vhcurveto
          -26 -51 68 -40 -13 -121 -26 -63 -99 -151 rlinecurve
          -4 49 hlineto
          -25 376 -186 -16 rlineto
          -62 vlineto
          72 -19 25 -293 rlineto
          endchar
        </CharString>
        <CharString name="w">
          110 83 -14 -89 callgsubr
        </CharString>
        <CharString name="wacute">
          110 354 -13 callsubr
          -18 callsubr
          rlineto
          -239 -605 -89 callgsubr
        </CharString>
        <CharString name="wcircumflex">
          110 487 553 -103 callgsubr
          -303 -636 -89 callgsubr
        </CharString>
        <CharString name="wdieresis">
          110 280 576 -94 callsubr
          -401 -590 -89 callgsubr
        </CharString>
        <CharString name="wgrave">
          110 328 600 -74 callsubr
          -245 -614 -89 callgsubr
        </CharString>
        <CharString name="x">
          -117 27 88 rmoveto
          -50 hlineto
          0 -20 -22 -26 vvcurveto
          -35 23 -13 38 45 30 18 38 23 vhcurveto
          66 109 37 -115 rlineto
          -35 11 21 -16 55 hhcurveto
          71 50 36 0 hvcurveto
          61 -97 vlineto
          -62 199 64 88 rlineto
          34 24 11 8 31 hhcurveto
          43 hlineto
          0 22 27 21 vvcurveto
          35 -17 13 -48 -46 -27 -19 -37 -23 vhcurveto
          -58 -92 -46 147 -177 -16 rlineto
          -62 vlineto
          81 -20 56 -180 -68 -101 rlineto
          -34 -23 -10 -11 -30 hhcurveto
          endchar
        </CharString>
        <CharString name="y">
          -131 31 -172 -100 callsubr
          endchar
        </CharString>
        <CharString name="y.loclGUA">
          -29 145 -172 -100 callgsubr
        </CharString>
        <CharString name="yacute">
          -103 247 -13 callsubr
          30 16 56 29 -75 callsubr
          rlineto
          -159 -763 -100 callsubr
          endchar
        </CharString>
        <CharString name="yacute.loclGUA">
          -29 297 -13 callsubr
          -18 callsubr
          rlineto
          -120 -763 -100 callgsubr
        </CharString>
        <CharString name="ycircumflex">
          -131 367 553 -103 callgsubr
          -235 -794 -100 callsubr
          endchar
        </CharString>
        <CharString name="ycircumflex.loclGUA">
          -29 430 553 -103 callgsubr
          -184 -794 -100 callgsubr
        </CharString>
        <CharString name="ydieresis">
          -103 201 576 -94 callsubr
          -349 -748 -100 callsubr
          endchar
        </CharString>
        <CharString name="ydieresis.loclGUA">
          -29 223 576 -94 callsubr
          -282 -748 -100 callgsubr
        </CharString>
        <CharString name="yen">
          -22 348 648 rmoveto
          -6 -50 62 -13 rlineto
          -9 vlineto
          -120 -231 rlineto
          -5 hlineto
          -71 217 rlineto
          22 vlineto
          64 14 6 50 rlineto
          -261 hlineto
          -6 -52 54 -10 65 -176 rlineto
          -92 hlineto
          -8 -65 rlineto
          124 hlineto
          24 -63 rlineto
          -154 hlineto
          -7 -69 rlineto
          164 hlineto
          -19 -149 -71 -14 -6 -50 rlineto
          276 hlineto
          6 50 -71 14 21 149 rlineto
          155 hlineto
          6 69 rlineto
          -149 hlineto
          32 58 rlineto
          123 hlineto
          8 68 rlineto
          -94 hlineto
          98 178 54 12 6 50 rlineto
          endchar
        </CharString>
        <CharString name="yen.osf">
          -22 96 hmoveto
          282 hlineto
          6 50 -71 14 6 56 rlineto
          153 hlineto
          6 69 rlineto
          -148 hlineto
          3 6 29 55 rlineto
          122 hlineto
          8 68 rlineto
          -89 hlineto
          83 146 54 12 6 50 rlineto
          -211 hlineto
          -6 -50 62 -13 rlineto
          -9 vlineto
          -107 -192 rlineto
          -5 hlineto
          -69 178 rlineto
          22 vlineto
          64 14 6 50 rlineto
          -264 hlineto
          -6 -52 54 -10 59 -144 rlineto
          -85 hlineto
          -8 -65 rlineto
          122 hlineto
          23 -61 rlineto
          -151 hlineto
          -7 -68 rlineto
          161 hlineto
          -5 -62 -71 -14 rlineto
          endchar
        </CharString>
        <CharString name="ygrave">
          -131 208 600 -74 callsubr
          -177 -772 -100 callsubr
          endchar
        </CharString>
        <CharString name="ygrave.loclGUA">
          -29 271 600 -74 callsubr
          -126 -772 -100 callgsubr
        </CharString>
        <CharString name="z">
          -152 239 359 -98 callgsubr
          endchar
        </CharString>
        <CharString name="zacute">
          -132 204 -13 callsubr
          30 16 56 29 -75 callsubr
          rlineto
          135 -602 rmoveto
          34 48 18 51 47 -27 42 0 hvcurveto
          -50 hlineto
          -24 -86 -117 63 rlineto
          11 vlineto
          272 339 -46 37 -56 -40 -106 25 rlineto
          10 -41 -39 7 -33 hhcurveto
          -48 -43 -26 -51 -47 30 -34 0 hvcurveto
          53 hlineto
          24 86 109 -70 rlineto
          -12 vlineto
          -271 -325 50 -41 47 30 111 -22 rlineto
          -8 41 42 -4 40 hhcurveto
          endchar
        </CharString>
        <CharString name="zacute.loclPLK">
          -152 247 -47 callsubr
          33 -209 -98 callgsubr
          endchar
        </CharString>
        <CharString name="zcaron">
          -132 134 703 -81 callgsubr
          73 -379 -98 callgsubr
          endchar
        </CharString>
        <CharString name="zdotaccent">
          -132 270 -65 callsubr
          -23 -207 -98 callgsubr
          endchar
        </CharString>
        <CharString name="zero">
          32 -11 67 539 65 hstem
          32 148 223 148 vstem
          243 -11 rmoveto
          257 51 285 153 146 -68 87 -160 -244 -47 -281 -155 -147 63 -88 148 hvcurveto
          29 67 rmoveto
          -89 -3 59 83 56 1 64 16 78 hvcurveto
          101 18 13 98 88 hhcurveto
          80 7 -59 -85 -54 -11 -99 -6 -43 hvcurveto
          -102 -14 -12 -97 -88 hhcurveto
          endchar
        </CharString>
        <CharString name="zero.osf">
          43 261 -11 rmoveto
          179 119 139 192 117 -73 96 -156 -185 -116 -161 -170 -132 67 -81 165 hvcurveto
          27 83 rmoveto
          -88 -30 37 98 182 46 61 94 79 29 -41 -84 -198 -42 -55 -88 hvcurveto
          endchar
        </CharString>
      <CharString index="0">
        rmoveto
        -27 callsubr
        -14 -20 -6 -18 -19 vvcurveto
        -33 26 -18 51 82 48 -28 callsubr
        -21 callsubr
        69 429 rlineto
        -76 hlineto
        -36 -38 rlineto
        16 -31 -45 18 -48 hhcurveto
        -138 -82 -25 callgsubr
        -113 44 -48 73 -49 callgsubr
        38 266 rmoveto
        -14 callgsubr
        -18 -9 40 43 105 18 94 27 60 hvcurveto
        2 1 9 1 11 hhcurveto
        32 38 -23 -40 39 hvcurveto
        return
      </CharString>
      <CharString index="1">
        rmoveto
        -3 callgsubr
        31 225 3 callsubr
        30 206 58 7 rlineto
        108 -115 66 hlineto
        -28 callgsubr
        -457 -91 callgsubr
        return
      </CharString>
      <CharString index="2">
        76 85 33 46 40 0 callsubr
        -20 -31 -44 -15 -29 hhcurveto
        -67 -33 22 76 hvcurveto
        35 vlineto
        140 28 117 36 138 vvcurveto
        56 -49 51 -100 -163 -73 -219 -152 -113 49 -39 104 vhcurveto
        -18 269 rmoveto
        6 89 29 76 8 7 rrcurveto
        4 4 17 6 18 hhcurveto
        28 17 -16 -37 -61 -10 -31 -117 -37 hvcurveto
        return
      </CharString>
      <CharString index="3">
        rmoveto
        224 118 165 248 127 -69 131 -194 -180 -152 -140 -273 -174 116 -84 137 hvcurveto
        20 66 rmoveto
        -69 -55 38 146 256 49 100 123 69 56 -38 -146 -256 -50 -100 -123 hvcurveto
        return
      </CharString>
      <CharString index="4">
        rmoveto
        38 36 -77 108 rlineto
        23 -16 -15 21 -18 hhcurveto
        -16 -24 -23 -36 -36 hvcurveto
        -92 -91 31 -34 124 65 rlineto
        return
      </CharString>
      <CharString index="5">
        rmoveto
        55 27 44 42 45 -30 28 -40 -55 -26 -47 -42 -39 27 -31 42 hvcurveto
        return
      </CharString>
      <CharString index="6">
        rmoveto
        70 8 rlineto
        25 7 -2 20 11 vhcurveto
        39 20 34 26 42 vvcurveto
        48 -44 23 -76 -62 -22 -16 -24 -8 2 -12 12 -15 vhcurveto
        5 18 19 3 17 hhcurveto
        23 12 -6 -16 -19 -15 -9 -14 -8 hvcurveto
        -35 -21 -12 -11 -16 vvcurveto
        -8 3 -9 4 -11 vhcurveto
        return
      </CharString>
      <CharString index="7">
        rmoveto
        202 61 122 85 14 hvcurveto
        82 474 -127 -11 -51 -300 rlineto
        -25 -25 -49 -42 -32 hhcurveto
        -20 -7 11 18 12 7 43 3 17 hvcurveto
        32 194 rlineto
        83 -73 callsubr
        75 -17 -35 -197 rlineto
        -4 -20 -7 -47 -27 vvcurveto
        -49 23 -40 59 80 71 77 34 29 vhcurveto
        3 -2 -21 -26 -6 -45 -5 -27 rlinecurve
        -99 -18 3 -38 -83 hhcurveto
        -36 -46 13 17 -25 hvcurveto
        88 -56 vlineto
        -21 -18 -32 -36 -42 vvcurveto
        -65 56 -35 105 vhcurveto
        endchar
      </CharString>
      <CharString index="8">
        -20 callgsubr
        37 150 0 hvcurveto
        -41 17 rlineto
        0 -43 -78 -79 -54 -25 36 45 -7 vhcurveto
        -10 -49 -16 -8 -10 hvcurveto
        -6 -4 -5 -5 -17 vvcurveto
        -51 50 -69 85 vhcurveto
        return
      </CharString>
      <CharString index="9">
        rmoveto
        -271 -325 50 -41 47 30 111 -22 rlineto
        -8 41 42 -4 40 hhcurveto
        34 48 18 51 47 -27 42 0 hvcurveto
        -50 hlineto
        -24 -86 -117 63 rlineto
        11 vlineto
        272 339 -46 37 -56 -40 -106 25 rlineto
        10 -41 -39 7 -33 hhcurveto
        -48 -43 -26 -51 -47 30 -34 0 hvcurveto
        53 hlineto
        24 86 109 -70 rlineto
        return
      </CharString>
      <CharString index="10">
        269 hlineto
        6 50 -61 16 30 207 rlineto
        24 22 -54 -34 14 hvcurveto
        59 -152 rlineto
        -26 8 13 -7 26 hhcurveto
        141 hlineto
        6 50 -65 23 -52 120 -17 40 -19 45 -48 21 rlinecurve
        90 29 93 66 108 vvcurveto
        113 -82 33 -100 vhcurveto
        -268 -34 callsubr
        243 277 rmoveto
        34 240 rlineto
        0 8 4 28 56 20 -36 -48 -66 -22 -94 -124 vhcurveto
        return
      </CharString>
      <CharString index="11">
        rmoveto
        16 -23 rlineto
        89 hlineto
        43 334 rlineto
        -238 hlineto
        -5 -56 107 -17 -25 -182 rlineto
        0 -33 -24 -46 -106 -24 63 123 246 56 108 115 53 36 -15 -16 27 vhcurveto
        6 -101 rlineto
        69 hlineto
        28 177 rlineto
        8 -31 -69 12 -92 hhcurveto
        -232 -115 -194 -226 -177 100 -74 143 79 10 17 17 32 hvcurveto
        return
      </CharString>
      <CharString index="12">
        rmoveto
        41 -28 16 -5 4 vhcurveto
        -73 -48 rlineto
        -15 vlineto
        8 -7 6 -7 -15 vvcurveto
        -29 -25 -31 -33 -27 vhcurveto
        83 -19 -60 34 -93 hhcurveto
        -144 -106 -145 -202 -121 65 -56 112 164 88 164 178 7 0 7 -1 7 hvcurveto
        112 67 32 52 43 vvcurveto
        -314 -443 rmoveto
        -50 callgsubr
        -59 -17 44 88 130 35 95 11 13 hvcurveto
        -88 callgsubr
        return
      </CharString>
      <CharString index="13">
        276 hlineto
        6 50 -71 14 29 210 171 312 54 12 6 50 rlineto
        -208 hlineto
        -6 -50 62 -13 rlineto
        -9 vlineto
        -120 -231 rlineto
        -5 hlineto
        -71 217 rlineto
        22 vlineto
        64 14 6 50 rlineto
        -261 hlineto
        -6 -52 54 -10 122 -329 -25 -193 return
      </CharString>
      <CharString index="14">
        -9 callgsubr
        -71 -504 return
      </CharString>
      <CharString index="15">
        rmoveto
        13 callgsubr
        56 391 rlineto
        4 hlineto
        1 -15 187 -448 9 callsubr
        79 576 -36 callgsubr
        -52 -363 rlineto
        -16 -4 vlineto
        -2 16 -182 435 rlineto
        -193 -91 callgsubr
        return
      </CharString>
      <CharString index="16">
        -93 callgsubr
        rlineto
        return
      </CharString>
      <CharString index="17">
        rmoveto
        29 -33 82 38 105 -36 rlineto
        -8 23 19 -6 25 hhcurveto
        20 23 16 27 24 hvcurveto
        50 56 -29 33 -82 -38 -105 35 rlineto
        8 -23 -19 6 -25 hhcurveto
        -20 -25 -15 -28 -22 hvcurveto
        return
      </CharString>
      <CharString index="18">
        rmoveto
        120 10 43 47 37 55 31 55 rlinecurve
        2 -31 rlineto
        -136 vlineto
        120 10 rlineto
        152 173 101 209 77 vvcurveto
        43 -60 20 -52 -15 -15 -2 -3 -12 vhcurveto
        -26 -51 69 -40 -10 -117 -44 -91 -88 -127 rlinecurve
        -4 48 hlineto
        -11 206 rlineto
        20 51 10 47 23 vvcurveto
        44 -50 11 -55 -33 -19 -10 0 vhcurveto
        14 -221 -24 -66 -35 -66 -46 -67 rlinecurve
        -4 47 hlineto
        -24 378 -188 -16 rlineto
        -62 vlineto
        75 -20 21 -292 rlineto
        endchar
      </CharString>
      <CharString index="19">
        6 6 22 4 17 hhcurveto
        47 25 -13 -114 -122 -18 -78 -20 -43 hvcurveto
        return
      </CharString>
      <CharString index="20">
        13 26 22 hvcurveto
        47 55 -27 32 -77 -37 -99 34 rlineto
        7 -21 -20 5 -19 hhcurveto
        -27 -18 -13 -27 -20 hvcurveto
        -47 -54 27 -32 77 37 82 -29 rlineto
        -8 23 25 -9 30 hhcurveto
        return
      </CharString>
      <CharString index="21">
        71 14 8 58 rlineto
        -275 -91 callgsubr
        return
      </CharString>
      <CharString index="22">
        -20 callgsubr
        -55 24 48 -188 118 rlineto
        -19 -11 -19 -17 -38 vvcurveto
        -17 6 -15 39 -13 vhcurveto
        return
      </CharString>
      <CharString index="23">
        -43 callgsubr
        42 46 -11 -17 24 vhcurveto
        10 -108 rlineto
        68 hlineto
        18 -20 callsubr
        10 -31 -65 11 -79 hhcurveto
        -144 -74 -80 -101 -81 40 -36 109 -95 hvcurveto
        90 -78 3 -18 -47 vvcurveto
        -34 -27 -34 -52 -48 -51 15 21 -22 -32 callgsubr
        return
      </CharString>
      <CharString index="24">
        75 -16 -57 -368 -10 -65 -9 -23 -8 -14 rlinecurve
        -4 -2 -20 -6 -28 hhcurveto
        -81 hlineto
        -1 -1 -14 -18 -27 vvcurveto
        -38 21 -16 51 123 88 97 116 16 vhcurveto
        51 367 rlineto
        97 vlineto
        return
      </CharString>
      <CharString index="25">
        -42 -302 rlineto
        -6 -42 -3 -37 -32 vvcurveto
        -92 40 -82 173 return
      </CharString>
      <CharString index="26">
        rmoveto
        79 -106 rlineto
        -23 17 13 -21 19 hhcurveto
        15 24 23 36 37 hvcurveto
        91 88 -31 34 -123 -67 -101 71 rlineto
        return
      </CharString>
      <CharString index="27">
        0 112 43 89 vvcurveto
        29 -17 30 -45 -26 -21 -16 -17 -10 vhcurveto
        0 19 -20 -28 vvcurveto
        -47 -36 7 callgsubr
      </CharString>
      <CharString index="28">
        -66 callsubr
        75 -17 -78 callgsubr
        return
      </CharString>
      <CharString index="29">
        -43 -240 rlineto
        -4 -20 -7 -47 -27 vvcurveto
        -49 23 -40 59 return
      </CharString>
      <CharString index="30">
        rmoveto
        12 23 20 30 37 hvcurveto
        90 74 -26 39 -124 -59 -113 61 -39 -48 87 -79 rlineto
        -18 19 19 -20 15 hhcurveto
        return
      </CharString>
      <CharString index="31">
        -27 callsubr
        -18 -22 -5 -20 -12 vvcurveto
        -39 23 -16 52 return
      </CharString>
      <CharString index="32">
        133 hlineto
        55 361 rlineto
        20 19 22 13 57 hhcurveto
        45 hlineto
        15 14 13 32 26 vvcurveto
        30 -14 17 -34 -48 -52 -60 -41 -17 vhcurveto
        -4 hlineto
        5 12 5 19 14 vvcurveto
        48 -73 callsubr
        return
      </CharString>
      <CharString index="33">
        rmoveto
        -33 -124 rlineto
        -17 -21 -38 -9 -34 hhcurveto
        -96 -35 41 156 239 62 103 104 45 35 -10 -23 34 hvcurveto
        4 -98 rlineto
        69 hlineto
        28 176 rlineto
        13 -50 -67 7 -70 hhcurveto
        -224 -119 -187 -229 -144 75 -111 176 69 76 13 24 63 hvcurveto
        16 -20 callsubr
        endchar
      </CharString>
      <CharString index="34">
        rmoveto
        -24 -180 rlineto
        -14 28 68 -13 45 hhcurveto
        148 41 49 94 13 hvcurveto
        61 447 0 callgsubr
        -275 -48 callsubr
        -63 -456 rlineto
        -57 -8 -15 -9 -33 hhcurveto
        -27 -15 14 0 hvcurveto
        -14 125 rlineto
        endchar
      </CharString>
      <CharString index="35">
        rmoveto
        -26 callgsubr
        40 237 rlineto
        83 vlineto
        -199 -19 rlineto
        -61 vlineto
        75 -17 -43 -240 rlineto
        -4 -20 -7 -47 -27 vvcurveto
        -49 23 -40 59 vhcurveto
        endchar
      </CharString>
      <CharString index="36">
        662 rmoveto
        47 34 -70 150 rlineto
        -38 -51 -33 -38 -20 15 -17 15 -11 hvcurveto
        271 -65 rmoveto
        47 34 -70 150 rlineto
        -38 -51 -33 -38 -20 15 -17 15 -11 hvcurveto
        return
      </CharString>
      <CharString index="37">
        776 rmoveto
        20 22 11 23 22 hvcurveto
        47 48 -27 28 -77 -32 -99 29 rlineto
        6 -21 -20 5 -19 hhcurveto
        -27 -18 -12 -23 -20 hvcurveto
        -47 -47 27 -28 77 32 82 -25 rlineto
        -7 23 25 -8 30 hhcurveto
        -1 -223 -103 callgsubr
        return
      </CharString>
      <CharString index="38">
        896 rmoveto
        29 -27 82 31 105 -29 rlineto
        -7 23 19 -4 25 hhcurveto
        20 23 12 22 24 hvcurveto
        50 45 -29 26 -82 -30 -105 28 rlineto
        6 -23 -19 5 -25 hhcurveto
        -20 -25 -12 -22 -22 hvcurveto
        -18 -225 -103 callsubr
        return
      </CharString>
      <CharString index="39">
        704 rmoveto
        32 -25 rlineto
        39 39 38 24 65 hhcurveto
        36 28 -13 -47 24 hvcurveto
        39 14 29 22 21 vvcurveto
        56 -73 44 -64 -119 -56 -103 -32 -18 vhcurveto
        return
      </CharString>
      <CharString index="40">
        rmoveto
        -38 callgsubr
        441 hlineto
        21 -20 callsubr
        -29 callgsubr
        -85 callsubr
        return
      </CharString>
      <CharString index="41">
        674 -1 callgsubr
        39 13 6 15 18 vvcurveto
        37 -22 19 -16 9 vhcurveto
        -188 -118 rlineto
        return
      </CharString>
      <CharString index="42">
        rmoveto
        -109 -613 rlineto
        130 hlineto
        58 386 rlineto
        8 14 50 29 41 hhcurveto
        21 8 -14 -19 -19 -2 -21 -3 -16 hvcurveto
        -43 -222 -57 callgsubr
        -71 vlineto
        42 249 rlineto
        3 19 7 45 27 vvcurveto
        46 -16 40 -74 -47 -59 -32 -44 -58 vhcurveto
        27 175 rlineto
        94 vlineto
        -197 -19 rlineto
        -62 vlineto
        return
      </CharString>
      <CharString index="43">
        rmoveto
        183 61 81 208 29 hvcurveto
        41 298 71 14 7 58 rlineto
        -227 -76 callsubr
        vhcurveto
        endchar
      </CharString>
      <CharString index="44">
        rmoveto
        131 70 79 0 0 callsubr
        0 -54 -35 -50 -67 -33 22 76 vhcurveto
        -53 callgsubr
      </CharString>
      <CharString index="45">
        2 callsubr
        31 223 rlineto
        205 hlineto
        -31 -223 -71 -14 -34 callgsubr
        72 -4 callsubr
        -31 -214 rlineto
        -205 hlineto
        30 214 -86 callgsubr
        return
      </CharString>
      <CharString index="46">
        -67 callsubr
        16 -31 49 86 53 return
      </CharString>
      <CharString index="47">
        rmoveto
        -72 -28 27 71 hvcurveto
        35 vlineto
        194 41 63 52 109 vvcurveto
        64 -60 43 -89 -43 -39 -15 -30 -34 vhcurveto
        28 -56 -56 17 -41 hhcurveto
        -108 -112 -185 -178 -107 39 -54 78 45 49 35 65 46 hvcurveto
        -69 14 45 -30 90 hhcurveto
        77 84 33 46 40 0 callsubr
        -20 -31 -44 -15 -29 hhcurveto
        -50 360 rmoveto
        5 5 19 5 15 hhcurveto
        30 15 -18 -35 -71 -25 -26 -102 -32 hvcurveto
        4 59 25 100 14 13 rrcurveto
        -178 -280 rmoveto
        -40 -34 -35 -23 -26 hhcurveto
        -16 -11 34 49 95 17 96 28 68 hvcurveto
        2 1 8 1 12 hhcurveto
        33 40 -20 -34 37 hvcurveto
        -33 -64 -20 -84 -1 -80 rrcurveto
        endchar
      </CharString>
      <CharString index="48">
        8 58 -70 14 70 507 rlineto
        101 -115 66 hlineto
        -28 callgsubr
        -515 hlineto
        -20 -184 rlineto
        66 hlineto
        37 115 rlineto
        105 hlineto
        -72 -507 return
      </CharString>
      <CharString index="49">
        rmoveto
        -55 -26 -47 -42 -39 27 -31 42 55 27 44 42 45 -30 28 -40 hvcurveto
        return
      </CharString>
      <CharString index="50">
        -54 callgsubr
        62 return
      </CharString>
      <CharString index="51">
        rmoveto
        29 68 rlineto
        -3 15 15 -1 17 hhcurveto
        164 88 164 178 86 -28 51 -51 25 hvcurveto
        24 55 -55 25 -28 -63 rlineto
        2 -13 -14 1 -14 hhcurveto
        -144 -106 -145 -202 -75 25 -51 46 -27 hvcurveto
        -27 -61 rlineto
        90 204 rmoveto
        -1 11 0 12 14 vvcurveto
        130 35 95 11 13 vhcurveto
        6 6 22 4 17 hhcurveto
        13 11 -1 -4 10 hvcurveto
        -49 -375 rmoveto
        -18 -14 4 8 -11 hvcurveto
        128 292 rlineto
        1 -14 1 -17 -20 vvcurveto
        -122 -18 -78 -20 -43 vhcurveto
        -50 callgsubr
        endchar
      </CharString>
      <CharString index="52">
        -99 callgsubr
        endchar
      </CharString>
</ttFont>
